<?xml version="1.0" standalone="no"?>
<!DOCTYPE svg PUBLIC "-//W3C//DTD SVG 20010904//EN"
 "http://www.w3.org/TR/2001/REC-SVG-20010904/DTD/svg10.dtd">
<svg version="1.0" xmlns="http://www.w3.org/2000/svg"
 width="307.000000pt" height="307.000000pt" viewBox="0 0 307.000000 307.000000"
 preserveAspectRatio="xMidYMid meet">
<metadata>
Created by potrace 1.14, written by Peter Selinger 2001-2017
</metadata>
<g transform="translate(0.000000,307.000000) scale(0.100000,-0.100000)"
fill="#000000" stroke="none">
<path d="M186 2851 c-14 -16 -16 -30 -11 -77 7 -71 16 -127 21 -135 2 -3 6
-19 8 -36 3 -16 16 -66 29 -110 l23 -81 -45 14 c-112 34 -235 27 -196 -12 7
-8 17 -14 22 -14 14 0 178 -83 181 -92 2 -4 8 -8 14 -8 5 0 44 -24 86 -52 78
-54 173 -143 273 -258 59 -68 61 -79 23 -117 -15 -16 -114 -178 -114 -188 0
-4 23 14 51 39 29 26 54 44 57 42 7 -7 -54 -84 -111 -140 l-51 -48 52 4 c29 3
52 3 52 1 0 -2 -17 -21 -38 -42 -21 -22 -58 -62 -82 -91 l-43 -51 39 7 c21 3
37 4 34 2 -3 -3 -26 -24 -52 -46 -51 -44 -53 -55 -5 -41 17 5 33 7 35 4 10 -9
-104 -186 -155 -240 -49 -52 -56 -64 -40 -61 8 1 21 6 28 12 22 15 76 44 84
44 4 0 -9 -23 -29 -50 -20 -28 -36 -53 -36 -57 0 -3 -6 -14 -14 -22 -8 -9 -23
-32 -34 -51 -10 -19 -30 -52 -42 -74 -21 -35 -22 -38 -4 -28 10 5 30 22 43 36
25 26 62 39 41 14 -5 -7 -28 -40 -49 -73 -22 -33 -53 -73 -70 -90 -17 -16 -31
-33 -31 -37 0 -8 39 -2 75 12 14 5 25 7 25 4 0 -3 -18 -47 -40 -99 -22 -52
-40 -99 -40 -105 0 -6 13 -5 35 4 l35 15 -6 -27 c-4 -15 -11 -38 -17 -52 -5
-14 -13 -37 -17 -53 l-9 -27 32 22 c18 12 35 27 39 33 5 6 8 6 8 0 0 -5 5 -3
10 5 6 9 10 10 10 3 0 -6 -4 -15 -10 -18 -5 -3 -15 -15 -20 -26 -11 -19 -8
-20 129 -15 78 2 141 2 141 0 0 -2 -26 -23 -57 -46 -39 -30 -51 -44 -40 -46
29 -6 188 46 207 67 3 4 12 7 20 9 8 2 12 0 8 -4 -4 -4 -3 -13 3 -21 6 -7 8
-13 4 -13 -4 0 -2 -6 4 -14 6 -7 12 -24 13 -38 4 -42 22 -22 48 52 l24 70 19
-36 c10 -20 20 -34 22 -32 1 1 5 21 9 43 8 58 17 101 33 174 7 30 10 32 22 17
7 -9 20 -16 27 -16 8 0 14 -4 14 -10 0 -9 51 -40 66 -40 4 0 -6 12 -21 28 -15
15 -31 38 -36 51 -15 38 -27 101 -20 101 3 0 29 -16 56 -34 55 -37 70 -39 38
-3 -22 24 -45 63 -51 87 -9 35 -8 137 1 164 l10 29 19 -24 c10 -13 26 -39 35
-57 9 -20 19 -29 23 -22 8 12 4 161 -5 197 -7 28 4 29 33 3 12 -11 28 -20 36
-20 13 0 13 3 1 27 -8 15 -17 46 -20 68 -4 22 -8 49 -9 60 -4 28 14 75 28 75
14 0 72 -100 59 -100 -4 0 -3 -4 3 -8 7 -4 13 -23 15 -42 4 -49 8 -53 28 -28
l18 22 7 -39 c9 -44 52 -135 64 -135 10 0 9 30 -1 47 -4 6 -4 14 1 17 5 3 7
19 4 36 -5 33 14 43 25 13 3 -10 14 -36 23 -58 20 -44 41 -117 46 -154 5 -40
21 -45 29 -9 4 18 9 36 10 41 1 4 3 12 4 17 0 6 25 -17 54 -51 28 -34 62 -69
75 -77 22 -14 22 -14 19 27 -2 23 0 44 5 47 4 3 9 -3 9 -13 1 -10 2 -22 4 -28
1 -5 3 -17 4 -25 1 -9 8 -3 18 15 9 17 16 32 15 35 0 3 5 12 12 20 7 8 23 36
37 63 31 60 49 63 38 5 -13 -67 -11 -73 14 -45 24 28 46 67 73 132 l17 40 6
-30 c7 -36 24 -39 27 -5 5 63 9 80 16 80 4 0 8 -17 8 -37 0 -21 5 -45 10 -53
8 -12 10 -11 10 6 0 11 3 24 8 28 4 4 8 12 8 17 1 5 3 11 4 14 1 3 4 10 5 15
1 6 3 11 5 13 1 1 3 10 6 20 2 9 6 25 8 35 3 9 5 17 6 17 1 0 3 8 6 18 2 9 6
25 8 35 3 9 5 18 6 20 2 1 3 6 4 11 0 6 7 16 14 22 10 10 12 7 13 -17 2 -64
24 -154 38 -154 4 0 8 15 9 32 3 41 21 62 23 27 4 -77 -5 -212 -16 -229 -3 -5
-1 -10 5 -10 5 0 18 16 27 35 24 50 38 44 39 -18 0 -50 7 -109 18 -152 2 -11
5 -26 5 -34 2 -28 12 -2 19 45 9 60 26 67 31 11 4 -44 3 -245 -1 -287 -4 -31
13 -39 27 -14 10 19 44 54 52 54 2 0 3 -8 2 -18 -1 -9 0 -19 0 -22 2 -5 12
-105 14 -142 1 -10 7 -18 14 -18 13 0 14 5 17 52 2 32 19 32 34 1 7 -16 30
-48 52 -73 l40 -45 -3 58 c-2 31 -1 57 2 57 4 0 17 -7 30 -16 46 -33 130 -74
135 -66 3 4 3 20 2 35 -2 15 1 30 6 33 4 3 6 9 4 13 -8 13 9 29 38 37 l29 7
-7 -49 c-4 -27 -9 -57 -12 -66 -4 -13 -1 -16 10 -12 9 3 16 12 16 18 0 7 9 22
20 34 11 12 20 24 20 27 0 14 67 105 78 105 7 0 22 -20 34 -45 12 -25 25 -40
29 -34 3 6 4 42 2 81 -2 39 0 67 5 64 5 -3 23 -8 40 -11 25 -4 30 -2 26 10 -4
8 -10 15 -14 15 -5 0 -19 19 -33 43 -27 45 -44 97 -33 97 4 0 27 -21 52 -47
25 -27 42 -39 38 -28 -4 11 -10 25 -15 30 -10 14 -128 251 -139 281 -12 31
-10 30 31 -6 19 -17 42 -35 52 -41 16 -9 17 -8 9 8 -5 10 -22 45 -38 78 -15
33 -51 97 -81 142 -29 46 -50 83 -47 83 2 0 28 -16 56 -35 55 -37 80 -38 38
-2 -38 33 -121 139 -115 146 3 3 9 1 13 -5 9 -13 80 -54 94 -54 6 0 0 9 -13
20 -63 54 -78 70 -126 135 -53 71 -100 152 -92 159 2 3 22 -11 44 -31 22 -19
41 -31 42 -26 4 11 -47 109 -86 168 -46 68 -45 66 -14 54 55 -21 70 -20 38 4
-65 48 -139 131 -177 199 -22 41 -24 49 -12 59 12 10 25 7 64 -13 28 -14 50
-23 50 -20 0 3 -16 23 -37 44 l-36 37 49 58 c55 66 184 193 195 193 4 0 14 6
21 13 29 29 149 101 246 148 90 44 102 52 91 66 -16 18 -115 13 -192 -10 -54
-17 -53 -23 -21 88 9 33 17 67 19 75 1 8 5 26 8 40 19 73 30 176 23 205 -9 35
-44 42 -64 13 -9 -12 -17 -25 -18 -28 -10 -63 -227 -440 -252 -440 -8 0 -60
53 -163 166 -19 21 -70 84 -113 139 -86 111 -98 122 -116 100 -7 -8 -8 -15 -3
-15 6 0 10 -8 10 -17 -1 -20 37 -104 65 -145 l19 -28 -28 0 c-16 0 -34 5 -41
12 -7 7 -12 9 -12 5 0 -3 -35 6 -77 22 -80 29 -103 30 -103 4 0 -8 6 -20 13
-26 19 -20 110 -77 120 -77 5 0 21 -9 35 -19 15 -10 31 -19 35 -19 8 0 109
-38 142 -53 11 -6 30 -24 42 -42 13 -18 38 -50 58 -71 19 -22 35 -42 35 -46 0
-3 -31 -38 -69 -77 -63 -65 -80 -75 -111 -63 -3 1 -8 2 -12 1 -16 -2 -7 16 22
49 17 18 30 37 30 42 0 11 -14 10 -26 -1 -14 -13 -124 -52 -124 -43 0 4 16 22
35 41 19 19 35 37 35 41 0 11 -156 -43 -228 -78 -34 -17 -62 -30 -62 -29 0 1
9 26 19 55 20 54 14 79 -9 37 -7 -14 -17 -25 -22 -25 -4 0 -20 -18 -34 -40
-30 -45 -40 -49 -49 -20 -11 36 -30 22 -31 -22 -1 -75 -21 -145 -51 -176 -15
-16 -16 -10 -4 41 7 28 6 37 -2 34 -13 -4 -79 -126 -91 -167 l-7 -25 -16 33
c-21 41 -30 41 -28 0 2 -48 -47 -178 -67 -178 -4 0 -14 15 -23 33 -16 33 -75
108 -75 94 0 -4 7 -23 14 -42 8 -19 12 -35 9 -35 -3 0 1 -8 8 -17 11 -13 11
-15 1 -9 -12 7 -51 85 -56 111 -1 6 -4 15 -8 20 -3 6 -9 25 -13 44 -7 33 -8
34 -21 16 -8 -11 -12 -25 -10 -32 3 -7 2 -14 -3 -17 -4 -3 -16 21 -26 52 -26
81 -94 222 -106 222 -6 0 -8 -9 -4 -19 3 -11 8 -30 11 -43 3 -13 7 -32 9 -43
18 -78 16 -80 -15 -27 -50 83 -64 110 -85 167 -24 62 -45 84 -41 41 2 -14 0
-26 -5 -26 -4 0 -6 -9 -4 -20 5 -25 -15 -26 -37 -2 -8 9 -30 28 -49 42 -18 14
-38 31 -45 38 -7 6 -17 12 -23 12 -6 0 -11 4 -11 9 0 5 -7 12 -16 15 -8 3 -13
2 -11 -2 10 -17 47 -101 47 -108 0 -3 -9 -4 -20 -1 -11 3 -23 1 -26 -4 -3 -5
-10 -6 -16 -3 -5 4 -35 8 -67 10 -31 2 -81 5 -111 8 l-55 4 25 -20 c14 -11 36
-29 49 -39 16 -13 21 -23 15 -29 -7 -7 -39 19 -95 75 -46 46 -84 89 -84 94 0
8 62 86 93 117 6 7 12 17 12 22 0 5 26 20 58 32 31 12 68 26 82 32 14 5 25 9
25 8 0 -1 24 12 53 29 29 17 55 31 58 31 3 0 25 14 50 30 31 22 44 38 44 54 0
22 -3 23 -33 16 -17 -5 -66 -20 -107 -33 -41 -14 -78 -23 -82 -21 -4 3 -8 1
-8 -5 0 -6 -7 -8 -15 -4 -14 5 -14 7 -1 22 21 24 76 146 76 170 0 37 -35 24
-71 -26 -87 -123 -299 -363 -319 -363 -4 0 -20 19 -36 43 -16 23 -31 44 -34
47 -25 23 -190 343 -190 369 0 9 -31 31 -43 31 -2 0 -12 -9 -21 -19z"/>
</g>
</svg>
