<?xml version="1.0" encoding="utf-8"?>
<!-- Generator: Adobe Illustrator 25.3.1, SVG Export Plug-In . SVG Version: 6.00 Build 0)  -->
<svg version="1.1" id="Layer_1" xmlns="http://www.w3.org/2000/svg" xmlns:xlink="http://www.w3.org/1999/xlink" x="0px" y="0px"
	 viewBox="0 0 286.5 86.8" style="enable-background:new 0 0 286.5 86.8;" xml:space="preserve">
<style type="text/css">
	.st0{fill:#E26F9D;}
	.st1{fill:#FFFFFF;}
</style>
<g>
	<path class="st0" d="M170.3,80.5l0.1-0.2l-0.2-0.1L170.3,80.5z"/>
	<path class="st0" d="M2.8,39.3c-0.1,0.1-0.1,0.2-0.2,0.3c0-0.1,0-0.1,0-0.2C2.7,39.4,2.8,39.4,2.8,39.3L2.8,39.3z"/>
	<path class="st0" d="M52.8,80.7c0,0.3-0.1,0.4-0.3,0.3c0,0,0-0.2,0.1-0.2C52.7,80.8,52.8,80.8,52.8,80.7
		C52.8,80.8,52.8,80.7,52.8,80.7z"/>
	<path class="st0" d="M259.7,82.9c0,0.1-0.1,0.2-0.1,0.3C259.6,83,259.7,82.9,259.7,82.9L259.7,82.9z"/>
	<path class="st0" d="M179.8,85.7c-0.1,0.1-0.1,0.3-0.1,0.3C179.5,85.9,179.5,85.9,179.8,85.7C179.8,85.7,179.8,85.7,179.8,85.7z"/>
	<path class="st1" d="M90.3,10.5c0.3,0.2,0.8,0.4,0.5,0.9c-0.3,0.4-0.6,0-0.8-0.4C90.2,10.8,90.3,10.7,90.3,10.5z"/>
	<path class="st1" d="M215.1,10.5c0.3,0.2,0.8,0.3,0.5,0.9c-0.2,0.4-0.6,0.1-0.9-0.3C214.8,10.9,215,10.7,215.1,10.5z"/>
	<path class="st1" d="M5.5,39.1c0.3-0.4,0.6-0.6,1-0.1c-0.2,0.3-0.4,0.5-0.6,0.7C5.8,39.5,5.7,39.3,5.5,39.1z"/>
	<path class="st1" d="M104.4,78.3c0.3-0.3,0.7-0.7,0.9-0.3c0.3,0.5-0.3,0.6-0.5,0.8C104.6,78.7,104.5,78.5,104.4,78.3z"/>
	<path class="st1" d="M187.4,9.9c0.1,0.2,0.3,0.5,0.3,0.5c-0.2,0.5-0.4,0.1-0.6-0.1C187.2,10.2,187.3,10.1,187.4,9.9z"/>
	<path class="st1" d="M25.4,12c0.2,0.2,0.4,0.5,0.1,0.7c-0.1,0.1-0.3-0.2-0.4-0.3C25.2,12.2,25.3,12.1,25.4,12z"/>
	<path class="st1" d="M124.1,12.9c0.1,0.1,0.3,0.4,0.3,0.4c-0.2,0.4-0.4,0.1-0.5-0.1C123.9,13.1,124,13,124.1,12.9z"/>
	<path class="st1" d="M113.8,15c0.1,0.1,0.1,0.3,0.2,0.5c-0.1-0.1-0.2-0.1-0.4-0.2C113.6,15.2,113.8,15,113.8,15z"/>
	<path class="st1" d="M6.4,23.4c0.3,0.2,0.4,0.5,0.1,0.7c0,0-0.2-0.3-0.3-0.5C6.3,23.7,6.3,23.6,6.4,23.4z"/>
	<path class="st1" d="M12.3,14.8c0.2,0.2,0.4,0.5,0.2,0.7c-0.2,0.3-0.4,0-0.6-0.2C12,15.1,12.1,15,12.3,14.8z"/>
	<path class="st1" d="M47.5,78.5c0.1-0.1,0.2-0.3,0.3-0.5C48.2,78.4,47.9,78.5,47.5,78.5L47.5,78.5z"/>
	<path class="st1" d="M74.6,78.5c0.1-0.1,0.2-0.3,0.3-0.5C75.2,78.6,75,78.6,74.6,78.5L74.6,78.5z"/>
	<path class="st1" d="M47.7,78.6c-0.2,0.3-0.3,0.6-0.4,0.9c-0.2-0.2-0.3-0.4-0.4-0.6c0.2-0.3,0.4-0.5,0.8-0.5
		C47.5,78.5,47.7,78.6,47.7,78.6z"/>
	<path class="st1" d="M74.6,78.6c0.1,0.5-0.1,0.7-0.4,0.9c-0.1-0.1-0.2-0.3-0.3-0.4C74.1,78.8,74.3,78.6,74.6,78.6
		C74.6,78.5,74.6,78.6,74.6,78.6z"/>
	<path class="st1" d="M41.1,80.4c0.2-0.3,0.4-0.5,0.6-0.1c0.1,0.1-0.2,0.3-0.3,0.5C41.3,80.7,41.2,80.6,41.1,80.4z"/>
	<polygon class="st1" points="170.3,80.5 170.2,80.3 170.4,80.3 	"/>
	<path class="st1" d="M216.4,80.5c0.2-0.3,0.4-0.5,0.6-0.1c0,0.1-0.2,0.3-0.3,0.5C216.5,80.7,216.5,80.6,216.4,80.5z"/>
</g>
<g>
	<path class="st0" d="M267.7,78.3c-2.4,2.2-4.8,4.3-7.9,4.5l0.1,0.1c0.7-2.2,2.4-3.7,2.7-6.6c-6,2.5-11,6.7-16.3,10.5
		c-0.2-2.4,1-4.3,1-6.3c-0.8-0.7-1.3,0.1-1.9,0.3c-1.2,0.3-2.3,2.4-3.7,0.3c-0.2-0.3-1.2,0.3-1.8,0.6c-2.9,1.2-5.9,2.2-9.3,2
		c2.3-2.7,5.1-4.5,6.5-7.9c-2.7-0.7-2.7-0.7-13.9,7.1c-1-0.7,0.2-2.3-0.8-3.1c-1.9,1.2-3.5,3.1-5.7,3.9c-0.3,0.1-0.6,0-0.9,0
		c0-1.2,1.1-1.6,1.2-2.6c0.1-0.1,0.4-0.4,0.3-0.5c-0.2-0.5-0.4-0.1-0.6,0.1c-2.2,0.4-4.1,2-6.5,2.2c-0.2-1.7,1.5-2.2,1.4-4.1
		c-4.1,0.3-7.2,3.1-10.3,5.8c-1.1-1.7,0.1-3.2-0.2-4.8c-1.9,0.2-3.4,1.3-4.8,2.6c-1.4,1.3-2.7,2.8-4.2,4.4c-0.8-2.2-0.1-4.3-0.6-6.4
		c-3.8,2-7.1,5.3-11.3,5.6l0.1,0.1c1.1-1.6,2.8-2.4,3.8-4.8c-2.7-0.3-5.3,0.5-7.9,0.8c-2.5,0.3-4.8,2.1-7.4,2.4
		c-0.2-1.4,1.1-1.8,1.1-3.4c-4.7,1.2-9.4,3.9-14.6,1.7c2.6-1.2,5-2.5,7-5.2c-3.3-0.6-6.1,0.9-8.8,1.8c-1.3,0.5-2.5,1.2-3.7,1.8
		c-0.8,0.4-1.6,1.2-2.6,0.1c-0.5-0.7-1.4,0.3-2.1,0.7c-2.8,1.2-5.6,2.2-8.7,2c-0.4-0.1-1,0.1-1.4-0.8c2.1-1.8,4.9-2.7,5.4-6.5
		c-3.3,0.1-6.5,2.6-12.1,9.6c-0.6-2.6,0.7-5,0-7.7c-4.7,3.9-9.5,7.4-16,7.7c1.7-2.2,3.3-3.9,3.6-6.4c0.2-1.1,0.9-2.4,0.1-3.3
		c-0.7-0.8-1.6,0.3-2.4,0.7c-2.6,1.4-5.2,2.9-7.8,4.5c-0.9,0.5-1.9,1-3.1,1.6c0.5-2,2.1-2.4,2.5-3.9c0.2-0.3,0.8-0.3,0.5-0.8
		c-0.2-0.4-0.6-0.1-0.9,0.3c-2.7,0.4-5.1,2-7.6,3.1c-1.7,0.7-3.2,1.8-5.4,2.1c1.4-2.5,3.5-3.9,3.9-7.1c-4.9,0.3-8.8,3.2-12.7,6.3
		c-0.9-1.2-0.1-2.6-0.8-3.9c-2.7,2.3-5.5,5.1-9.3,3.6c0.3-1.4,1.6-1.6,1.7-2.9c0.3-0.2,0.5-0.5,0.4-0.9c0.3,0,0.5,0,0.3-0.5
		c-0.1,0.1-0.2,0.3-0.3,0.5c-0.3,0-0.5,0.2-0.7,0.6c-2,1.2-3.8,2.6-6,3.3c-1.1,0.3-2.2,0.6-3.5,0.1c0.9-2.1,2.6-3.4,3-6
		c-3.3,0.2-6.3,1.4-9.4,2.5c-1.7,0.7-3.3,2-5.2,1.6l0.1,0.1c-0.2-0.5,0.2-1.4-0.7-1c-0.9,0.4-1.7,1-2.5,1.5
		c-1.1,0.6-2.2,1.3-3.5,0.7c-0.1-1.2,1-1.4,1.1-2.4c0.2-0.3,0.3-0.6,0.4-0.9c0.2-0.1,0.5-0.2,0.2-0.5c-0.1,0.1-0.2,0.3-0.3,0.5
		c-0.3-0.1-0.6,0.1-0.8,0.5c-1.7,0.5-2.9,2.1-4.4,3.1c-1.5,1.1-0.9-0.5-1-1.2c0.1-0.2,0.3-0.5,0.3-0.5c-0.2-0.5-0.4-0.2-0.6,0.1
		c-1.8,0.7-3.6,1.3-5.5,2c-1.3,0.5-2.4,0.5-3.7-0.6c1.6-1.6,3.8-2.2,5-5.2c-5.6,0-10.5,1.7-15,5.5c-1.2-2.6,0.5-4.6,0.5-6.8
		c-4.6-1.1-7.7,0.3-14.1,6.5c-0.4-0.9-0.3-1.8-0.3-2.7c0-0.9,0.1-1.9,0.2-2.9c-1.6-0.1-2.5,1.4-3.9,2c-2.3-4.3-1.2-8.6-0.2-12.8
		c-1.5-0.9-3,0.2-4.5-0.7c1.1-2.7,3.2-4.3,4.3-6.9c1.1-2.6,2-5.1,2.4-8.4c-2.1,0.8-3.1,3.1-5,3.9c0.2-3.9,1.5-7.2,2.9-10.5
		c0.5-1,1.3-1.9,1.4-3.1c0.2-0.3,0.4-0.5,0.6-0.7c-0.4-0.7-0.7-0.5-1.1-0.1c-0.9,0-1.8,0.5-2.7,0.2v0.1C3.6,37,3.6,37,6.6,34
		c-2.4-4.2-4.3-8.6-3.5-14.3c1.7,0.8,1.7,3.3,3.1,4.1c0.1,0.1,0.3,0.5,0.3,0.5c0.3-0.3,0.2-0.5-0.1-0.7C5.9,19.8,4.7,16.3,5,12.4
		c0.1-1.2-0.2-2.6,1-3.9c1.7,2.6,3.1,5.7,5.8,6.9c0.2,0.3,0.4,0.5,0.6,0.2c0.2-0.3,0-0.5-0.2-0.7c-0.5-2.4-1.7-4.5-2-7.1
		C10,6.3,10,5,10.3,3c4.7,4.1,9.3,7.9,14.7,9.4c0.1,0.1,0.3,0.3,0.4,0.3c0.4-0.3,0.1-0.5-0.1-0.7c-0.2-1.7-1.1-3-1.5-4.6
		c-0.5-1.8-1.3-3.5-0.6-6C27,6,30.8,10.1,35.8,12.6c0.1-3.9-1.1-7.5,0.4-11.3C38,3.8,39.1,6.7,41,8.7c1.9,2,3.9,3.7,6.4,5.1
		c0.6-3,0.9-6,3.1-8.3c0.9,1.9,1.7,3.8,2.7,5.6c0.9,1.8,2.2,3.3,3.8,4.6c0.8-2.6,0.1-4.8-0.4-6.9c-0.2-0.8-0.5-1.5-0.7-2.3
		c-0.5-1.7-0.1-2.3,1.3-1.8c2.9,0.9,5.5,2.7,7.9,5c0.6,0.5,0.9,1.5,2,1.5c-0.2-2.2-0.8-4.5,0.7-6.7c4.2,5,9,8.8,15,11.1
		C81.6,12,79.7,9.9,75.6,7c2.1-1.4,4.9-0.6,14.4,4.1c0.2,0.4,0.6,0.8,0.8,0.4c0.3-0.5-0.3-0.6-0.5-0.9c-0.5-1.8-2-2.9-2.3-4.8
		c0.7-0.9,1.3-0.3,1.8,0c2.2,1,4.1,2.6,6,4.2c2.3,2,2.3,2,3.5-1c1.1-2.8,2.5-5.3,4.6-7.1c0.4-0.3,0.7-0.8,1.5-0.4
		c-0.6,7.5,1.9,12.4,8.2,13.7c0.1,0.1,0.2,0.1,0.4,0.2c-0.1-0.1-0.1-0.3-0.2-0.5c-0.5-3.5-2.3-6.2-3.4-9.5c1.2-0.7,2,0.4,2.8,1
		c2.7,1.8,5.3,3.7,8,5.6c0.8,0.6,1.6,1.2,2.7,1.2c0.2,0.3,0.3,0.5,0.5,0.1c0-0.1-0.2-0.3-0.3-0.4c-0.4-2.4-1.9-4.1-3-6
		c-0.7-1.4-1.5-2.7-2.7-4.6c3.6,0.4,6.1,2.3,8.6,3.9s4.6,3.9,7.1,6.3C134.6,8,133.5,3.9,135,0c2.4,8.2,5.4,15.4,13.4,16.2
		c-2.4-3.5-6-5-8.9-8.6c7-1,13.2,0.3,19.3,4.3c-0.3-3.6-0.7-6.7-0.2-10.4c3.5,3,6.3,6.6,9.8,9c3.5,2.4,6.9,5,11.3,6.2
		c-1.2-3.3-3.3-4.6-5-6.5c-1.7-1.9-3.6-3.4-5.9-5.5c3.7-0.1,6.8,0.9,9.9,1.8c2.9,0.9,5.4,2.9,8.3,4c0.2,0.3,0.4,0.5,0.6,0.1
		c0.1-0.1-0.2-0.3-0.3-0.5c-0.3-1.8-1.4-3.1-1.5-5.1c2.8,1.6,5.5,3.2,8.3,4.6c2.8,1.4,5.6,2.8,9.3,2.8c-2.8-2.8-5.7-4.4-8.9-6.9
		c2.3-0.3,4-0.3,5.7,0.1c4.3,1.2,8.5,2.6,12.5,4.8c0.6,0.3,1.3,0.5,1.9,0.8c0.3,0.3,0.7,0.7,0.9,0.3c0.3-0.5-0.3-0.6-0.5-0.9
		c-0.7-2-2.4-2.9-3.3-4.8c1.7-0.3,2.2-0.1,5.7,1.9c1.9,1.1,3.7,2.2,5.9,3.5c-0.1-2.1-1.6-2.6-1.7-4.4c1.4,0.2,2.3,1.3,3.3,2.1
		c1,0.7,2,1.6,2.8,2.4c1.1,0.9,1.7,0.5,2.2-0.9c0.5-1.4,1-2.8,1.4-4.3c0.3-0.9,0.4-1.8,1-2.7c0.8,1.9,1.5,3.7,2.5,5.8
		c0.6-1.9,1.1-3.3,1.6-4.6c0.3-0.7,0.6-1.6,1.5-1.4c0.6,0.1,0.7,1,0.9,1.6c1.7,4.7,3.1,6.4,6.5,8.2c1.2-2.4-0.5-4.5-0.5-6.9
		c3.3,0.7,5.6,3,8.1,5.4c0.6-1.8-1.1-3.9,0.7-5.4c2.2,1.8,3.6,4.8,6.4,6.7c-0.5-3.9-2-7-1.8-10.9c2,0.5,3.1,2.6,4.6,3.9
		c1.5,1.2,2.8,2.8,4.8,3.9l10.2-4c1.2,1.7,0.1,3.5,0.2,5.3c0.9,0.7,1.5-0.1,2.1-0.5c0.6-0.4,1.1-1,1.7-1c1.6,3.9,1.6,5.2-0.4,13
		c1.5,0.6,3.2-0.9,5.1,0.5c-3.4,4.1-6.4,8.3-6.5,14.7c1.8-0.7,2.6-2.6,4.3-3.3c0.2,2.9-0.9,5.1-1.7,7.3c-0.8,2.2-1.8,4.4-2.7,6.6
		c1.2,0.9,2.2-1,3.5-0.1c-0.1,1.6-1.2,2.6-2,3.5c-1.7,1.9-1.7,1.9-0.5,4.4c1.8,3.7,2.7,7.5,2.1,11.8c-1.1,0.1-0.8-1.8-2.1-1.9
		c0,4.3,1.2,8.7-0.4,13.2c-2.1-2.3-3.3-5.2-5.7-6.6c-0.3-0.2-0.5-0.3-0.7-0.5c-0.1-0.2-0.2-0.7-0.4-0.2c0.1,0.1,0.3,0.2,0.4,0.3
		c-0.1,0.5,0.1,0.7,0.3,1c0.6,2.3,1.2,4.5,1.7,6.8c0.3,1.4,0.4,2.7-0.1,4.7c-2.5-2.1-4.7-4.4-7.2-5.9"/>
</g>
</svg>
