<?xml version="1.0" encoding="utf-8"?>
<!-- Generator: Adobe Illustrator 25.3.1, SVG Export Plug-In . SVG Version: 6.00 Build 0)  -->
<svg version="1.1" id="Layer_1" xmlns="http://www.w3.org/2000/svg" xmlns:xlink="http://www.w3.org/1999/xlink" x="0px" y="0px"
	 viewBox="0 0 38.1 38.1" style="enable-background:new 0 0 38.1 38.1;" xml:space="preserve">
<style type="text/css">
	.st0{fill:#232221;}
	.st1{fill:#FFFFFF;}
</style>
<g id="XMLID_1693_">
	<path id="XMLID_1695_" class="st0" d="M19,38.1L19,38.1c-10.5,0-19-8.5-19-19v0C0,8.5,8.5,0,19,0h0c10.5,0,19,8.5,19,19v0
		C38.1,29.5,29.5,38.1,19,38.1z"/>
	<path id="XMLID_1694_" class="st1" d="M16.1,30.5h4.6V18.9H24l0.3-3.9h-3.6c0,0,0-1.5,0-2.2c0-0.9,0.2-1.3,1.1-1.3
		c0.7,0,2.5,0,2.5,0v-4c0,0-2.6,0-3.2,0c-3.4,0-5,1.5-5,4.4c0,2.5,0,3.1,0,3.1h-2.4V19h2.4V30.5z"/>
</g>
</svg>
