<?xml version="1.0" encoding="utf-8"?>
<!-- Generator: Adobe Illustrator 25.3.1, SVG Export Plug-In . SVG Version: 6.00 Build 0)  -->
<svg version="1.1" id="Layer_1" xmlns="http://www.w3.org/2000/svg" xmlns:xlink="http://www.w3.org/1999/xlink" x="0px" y="0px"
	 viewBox="0 0 104.8 113.9" style="enable-background:new 0 0 104.8 113.9;" xml:space="preserve">
<style type="text/css">
	.st0{stroke:#231F20;stroke-miterlimit:10;}
	.st1{fill:#FFFFFF;stroke:#231F20;stroke-miterlimit:10;}
</style>
<g>
	<path class="st0" d="M79.2,86c1.7,3.8,3.4,7.6,5.3,11.8c3.9-9.2,8.2-17.9,15-25c0.4-0.4,1.1-0.5,2.2-0.9c0.6,3.2,1.4,6,1.5,8.9
		c0.5,7.9,0.7,15.8,1.1,23.6c0.1,2.7-1.3,3.2-3.6,2.8c-23.7-3.1-47.4-3.5-71,0.5c-8.9,1.5-17.8,3.5-26.6,5.5
		c-2.4,0.5-2.3-0.7-2.4-2.3c-0.6-8.9,0.1-17.8,1.8-26.6c0.7-3.7,1.5-7.4,2.8-11.1c8,8.7,11.3,19.6,15.2,30.1
		c7.2-0.8,14.4-1.9,21.6-2.4c8.9-0.6,17.9-0.9,26.9-1.1c2.1,0,3.2-0.5,4-2.6c0.9-2.8,2.2-5.5,3.5-8.3c0.5-1,1.2-1.9,1.8-2.9
		C78.5,86.1,78.8,86,79.2,86z M4.7,107.2c3.9-1,7.3-1.8,10.8-2.7c-1.2-7.8-5-14.3-8.3-21.9C5.3,91.1,4.2,98.8,4.7,107.2z
		 M88.1,100.7c4.4,0.6,8.1,1.1,12.2,1.6c-0.5-7.5-1-14.6-1.5-21.7c-0.4-0.1-0.8-0.1-1.2-0.2C94.5,87,91.4,93.7,88.1,100.7z
		 M78.9,92.9c-0.3,0-0.5,0-0.8,0c-0.8,2.2-1.7,4.4-2.6,7c1.9,0,3.3,0,5.1,0C80,97.3,79.5,95.1,78.9,92.9z"/>
	<path class="st0" d="M50.1,82.4c-10.7-0.3-20.6-1.7-29.7-6.7c-3-1.7-5.7-3.8-8.5-5.8c-1.7-1.2-1.9-2.7-0.3-4.4
		c5-5.2,10-10.6,15.1-15.7c0.6-0.6,2.5-0.5,3.3,0c12.6,9.4,25.6,7.7,38.6,1.2c2.4-1.2,3.9-1.4,5.8,0.6c4,4.2,8.3,8.1,12.5,12.2
		c2,1.9,2,3.7,0.1,5.6c-4.4,4.6-10.1,7.1-15.9,9.2C64.2,81.1,57,82.2,50.1,82.4z M83.4,66c-2.7-2.8-5.4-5.5-8.2-8.3
		c-3.4-3.3-3.4-3.3-7.5-1.4c-0.7,0.3-1.5,0.7-2.3,0.9c-13,4.2-25.6,4.4-36.7-2.7c-4.5,4.2-8.9,8.2-13.3,12.3
		C33.4,82.9,65.9,81.8,83.4,66z"/>
	<path class="st0" d="M101.1,23.3c-0.2,11.6-9.3,20.1-21.4,19.9C66.4,43,57.5,31.8,57.5,20.7C57.5,9,66.7,0.2,78.6,0.5
		C90.8,0.8,101.3,11.4,101.1,23.3z M63.1,20.1c-0.1,9.1,8,17.4,17,17.5c8.3,0.1,15.2-6.5,15.3-14.5c0-9.1-8.1-17.4-17.1-17.6
		C69.7,5.3,62.6,12.2,63.1,20.1z"/>
	<path class="st0" d="M23.8,42.1c-7.8,0.1-13.2-5.3-13.4-13.4c-0.2-7.6,5.4-13.5,12.9-13.6c7.1-0.1,13.1,5.9,13.2,13.2
		C36.7,36.6,31.7,41.9,23.8,42.1z M32.2,28.9c0-5.2-4.3-9.2-9.7-9.3c-4.2,0-8.1,4.5-8.1,9.3c0,5,4.1,8.9,9.1,8.9
		C28.5,37.7,32.2,33.9,32.2,28.9z"/>
	<path class="st1" d="M4.7,107.2c-0.6-8.4,0.6-16.1,2.6-24.6c3.3,7.6,7.1,14.1,8.3,21.9C12,105.4,8.6,106.2,4.7,107.2z"/>
	<path class="st1" d="M88.1,100.7c3.3-7,6.4-13.7,9.5-20.3c0.4,0.1,0.8,0.1,1.2,0.2c0.5,7.1,1,14.2,1.5,21.7
		C96.2,101.8,92.6,101.3,88.1,100.7z"/>
	<path class="st1" d="M78.9,92.9c0.5,2.2,1.1,4.5,1.7,6.9c-1.7,0-3.2,0-5.1,0c1-2.5,1.8-4.8,2.6-7C78.4,92.8,78.7,92.9,78.9,92.9z"
		/>
	<path class="st1" d="M83.4,66c-17.5,15.8-50,16.9-67.9,0.9c4.4-4,8.7-8.1,13.3-12.3c11.1,7.1,23.8,6.8,36.7,2.7
		c0.8-0.2,1.5-0.6,2.3-0.9c4.1-1.9,4.1-1.9,7.5,1.4C78,60.5,80.7,63.3,83.4,66z M40.2,75c-0.4-4.3-5.9-8.6-12-10.1
		c-2.8-0.7-5.5-1-7.8,1.9C28.1,66.5,34.3,69.8,40.2,75z M78,65.2c0-0.3-0.1-0.6-0.1-0.9c-0.7-0.1-1.3-0.4-2-0.4
		c-6,0.6-11.4,2.6-15.6,7.2c-0.6,0.7-0.7,1.8-1,2.8c0.9-0.3,2.1-0.3,2.7-0.9c3.9-3.7,8.5-5.7,13.6-6.9C76.4,65.9,77.2,65.5,78,65.2z
		"/>
	<path class="st1" d="M63.1,20.1c-0.5-7.9,6.5-14.8,15.2-14.6c8.9,0.2,17.1,8.5,17.1,17.6c0,8-6.9,14.6-15.3,14.5
		C71.1,37.5,63,29.2,63.1,20.1z"/>
	<path class="st1" d="M32.2,28.9c0,5-3.7,8.9-8.7,8.9c-5,0.1-9.1-3.9-9.1-8.9c0-4.8,3.9-9.3,8.1-9.3C28,19.7,32.2,23.7,32.2,28.9z"
		/>
	<path class="st0" d="M40.2,75c-5.9-5.2-12.1-8.5-19.8-8.2c2.3-2.9,5-2.6,7.8-1.9C34.3,66.4,39.8,70.7,40.2,75z"/>
	<path class="st0" d="M78,65.2c-0.8,0.3-1.5,0.7-2.3,0.9c-5.1,1.2-9.7,3.2-13.6,6.9c-0.6,0.6-1.8,0.6-2.7,0.9c0.3-0.9,0.4-2.1,1-2.8
		c4.1-4.6,9.6-6.6,15.6-7.2c0.6-0.1,1.3,0.2,2,0.4C77.9,64.6,77.9,64.9,78,65.2z"/>
</g>
</svg>
