<?xml version="1.0" encoding="utf-8"?>
<!-- Generator: Adobe Illustrator 25.3.1, SVG Export Plug-In . SVG Version: 6.00 Build 0)  -->
<svg version="1.1" id="Layer_1" xmlns="http://www.w3.org/2000/svg" xmlns:xlink="http://www.w3.org/1999/xlink" x="0px" y="0px"
	 viewBox="0 0 98 98" style="enable-background:new 0 0 98 98;" xml:space="preserve">
<style type="text/css">
	.st0{fill:#F0659C;}
</style>
<path class="st0" d="M0,49c0,27.1,21.9,49,49,49s49-21.9,49-49S76.1,0,49,0S0,21.9,0,49z M58.2,22c2.2,2.7,1.7,6.3-1,8.5
	C52,34.7,46.8,39,41.7,43.2c-0.1,0.1-0.1,0.1-0.3,0.4c0.5,0,0.9,0,1.3,0c34.9,0-4.1,0,30.8,0c0.8,0,1.7,0,2.4,0.2
	c2.2,0.6,3.5,2,4.2,4.1c0.1,0.2,0.2,0.5,0.2,0.7c0,0.6,0,1.3,0,1.9c-0.5,0.9-0.8,2-1.4,2.8c-1.2,1.6-3,2.1-5,2.1c-35,0,3.9,0-31.1,0
	c-0.5,0-0.9,0-1.7,0c0.9,0.7,1.6,1.2,2.3,1.7c4.8,3.5,9.6,6.9,14.4,10.3c2.2,1.6,3,4.3,2.2,6.8c-0.8,2.4-3.2,4.1-5.7,3.9
	c-1.1-0.1-2.4-0.5-3.3-1.2c-10.2-7.2-20.3-14.6-30.5-21.8c-1.4-1-2.1-2.4-2.6-4c0-0.6,0-1.1,0-1.7c0.5-2.7,2.7-4.1,4.6-5.7
	c9-7.4,18-14.7,27-22.1C52.6,18.9,56.3,19.7,58.2,22z"/>
</svg>
