<?xml version="1.0" encoding="utf-8"?>
<!-- Generator: Adobe Illustrator 25.3.1, SVG Export Plug-In . SVG Version: 6.00 Build 0)  -->
<svg version="1.1" id="Layer_1" xmlns="http://www.w3.org/2000/svg" xmlns:xlink="http://www.w3.org/1999/xlink" x="0px" y="0px"
	 viewBox="0 0 206.2 143.5" style="enable-background:new 0 0 206.2 143.5;" xml:space="preserve">
<g>
	<path d="M180,116.6c-0.2-0.6-0.3-1-0.4-1.5c-2.9-11-5-22.1-5.9-33.4c-1.1-13.4,0.1-26.7,3.2-39.8c2.4-10.1,6-19.8,10.6-29.1
		c0.1-0.3,0.2-0.5,0.4-1C156.8,28,124.1,32.2,89.7,26.4C101,42.8,109.5,60.2,115,78.9c4.5-2.8,8.9-5.7,13.4-8.3
		c4.6-2.6,9.3-4.7,14-7.1c-2.7-5.4-5.5-11-8.4-16.6c-2.5,1.8-5.1,3.8-7.8,5.8c0.9,0.7,1.8,1.4,2.7,2.2c0.8,0.7,1.7,1.4,2.5,2.2
		c0.2,0.2,0.2,0.7,0.3,1.1c-0.4,0.1-0.8,0.3-1.1,0.2c-5.2-1.3-10.5-2-15.9-2.1c-0.3,0-0.5-0.1-0.8-0.1c-0.2-0.6-0.1-1,0.5-1.2
		c7.9-3.6,14-9.4,20.1-15.3c0.4-0.3,0.7-0.7,1.1-1c0.1-0.1,0.2-0.1,0.3-0.1c4.3,9.8,8.8,19.4,16,27.6c-7.1,3.2-14,6.6-20.7,10.5
		c-6.6,3.9-13,8.1-19,13.2c-4.6-13.1-10-25.7-16-38c-6-12.3-13-24.1-20.9-35.5c0.4,0,0.6-0.1,0.8-0.1c19.6,3.1,39.2,3.9,59,2.5
		c16.2-1.2,31.9-4.9,47.3-10c6.4-2.1,12.5-4.8,18.3-8.1c0.4-0.2,0.8-0.4,1.3-0.7c-20,40.9-24,83.4-13.2,127.5
		c-20.7-4.3-41.7-6.7-62.7-8.4c-21-1.8-42.1-2.3-63.2-1.7c-21.1,0.6-42,2.4-63,4.8c0-0.2,0-0.3-0.1-0.5c0.5-0.2,1.1-0.4,1.6-0.6
		c7-2.2,14.1-3.7,21.3-5c9.3-1.7,18.6-3.4,28-4.3c9.4-0.9,18.9-1.7,28.3-2.5c9.4-0.7,18.8-0.9,28.3-0.5c9.1,0.3,18.2,0.8,27.2,1.6
		c8.7,0.8,17.4,1.8,26.1,3c6,0.8,11.9,2,17.8,3C179,116.4,179.4,116.5,180,116.6z"/>
	<path d="M200.1,143.5c-3.3,0-6-2.7-6.1-6.1c0-3.4,2.6-6.1,6.1-6.1c3.3,0,6.1,2.7,6.1,6.1C206.3,140.7,203.5,143.4,200.1,143.5z"/>
</g>
</svg>
