<?xml version="1.0" encoding="utf-8"?>
<!-- Generator: Adobe Illustrator 25.3.1, SVG Export Plug-In . SVG Version: 6.00 Build 0)  -->
<svg version="1.1" id="Layer_1" xmlns="http://www.w3.org/2000/svg" xmlns:xlink="http://www.w3.org/1999/xlink" x="0px" y="0px"
	 viewBox="0 0 20.8 59.7" style="enable-background:new 0 0 20.8 59.7;" xml:space="preserve">
<style type="text/css">
	.st0{fill:#010101;}
</style>
<path id="XMLID_2332_" class="st0" d="M8.8,37.7c0,2.7,0.1,5.4,0.4,8.1c0.2,1.3,0.1,4.7,1.1,5.5c0.9-2.2,0.9-4.7,2.1-6.9
	c0.5-0.9,1.2-2.2,2.5-2.3c1.8-0.1,1.1,1.5,0.9,2.6c-0.6,2.5-0.9,5-1.3,7.5c-0.3,1.9-0.1,6.5-2.4,7.3c-2.3,0.8-4.2-2.8-5.3-4.3
	c-1.8-2.5-3.7-4.9-5.5-7.4c-0.5-0.7-1.7-2-1.3-2.9c0.5-1.3,1.7-0.7,2.6-0.1c0.5,0.4,5.5,5.5,5.5,5.5c0.2-0.4-0.6-2.9-0.7-3.3
	C7.1,45.4,7,43.7,6.8,42c-0.3-4.5-0.8-9.1,0-13.6c0.4-2.1,1.3-3.5,2.3-5.3c1-1.7,0.1-3.3-0.2-5.3c-0.5-3.9,0.2-8,1.6-11.7
	c1-2.5,4.1-8.1,7.6-5.4c0.9,0.7,1.4,1.9,0.1,1.7c-0.9-0.1-1-0.8-2.1-0.6c-0.8,0.2-1.3,0.9-1.7,1.5c-2.1,3.1-3.1,7.8-3.1,11.4
	c0,1.4,0.2,4.2,0.9,5.4c0.7,1.1,1.8,0.5,3.2,0.9c3.6,0.9,6.5,5.4,4.6,9.1c-2.7,5.3-8-1.9-9.1-4.7C8.4,27.9,8.8,34.6,8.8,37.7z
	 M17.9,27.5c-0.1-2.8-1.8-3.8-4.4-3.8C14,24.7,17.9,31.8,17.9,27.5C17.9,27,17.9,27.8,17.9,27.5z"/>
</svg>
