<?xml version="1.0" encoding="utf-8"?>
<!-- Generator: Adobe Illustrator 25.3.1, SVG Export Plug-In . SVG Version: 6.00 Build 0)  -->
<svg version="1.1" id="Layer_1" xmlns="http://www.w3.org/2000/svg" xmlns:xlink="http://www.w3.org/1999/xlink" x="0px" y="0px"
	 viewBox="0 0 914.9 200.7" style="enable-background:new 0 0 914.9 200.7;" xml:space="preserve">
<style type="text/css">
	.st0{fill:#040404;}
	.st1{fill:#FE9BAA;}
	.st2{fill:#E2769B;}
	.st3{fill:#D14C91;}
	.st4{fill:#F3659C;}
	.st5{fill:#DED8D3;}
	.st6{fill:#FDD6DF;}
	.st7{fill:#F8BDE4;}
	.st8{fill:#E1769B;}
	.st9{fill:#E1769A;}
	.st10{fill:#AEA69F;}
	.st11{fill:#AEA6A0;}
	.st12{fill:#E0769A;}
	.st13{fill:#AEA7A0;}
	.st14{fill:#F6F5F4;}
	.st15{fill:#FDD5DE;}
	.st16{fill:#CF4C8F;}
	.st17{fill:#F3F2F1;}
	.st18{fill:#F9F8F8;}
	.st19{fill:#F9F9F9;}
	.st20{fill:#E07699;}
	.st21{fill:#DF7599;}
	.st22{fill:#ADA69F;}
	.st23{fill:#CE4C8F;}
	.st24{fill:#A69E98;}
	.st25{fill:#F8CFD8;}
	.st26{fill:#EFEEED;}
	.st27{fill:#ACA59E;}
	.st28{fill:#A8A19A;}
	.st29{fill:#E27199;}
	.st30{fill:#F8CEDB;}
	.st31{fill:#E3E1DF;}
	.st32{fill:#A59D97;}
	.st33{fill:#EAEAEA;}
	.st34{fill:#D26191;}
	.st35{fill:#E3E2E2;}
	.st36{fill:#E5E4E4;}
	.st37{fill:#0E0D0D;}
	.st38{fill:#B45E7B;}
	.st39{fill:#DE7598;}
	.st40{fill:#A39C96;}
	.st41{fill:#161514;}
	.st42{fill:#5B213F;}
	.st43{fill:#656464;}
	.st44{fill:#F08AA3;}
	.st45{fill:#DEDDDC;}
	.st46{fill:#EAE8E6;}
	.st47{fill:#9C7890;}
	.st48{fill:#190912;}
	.st49{fill:#5A4553;}
	.st50{fill:#C6C4C2;}
	.st51{fill:#44192F;}
	.st52{fill:#767675;}
	.st53{fill:#8F4B62;}
	.st54{fill:#D5D5D5;}
	.st55{fill:#4B1C34;}
	.st56{fill:#B0AFAE;}
	.st57{fill:#99928C;}
	.st58{fill:#8B767B;}
	.st59{fill:#A0A0A0;}
	.st60{fill:#E38998;}
	.st61{fill:#010101;}
	.st62{fill:#F3669C;}
	.st63{fill:#F1669C;}
	.st64{fill:#F2659C;}
	.st65{fill:#FD99A9;}
	.st66{fill:#F2679C;}
	.st67{fill:#F2669C;}
	.st68{fill:#FB94A8;}
	.st69{fill:#E3779B;}
	.st70{fill:#F0659B;}
	.st71{fill:#E4789C;}
	.st72{fill:#F080A1;}
	.st73{fill:#FB8EA6;}
	.st74{fill:#F0669C;}
	.st75{fill:#F992A7;}
	.st76{fill:#FC92A7;}
	.st77{fill:#F180A1;}
	.st78{fill:#E9809F;}
	.st79{fill:#FB8FA7;}
	.st80{fill:#F792A6;}
	.st81{fill:#F893A6;}
	.st82{fill:#F473A6;}
	.st83{fill:#F77CA2;}
	.st84{fill:#E57B9C;}
	.st85{fill:#EA819F;}
	.st86{fill:#DE6898;}
	.st87{fill:#F48FA5;}
	.st88{fill:#FA8CA6;}
	.st89{fill:#F893A7;}
	.st90{fill:#FEBDC8;}
	.st91{fill:#F985A4;}
	.st92{fill:#F18AA3;}
	.st93{fill:#EF87A1;}
	.st94{fill:#EF85A1;}
	.st95{fill:#FDA6B4;}
	.st96{fill:#EC84A0;}
	.st97{fill:#FEAEBB;}
	.st98{fill:#F77BA1;}
	.st99{fill:#F678A1;}
	.st100{fill:#F18BA3;}
	.st101{fill:#FEB8C4;}
	.st102{fill:#F982A4;}
	.st103{fill:#F677A0;}
	.st104{fill:#FA8BA6;}
	.st105{fill:#FB90A7;}
	.st106{fill:#F77BA2;}
	.st107{fill:#F38DA4;}
	.st108{fill:#D55192;}
	.st109{fill:#E2759B;}
	.st110{fill:#F892A6;}
	.st111{fill:#D85393;}
	.st112{fill:#E85D98;}
	.st113{fill:#FD98A9;}
	.st114{fill:#DE5A95;}
	.st115{fill:#E05896;}
	.st116{fill:#F38CA4;}
	.st117{fill:#FA8AA5;}
	.st118{fill:#F779A1;}
	.st119{fill:#CDC6C0;}
	.st120{fill:#EDEBE8;}
	.st121{fill:#EB5F99;}
	.st122{fill:#F17CA0;}
	.st123{fill:#E66499;}
	.st124{fill:#F474A8;}
	.st125{fill:#7D2E57;}
	.st126{fill:#E15896;}
	.st127{fill:#AC3F77;}
	.st128{fill:#171615;}
	.st129{fill:#020101;}
	.st130{fill:#F881A3;}
	.st131{fill:#FEFEFE;}
	.st132{fill:#F87FA2;}
	.st133{fill:#FDFDFD;}
</style>
<g>
	<path d="M501.4,100c-0.1,22.2-15.9,37.1-39.3,37c-22.4-0.1-38.1-15.4-38.1-37.3c0-21.6,15.9-36.5,38.8-36.4
		C486,63.5,501.5,78.3,501.4,100z M448.8,100.1c0.1,9,6.1,15.7,13.9,15.7c7.9,0,14.4-7.3,14.2-16.2c-0.2-8.7-6-14.8-14.1-14.8
		C454.3,84.8,448.7,90.9,448.8,100.1z"/>
	<path d="M515.6,65.3c7.2,0,14-0.2,20.8,0.1c1.4,0.1,3.1,1.7,3.9,3.1c5.4,9.2,10.5,18.5,15.8,27.8c0.7,1.2,1.5,2.4,2.6,4.1
		c0-12,0-23.2,0-34.8c7,0,14,0,21.3,0c0,23,0,45.8,0,69.3c-7.4,0-14.9,0.1-22.3-0.2c-1.1,0-2.4-1.9-3.2-3.3
		c-5.7-9.7-11.3-19.5-17.7-30.4c0,12,0,22.6,0,33.5c-7,0-13.9,0-21.2,0C515.6,111.8,515.6,89,515.6,65.3z"/>
	<path d="M134.3,137.3c-7.6,0-15,0-22.8,0c0-8.7,0-17.2,0-26c-6.5,0-12.5,0-19.2,0c0,8.4,0,16.9,0,25.9c-8,0-15.4,0-23.2,0
		c0-22.9,0-45.8,0-69c7.3,0,14.7,0,22.7,0c0,7.6,0,15.2,0,23.1c6.6,0,12.7,0,19.3,0c0-7.6,0-15.2,0-23.1c8,0,15.4,0,23.2,0
		C134.3,91.2,134.3,114.1,134.3,137.3z"/>
	<path d="M787.4,66.2c13.3,0,26.3-0.7,39.2,0.2c9.9,0.7,16.7,7.7,18.4,15.9c2.1,10.5-1.3,18-11.6,24.8c5.6,9,11.2,18.1,17.3,27.9
		c-9,0-17.1,0.1-25.1-0.1c-1.1,0-2.5-1.9-3.3-3.2c-3.9-6.9-7.6-13.9-12.4-20.7c0,7.8,0,15.6,0,23.8c-7.9,0-15.1,0-22.5,0
		C787.4,111.7,787.4,88.9,787.4,66.2z M809,94.6c9.7,0.8,13.8-1.2,13.7-5.8c-0.1-4-4.3-6.9-10.3-5.4C805.8,85.1,811,90.7,809,94.6z"
		/>
	<path d="M746,108.9c0,2.6,0,4.4,0,6.8c9,0,17.9,0,27,0c0,6.7,0,12.7,0,19c-16.3,0-32.3,0-48.7,0c0-23,0-45.9,0-69.1
		c15.6,0,31.2,0,47.2,0c0,6.1,0,12.2,0,18.9c-8.3,0-16.6,0-25.3,0c0,2.4,0,4.1,0,6.3c7.8,0,15.6,0,23.6,0c0,6.2,0,11.9,0,18.1
		C762,108.9,754.3,108.9,746,108.9z"/>
	<path d="M199.3,68.2c0,6.1,0,12.1,0,18.7c-8.4,0-16.7,0-25.5,0c0,2.4,0,4.1,0,6.5c7.9,0,15.8,0,24,0c0,6.2,0,11.8,0,18
		c-7.9,0-15.8,0-24,0c0,2.4,0,4.1,0,6.5c8.8,0,17.7,0,27,0c0,6.8,0,13,0,19.5c-16.1,0-32.2,0-48.6,0c0-23.1,0-46,0-69.1
		C167.9,68.2,183.4,68.2,199.3,68.2z"/>
	<path d="M591.1,126.4c4.5-4.9,8.9-9.7,13.6-14.8c1.5,1,2.8,2.2,4.2,2.8c3.3,1.4,6.7,3,10.2,3.4c1.9,0.2,4-1.7,6.1-2.7
		c-1.5-1.6-2.6-3.7-4.4-4.6c-4.3-2-9-3.4-13.5-5.2c-17.1-6.8-14.9-28.5-2.9-36.5c12.9-8.6,34.2-6.7,45.7,4.5
		c-4.8,4.5-9.6,9-14.3,13.3c-3.1-1.2-7-3.3-11.3-4.2c-1.8-0.4-4.1,1.8-6.2,2.9c1.5,1.3,2.8,3.1,4.6,3.8c3.9,1.8,8.1,2.8,12.1,4.5
		c7.8,3.4,13.7,8.6,13.9,17.7c0.3,9.7-4.1,17-12.5,21.7C623.4,140.3,602.3,137.2,591.1,126.4z"/>
	<path d="M914.9,73.8c-5,4.7-9.7,9.2-14,13.3c-3.9-1.5-7.8-3.6-12.1-4.5c-1.7-0.4-4,1.5-6,2.4c1.4,1.5,2.6,3.5,4.4,4.3
		c4.5,2.1,9.5,3.2,13.9,5.4c14.8,7.4,16.4,26,3.2,36c-9.7,7.4-20.7,7.9-31.9,4.7c-6.1-1.8-11.7-5.1-18.1-7.9c5.5-6,9.9-10.8,13.7-15
		c5.7,2,10.7,4.1,15.9,5.2c1.6,0.4,3.7-1.7,5.6-2.7c-1.3-1.5-2.4-3.5-4.1-4.3c-4-1.9-8.4-3.1-12.5-4.8c-8.2-3.3-13.6-8.9-13.8-18.3
		C859,78,863.5,71.1,872,66.8C885.2,60.3,903.1,63.1,914.9,73.8z"/>
	<path d="M695.7,134.9c-8.3,0-15.5,0-23.4,0c0-16.5,0-32.9,0-49.8c-5.9,0-11.3,0-16.9,0c0-6.8,0-13,0-19.5c19,0,37.8,0,57,0
		c0,6.2,0,12.4,0,19.2c-5.3,0-10.7,0-16.7,0C695.7,101.6,695.7,118,695.7,134.9z"/>
	<path d="M40.3,137.4c-8,0-15.3,0-23.1,0c0-16.6,0-33,0-50c-6,0-11.4,0-17.2,0c0-6.8,0-13,0-19.4c19,0,37.8,0,57,0
		c0,6.3,0,12.5,0,19.3c-5.6,0-11,0-16.7,0C40.3,104.3,40.3,120.6,40.3,137.4z"/>
</g>
<g>
	<path d="M420.8,133.2c-2.2-1.3-4.3-2.7-7.1-4.3c5.5,7.8,10,15.5,13.6,24.4c-2.7-2.2-5-3.9-7.2-5.6c2.8,8.4,6.9,16.2,11.4,24.6
		c-3-1.4-4-4.5-7.2-4.9c1.4,4.6,3.7,8.2,6.9,11.3c-0.3,0.2-0.4,0.3-0.6,0.3c-1.9,0.1-4.2-1.7-5.4-0.4c-0.9,0.9,0.1,3.5,0.2,5.3
		c0.1,1.7,0,3.4-0.5,5.2c-1.4-2.3-2.7-4.7-4.2-7.2c-4.2,4.8-6.9,10.3-10.6,15.3c0.2-3.4,1-6.6,0.8-10c-5.2,1.2-4.3,0.2-5,5.3
		c-0.2,1.4-0.4,2.7-0.6,4.3c-4.3-1.8-8-4.3-12-6.9c0,2.8,0,5.3,0,8.1c-2-1.2-3.2-3-4.5-4.7c-1.3-1.7-2.5-3.6-3.9-5.7
		c-0.7,2.7-1.3,5-1.9,7.3c-0.2,0-0.4,0-0.7,0c-0.7-5.3-1.3-10.6-2-16.3c-2,2.4-3.7,4.5-6,7.3c1.3-10.1,1.6-19.4-0.1-28.9
		c-1.6,2.6-1.5,5.5-2.6,8.1c-1.8-6-2.3-12.2-2.8-18.9c-1.5,2.3-2.7,4.3-4,6.3c0.4-6.5,1.2-12.9-0.3-19.3c-0.5,2-0.9,4-1.6,6.6
		c-2.5-4.7-2.6-9.5-3.5-14.2c-3.3,6.7-3.9,14.4-7.5,21.3c-1.2-2.3-0.7-4.7-1.4-7.7c-1.3,3.4-0.8,6.3-1.8,9.2c-1.3-1.5-1.3-3.3-2-5.1
		c-1.9,5.1-4.1,9.8-8,14.3c0-3.1,0.9-5.6,0.4-8.4c-3.9,4.2-5.7,9.4-8.5,14.3c-0.5-2.1-1-3.8-1.5-5.5c-0.1,0-0.2,0-0.4,0.1
		c0,2,0,3.9,0,6.4c-4.6-2.9-7.6-6.9-10.8-11c-1,2.4-1.2,4.8-2.8,7.2c-1.3-7.5-3.3-14.3-7.2-20.9c-0.7,3.8-0.3,7.1-0.3,11.2
		c-3.4-4.2-4.8-8.6-6-13.5c-0.9,1.3-1.5,2.2-2.4,3.6c-0.5-3.3-0.8-6.2-1.9-8.9c-0.7-1.8-1.5-3.6-2.7-5.1c-0.5-0.6-1.2-1.3-2.1-1
		c-1,0.3-1.2,1.3-1.4,2.2c-0.5,3.8,0.1,7.5,1.3,11.2c0.4,1.2,1.7,3,0.9,3.5c-1.2,0.8-2.1-1.3-3.3-1.9c-0.7-0.3-1.3-0.9-2.3-1.6
		c0.7,5.9,1.5,11.5,0.5,17.4c-2.1-2.5-3.1-5.6-5.3-7.8c-3.7,5.5-2.1,14.8,4,22c-3.5-1-5.9-2.9-8.2-4.8c-0.6,3.5-0.2,4.6,4.6,13
		c-3.1-1.1-5.3-3.2-8-5.1c-1.7,6-2.8,11.9-3.6,18.2c-1.7-1.4-2-3.3-3.3-4.7c-1.4,3.5-2.7,7.1-4.4,11.3c-1.2-3.6-2.1-6.5-3.1-9.5
		c-5.7,3-11.4,5.6-18.5,5.9c3.1-2.6,6.1-4.4,9-7.5c-7.1,0.5-13.8,0.8-20.5,0.6c0-1.5,1.7-2.2,2-3.9c-2.6,0.5-4.2,2.5-6.7,3.7
		c1.3-3.8,2.5-7.2,3.7-10.7c-1.9-0.3-3.5,1.2-5.6,0.8c2.2-5.1,4.3-10,6.5-15.2c-2.7,0.5-5,1.6-8,1.4c4.7-4.7,8.8-9.6,10.9-16
		c-2,1.7-4,3.4-6,5c3.2-7.4,7.6-14.1,11.9-20.9c-3.1,1-5.6,3.1-9.4,4.1c6.8-7.2,12.3-14.4,16.2-23.1c-2.2,0.6-4.1,1.2-6,1.7
		c-0.1-0.2-0.2-0.3-0.3-0.5c2.5-2.3,5.1-4.6,7.8-7c-1.8-0.2-3.2,1-5.2,0.7c3.6-5,7.6-9.2,12.3-13.7c-2.8,0.2-5.1,0.8-7.9,0.5
		c4.4-3.9,8.1-7.9,11.4-13c-3.4,1-4.9,3.7-7.9,5.3c3.1-6,6.3-10.9,9.9-15.7c0.6-0.8,1.4-1.4,0.4-2.8c-10.8-13.7-23.5-25-39.4-32.3
		c-1.8-0.8-3.5-1.6-5.3-2.4c-0.8-0.4-2-0.6-1.9-1.7c0.2-1.3,1.5-1.5,2.6-1.6c2.9-0.2,5.7,0.1,8.5,0.8c2.3,0.6,4.6,1.1,7.3,1.8
		c-1.7-5.4-3.2-10.6-4.2-15.9c-0.8-3.8-1.3-7.6-2-11.4c-0.1-0.8-0.1-1.7-0.1-2.5c0.1-1.8,0.9-3.4,2.7-3.7c1.9-0.3,2.7,1.3,3.3,2.8
		c3.5,9.1,8.1,17.6,13.3,25.7c1.4,2.1,2.9,4.1,4.2,6.2c1,1.7,1.7,1.8,3.2,0.3c7.9-8.2,15.4-16.7,22.1-25.9c0.5-0.7,1.1-1.5,1.7-2.2
		c0.7-0.7,1.4-2,2.7-1.2c1.3,0.8,1.1,2.1,0.6,3.2c-1.1,2.5-2.2,5-3.5,7.5c-0.8,1.6-1.7,3.2-2.8,5.2c4.8-0.9,9.1-2.4,13.4-3.9
		c1.1-0.4,2.2-0.8,3.4-1.2c0.9-0.3,1.7-0.1,2.2,0.8c0.6,0.9,0.2,1.7-0.4,2.3c-0.9,0.8-1.8,1.6-2.8,2.3c-6.6,4.3-13.7,7.6-21.2,10
		c-1.3,0.4-2.2,1.1-3.1,2.2c-2.3,3-4.7,5.9-7.2,8.8c-0.9,1-0.9,1.6,0,2.5c3.4,3.8,6.9,7.4,10.7,10.8c0.8,0.8,1.6,1.1,2.9,0.3
		c-2.3-1.9-4.6-3.8-7.6-6.3c7.7,0.7,14.6,1.3,21.8,1.4c-0.5-2.8-1.9-5.3-3.1-7.9c5.1,2.4,9,6.3,13.5,9.9c0.5-2.6,1-5,1.4-7.4
		c3.1,6.7,6,13.3,10.2,19.5c0.4-2.7-0.3-6.8-1.8-11.2c2.4,0.5,6.3,8.7,9.5,20c1.3-1.5,0.9-3.6,2.5-5.1c1.6,4.8,2.8,9.7,5.5,14.3
		c0.7-2.5-1.5-4-1.2-6.5c3.5,2.4,4.8,6.3,7,9.7c3.3-4.7,5.1-9.8,4.9-15.8c1.9,1.1,2.1,2.9,3.3,4.5c1.9-5.2,3.4-10.3,7.7-14
		c-0.3,2-0.7,4.1-1,6.2c2.8-2.3,3.7-5.3,5.3-17.1c1.6,0.7,1.9,2.5,3.2,3.5c2.1-3.6,4.6-6.8,8.3-10c-1,3.3-1.8,5.9-2.7,8.9
		c7-4.1,14.1-6.8,22.1-8.4c-2.3,2.4-4.3,4.4-6.5,6.8c4.5-0.7,8.1-2.9,12.6-4.7c-2.1,2.7-3.8,4.9-5.5,7.1c2.7,1.6,4.9,1.7,7.1-1
		c2.2-2.6,4.6-5,7-7.5c1-1,1.1-1.8,0-2.7c-0.1-0.1-0.3-0.3-0.4-0.4c-4.6-7-10.7-11.7-18.9-14.1c-4.3-1.2-8.1-3.9-11.9-6.3
		c-0.9-0.6-1.8-1.3-2.6-2c-0.6-0.6-1.4-1.3-0.8-2.4c0.6-1.1,1.6-1.2,2.6-0.9c2,0.7,4,1.5,6,2.1c3.3,1.1,6.7,2,10.5,3.2
		c-1.9-3.7-3.5-6.9-5.1-10.2c-0.5-1-0.9-2-1.3-3.1c-0.4-1.1-0.5-2.2,0.6-3c1.2-0.8,1.9,0.3,2.5,1c0.8,0.8,1.4,1.7,2.1,2.6
		c7.1,9.7,15,18.7,23.7,27.3C410.1,26.8,416.2,16,421,4.4c0.1-0.3,0.3-0.7,0.4-1c0.6-1.7,1.3-3.6,3.5-3.1c2.2,0.6,2.8,2.7,2.6,4.7
		c-0.5,5.6-1.5,11.1-2.9,16.6c-1,4-2.1,8-3.2,12.1c3.5-0.8,6.8-1.6,10.2-2.2c1.7-0.3,3.5-0.3,5.2-0.3c1.1,0,2.4,0.3,2.7,1.5
		c0.3,1.3-1.1,1.5-2,1.9c-5.7,2.5-11.3,5.5-16.6,8.7c-9.9,6-18,14-25.3,23c-0.7,0.9-0.7,1.4,0.1,2.3c1.3,1.4,2.8,2.6,4,5.1
		c-2.3-1.1-3.9-2-5.6-2.8c-0.9-0.4-1.7-1-2.6,0.1c-0.9,1-0.5,1.8,0,2.7c3.5,6.2,7.7,11.7,13.5,16c0.4,0.3,1,0.5,0.9,1.4
		c-1.7,0.4-3-0.9-5.1-1.1c3.9,5.5,7.4,10.9,9.9,17.4c-2.9-1.4-4.5-3.8-7.5-4.8c4.4,8.8,10,16.3,17.1,22.7c-2.8-0.6-4.9-2.4-7.9-3.9
		c2.8,4.4,6,7.8,9,11.3C421.6,133.1,421.6,133.6,420.8,133.2z"/>
	<path class="st0" d="M420.8,133.2c0.3-0.2,0.5-0.4,0.8-0.6c0.7,0.3,1.1,0.8,1.1,1.6C421.8,134.2,421.3,133.7,420.8,133.2z"/>
	<path class="st1" d="M257,95.4c1-1.3,2.5-2.1,3.4-3.8c-2.8,0.5-5.2,1.7-8.3,1.7c4.5-5.1,8.6-10,11-16.1c-0.7-1.2,0.2-2.1,0.8-2.9
		c1.1-1.6,2.5-2.8,3.9-4.1c0.5-0.3,0.9-0.6,1.5-0.3c0.6,1.9-1,2.9-1.7,4.3c0,0-0.1,0.1-0.1,0.1s0.1-0.1,0.2-0.1
		c1.7-1.8,3.3-3.7,4.8-5.6c2-2.4,2.8-2.4,5.1-0.3c0.4,0.4,0.8,0.8,1.2,1.2c0.5,0.5,0.5,0,0.7-0.3c0.2-0.4,0.5-0.5,0.9-0.5
		c1.6,0.9,2.2,2.3,2.1,3.8c0.3-0.8-0.3-1.9-0.4-3c-0.1-0.8-0.4-1.8,0.4-2.3c0.9-0.5,1.5,0.3,2.1,0.8c1.9,1.8,3.8,3.7,5.6,5.7
		c0.1,0.2,0.2,0.2,0.3,0.2c-0.2,0-0.3-0.1-0.4-0.3c-2.1-3-3.7-6.2-5.1-9.5c-0.4-1-1.3-2.1-0.1-3.2c1.6,0,2.5,1.1,3.4,2.1
		c4.3,4.2,8.5,8.5,12.5,13.7c-0.2-1.7-0.6-2.9-0.9-4c-0.1-0.5-0.3-1.2,0.2-1.5c0.7-0.4,1.2,0.2,1.6,0.7c0.4,0.5,0.9,0.9,1.3,1.5
		c2.3,3.2,5.4,5.6,8.3,8c-1.6-1.9-3-4.1-4.2-6.3c-0.3-0.6-0.9-1.3,0-1.9c1.2-0.1,1.7,0.9,2.2,1.6c0.7,1,1.3,1.9,2.5,2.3
		c0.8,0.4,0.3,1.9,1.6,1.8c0.8,0.9,0.5,2.2,1,3.3c0.7,3.2,1.5,6.4,1.7,9.1c-0.1,1,0.5,0.6,0.2,0.7c-0.1,0-0.1-0.1-0.1-0.3
		c0-1.7,0.5-3.3,0.9-4.9c0.2-0.8,0.4-1.7,1.4-1.9c1.1-0.2,1.5,0.8,2,1.5c2.1,3.2,4.4,6.1,7.5,8.4c0.5,0.4,0.9,1,1.7,0.7
		c0.3-0.2,0.6-0.4,0.9-0.6c0.7-0.6,0.5-1.5,0.7-2.3c0.1-0.4,0.4-1.2,0.7-1c3.1,1.6,1.7-1.5,2.2-2.3c0.7-1.4,0.4-3.2,1.5-4.6
		c0.4-0.2,0.8-0.2,1.2,0c0.8,1,1,2,0.9,3c1.2-2,2-4.6,3.3-7c0.9-1.8,1.5-1.7,2.3-0.1c0,0.1-0.2,0.3-0.2,0.4c0,0.4,0.4,0.2,0.1,0.1
		c-0.3-0.1,0.2-0.5,0.1-0.2c2.1-5.1,4.6-10,7.4-14.8c0.4-0.8,1-2.9,2.7-0.8c0.6,0.7,1.1-0.4,1.4-0.8c3.4-3.7,7.7-6.2,11.7-9.2
		c0.7-0.5,1.4-1,2.3-0.5c0.2,2.9-2.2,4-3.7,5.7c-0.2,0.3-0.4-0.2-0.1,0.1c0.2,0.3,0.3-0.2,0.5-0.2c3.5-1.8,6.9-3.5,10.8-4.2
		c0.6,0.1,1.3,0.3,1,1c-1.2,2.6,0.7,2.1,2,2.1c1.3,0,2.5,0.1,3.7,0.7c3,1.9,5.7,4.2,8.5,6.8c-1.9,0.9-3-0.7-4.7-0.4
		c2.4,7.8,6.7,14.4,12.1,20.3c-0.4,0.7-0.9,0.4-1.3,0.3c-0.4-0.1-0.9-0.2-1.6-0.4c1.5,2.1,2.7,3.8,4,5.6c0,1.1-0.7,0.6-1.1,0.4
		c-1.1-0.6-2.1-1.5-3.4-2.6c1.9,4.5,3.9,8.6,5.6,12.7c0.4,1,0.9,2,0.7,3.2c-0.2,1.4,0.6,2.5,1.3,3.5c1.1,1.8,2.3,3.5,3.3,5.4
		c0.1,0.5,0,1-0.5,1.3c-1,1,0.2,1.4,0.5,2.1c0.3,0.7,0.8,1.2,1.2,1.9c0.3,0.6,0.8,1.2,0.2,1.8c-0.6,0.6-1.2,0.1-1.7-0.2
		c-0.5-0.2-1-0.5-1.5-1c3.3,4.2,6.6,8.1,9.4,12.5c0.4,0.6,1.2,1.3,0.6,1.9c-0.8,0.8-1.5-0.2-2.1-0.6c-0.6-0.4-1.1-0.9-1.9-1.4
		c1.5,3.7,4.2,6.7,5.1,10.5c0.8,0.4,1,1.3,1.1,2.1c0.1,0.2,0.2,0.3,0.1,0.5c-0.1,0.8,1.3,1.8,0.2,2.4c-1.1,0.6-1.5-0.8-2.2-1.5
		c-0.1-0.2-0.2-0.3-0.3-0.3c0.1,0.1,0.1,0.3,0.3,0.4c1.9,2.7,4,5.3,4.3,8.7c-0.2,0.4-0.5,0.7-0.9,0.6c-0.6-0.2-0.9-0.6-1.2-1.1
		c0.2,0.5,0.5,0.8,0.6,1.3c0.5,2.9,1.1,5.7,1.6,8.6c0.3,1.6-0.2,2.6-2.1,1.9c-1-0.3-1.5-1.3-2.3-2c-0.2-0.2-0.4-0.4-0.5-0.5
		c-1.4-1.6-3-3-4.4-4.5c-0.1,0.1,0.1,0.1,0.1,0.2c0.8,1.2,1.3,2.4,1.4,3.8c-0.1,0.6-0.3,1-0.9,1.2c-0.9,0.1-1.6-0.5-2.1-1.1
		c-2.6-2.5-5.1-5-7.6-7.6c0,0.8,0.5,2.3-0.8,2.4c-1.9,0.2-2.3-1.7-3.1-2.7c1.1,2.8,2.1,5.9,3.1,9.1c0.2,0.8,0.6,1.8-0.3,2.2
		c-0.9,0.5-1.4-0.5-1.9-1.2c-2.5-3.4-4.9-6.8-8-9.4c1.1,3.4,2.7,6.9,2.7,10.7c-0.2,0.4-0.5,0.7-0.9,0.7c-1.7-1.2-1.9-3.3-2.6-5
		c-0.1-0.3,0.3-0.2,0-0.1c-0.3,0,0,0.3,0,0.4c0,2.2-0.7,4.2-1.1,6.3c-0.1,0.7-0.1,1.7-1.1,1.6c-0.8,0-0.7-0.9-1-1.5
		c-0.2-0.5,0.3-1,0-1.2c-0.5,1.3,1.1,2.7-0.5,4c-0.3,0-0.5-0.1-0.7-0.4c-0.6-1.9-0.3-4-0.9-6c-0.2-0.9-0.1-1.6-1.1-2.5
		c-1.3-1.1,0-3.2,0.3-5.6c-0.4,2.3-1.3,3.7-2,5.3c-0.2,0.6-0.6,1.4-1.3,1.3c-0.9-0.1-0.9-1-1-1.7c-0.2-3.8,0.5-7.5,0.8-11.3
		c0-0.3,0.2-0.5,0.1-0.7c0,0.7-0.2,1.3-0.6,1.9c-0.5,0.4-1,0.8-1.5,0.2c-1.2-5.4-1.8-10.9-1.9-15.4c-0.2,1.7-0.7,4.3-1.5,6.9
		c-0.2,0.6-0.3,1.4-1.1,1.3c-0.8-0.1-0.8-0.9-0.9-1.5c-0.3-2.8-0.1-5.5-0.1-8.3c0-2.2,0-4.4-0.1-6.7c0.1-0.3-0.6-0.1-0.2-0.1
		c0.1,0,0,0.1,0,0.3c0,0.2,0,0.4,0,0.5c-0.4,1.2-0.7,3.1-1.9,3c-1.6-0.1-1.5-2.1-1.6-3.4c-0.2-3-1.4-5.9-1-9c1.2-1,2.1-0.1,3,0.4
		c1.9,1.1,3.8,2.1,5.9,2.8c-2.7-3.3-5.6-6.5-8-10c-0.5-0.6-1.3-1.5-0.6-2.2c0.8-0.9,1.7-0.1,2.4,0.4c2.6,1.8,5,3.8,7.4,6
		c-0.2-0.9-1.3-1.8-0.3-2.6c0.8-0.6,1.6,0.2,2.2,0.6c3,1.9,6.3,3.5,10,5c-1.1-2.1-2.5-3.6-3.6-5.3c-0.7-1-1.6-1.8-1.4-3.2
		c0.2-0.4,0.5-0.6,0.9-0.6c2.9,1.7,4.1,4.9,6.3,7.2c1.2-6.2,0.2-12.3-0.9-18.4c-0.1-0.8-0.7-2,0.4-2.5c1-0.5,1.7,0.5,2.4,1.1
		c1,0.9,1.8,1.9,2.9,3.3c-1.4-6.7-4.2-12.2-8.5-16.9c-0.7-0.8-1.6-1.5-2.3-2.4c-1.6-1.8-1.5-2.2,0.7-3.7c-3.9-0.6-7.7,1.7-11.7,0.1
		c4.1-2.5,8.4-3.9,13.8-3.8c-4.6-2.6-8.9-4.4-13.7-4.6c-3.2-0.2-3.5-0.4-3.1-3.6c0.3-2.3,0.6-4.6,1-6.9c-3,4.1-5.9,8.2-8.8,12.4
		c-0.7,1-1.3,2.1-2.4,2.6c-0.5,0-0.7-0.3-0.9-0.7c-0.1-2.4,1.5-4.3,1.8-6.6c-4,4.7-7.7,9.6-10.4,15.2c-0.3,0.6-0.5,1.3-1.2,1.3
		c-0.9,0-1.2-0.8-1.4-1.5c-0.2-0.5-0.3-1.1-0.8-2.2c0.2,6.6-0.8,12.5-1.4,18.2c0.6-0.9,1.3-1.2,1.8,0.4c0.3,1.2,0.2,2.4,0.2,3.6
		c-0.1,3.9,0.1,7.8,1.4,11.4c-0.1-0.9-0.4-1.9-0.5-2.9c-0.1-0.9-0.3-2.2,0.7-2.5c1.1-0.4,1.5,0.9,1.8,1.7c1,2.5,1.8,5,2.6,7.6
		c0.2,0.8,0.4,1.6,0.7,2.4c0.1,0.5,0.3,1,0.4,1.6c0.2,1.2-0.1,2.4-0.6,3.5c-0.3,0.9-0.5,2.7-1.4,2.2c-0.9-0.5-2.4-0.8-2.7-2.4
		c-0.3-1.6-0.4-3.2-0.5-4.9c0.2,2.3-0.4,4.5-0.8,6.8c-0.1,0.8-0.4,1.8-1.4,1.8c-0.9,0-0.9-1-1.1-1.7c-0.1-0.3-0.1-0.7-0.1-0.5
		c-0.8,4-1.5,8.6-3,13.1c-0.2,0.7-0.5,1.9-1.4,1.8c-1-0.1-0.9-1.3-0.9-2.1c-0.2-1.6,0-3.3,0.2-4.5c-0.4,2.1-1.3,4.4-3.3,6.2
		c-0.5,0.1-0.8-0.1-1-0.5c-0.6-1.3,0.4-2.4,0.5-3.7c0.3-0.7,0.6-1.4,0.8-2.2c-0.2,0.7-0.4,1.4-0.7,1.9c-0.7,2.9-1.9,5.5-3.2,8.2
		c-0.2,0.5-0.5,1.1-1.1,1.1c-0.8-0.1-0.9-0.9-0.9-1.5c-0.2-2.7-0.4-5.3,0.5-7.3c-0.2,0.6-0.5,1.9-1.1,3.1c-0.3,0.6-0.6,1.3-1.3,1.2
		c-0.8-0.1-0.8-0.9-0.9-1.5c-0.3-2.5,0-4.9,0.3-7.4c-0.5,3.7-0.8,7.5-1.7,11.5c-1.9-1.4-1.3-3.2-1.8-4.6c-0.5,0.7-0.3,1.9-1.5,2.2
		c-1.5-1.4-0.6-3.2-0.9-4.8c-0.4,1.3-0.5,2.7-1,3.9c-0.3,0.8-0.3,2.1-1.8,1.8c-0.8-1.3-1-2.7-1.1-4.1c0.3-4.4-0.5-8.8-0.8-13.8
		c-0.5,2.2-1.2,3.6-1.7,5.1c-0.2,0.6-0.5,1.3-0.7,1.9c-0.4,0.8-0.8,1.5-1.9,1.3c-0.2-0.1-0.4-0.3-0.6-0.5c-1.4-2.8-2.9-5.5-4.7-8.1
		c-0.4-0.6-0.7-1.5-1.8-1.5c-0.4,0.1-0.7,0.1-1-0.1c-0.7-0.6-0.8-1.6-1.2-2.3c-0.1,0.3,0.2,0.4,0.2,0.6c0.2,0.8,0.3,1.6,0.3,2.4
		c-0.1,1,0.2,2.2-1.2,2.7c-1.7-0.8-1.7-2.4-2-3.9c-0.5-3.6-1.4-7.2-1.2-10.7c-0.3,1.5,0.4,3.5-0.8,5.1c-1.1,0.4-1.3-0.6-2-1
		c-0.5,0.7,0,2-1.2,2.3c-1.1-0.3-1.1-1.3-1.6-2.1c-0.2-0.9-0.7-1.6-1.1-2.4c-0.1-0.3-0.4-0.6-0.3-1c-0.2,0.4,0.1,0.6,0.3,0.9
		c0.5,0.9,0.9,1.8,1.2,2.7c0.3,0.7,0.9,1.4,0.5,2.3c-0.2,0.4-0.5,0.6-1,0.5c-2.3-1.2-2.9-3.7-4.5-5.4c-0.3,1.6,1.4,3.9-0.8,4.6
		c-1.1,0.3-3.4,3.1-4.4-1c0.6,4.1,1,7.6,1.2,11.2c0,0.5,0.1,1.2-0.5,1.5c-0.7,0.3-1.2-0.2-1.7-0.7c-1.1-1.3-2-2.8-3-4.4
		c0,3,0,6,0,8.9c0,1,0.3,2.6-1,2.8c-1.2,0.2-1.5-1.4-1.9-2.5c-0.6,2.2-0.2,4.3-0.4,6.4c-0.3,2.3,1.2,4.9-1.2,6.8
		c-0.2,0.1,0.2,0.7,0.3,1c0.4,2,0.7,4,0.8,6c-0.1,0.6-0.2,1.1-0.9,1.2c-0.9-0.4-1.1-1.2-1.3-2c-0.1-1.5-2-2.1-1.7-3.4
		c0.2,0.9,0.3,2.1,0.2,3.4c0,0.3-0.1,0.7-0.2,0.7c-1.8,0.1-0.8,1.6-1.2,2.4c-0.6,0.9-1.1,0.4-1.4-0.2c-0.7-1.2-1.2-2.5-1.1-3.9
		c0.3,4.6-0.6,9.2-1.7,13.7c-0.2,0.8-0.4,1.9-1.3,1.9c-1,0-0.9-1.2-1.1-2c-0.3-1-0.5-2-0.2-2.8c-0.6,1.7-0.9,3.7-1.7,5.5
		c-0.1,0.2-0.3,0.4-0.5,0.6c-1.8-0.5-1-2.1-1.5-3.2c-0.1-0.2-0.1-0.4-0.2-0.4c0,0-0.1,0.1-0.1,0.2c-0.4,0.8-0.9,1.5-1.3,2.3
		c-0.4,0.5-0.8,0.9-1.5,1.2c-1-0.2-1.6-0.9-1.9-1.8c-0.2-0.4,0.4-1.5-0.8-0.6c-3.5,2.9-7.2,5.4-11.4,7.3c-0.3,0.2-0.6,0.4-1,0.5
		c-0.8,0.3-1.8,1.2-2.5,0.3c-0.7-0.9,0.3-1.7,0.8-2.4c1.4-1.8,2.8-3.5,4.3-5.5c-3.1,1.8-5.8,3.7-8.6,5.5c-0.8,0.5-1.7,1.2-2.5,0.5
		c-1-0.8-0.1-1.7,0.3-2.4c0.4-0.7,0.7-1.5,1.3-2.1c1.1-1.3,2.1-2.6,2.9-4c0.1-0.1,0.1-0.3,0-0.4c0,0.2,0,0.3-0.1,0.5
		c-0.8,1.1-1.5,2.4-2.5,3.4c-0.2,0.2-0.4,0.2-0.7,0.2c-0.4-0.2-0.6-0.5-0.6-0.9c0.4-2.3,2.2-4,3-6.1c0.4-0.7,0.9-1.2,1.4-1.8
		c0.5-0.5,1.1-0.9,1.4-1.7c0.5-0.9,0.7-2.6,1.9-2.4c1.4,0.3,0.9,1.9,1,3.1c0.1,0.6-0.1,1.2,0,1.7c0.9-2.1,0.8-4.7,2.5-6.6
		c1.4-0.1,1,1.2,1.4,1.8c2.2-3.7,3.6-7.6,4.8-11.6c0.4-1.3,1.6-2.7-0.3-4.1c-0.6-0.4,0-1.7,0.3-2.6c0.5-1.9,0.8-3.8,1.7-5.6
		c-0.5,0.5-0.9,1.1-1.7,1.3c-0.5,0-0.7-0.2-0.9-0.6c-0.4-1.8,1.2-2.9,1.7-4.4c0.3-0.6,0.5-1.2,0.8-1.8c-0.4,0.5-0.4,1.1-0.8,1.6
		c-0.4,0.7-0.6,2.1-1.8,1.7c-1-0.4-0.6-1.6-0.4-2.5c0.6-2.6,1.1-5.3,1.4-7.9c-0.7,1.3-1.3,2.9-2.6,3.9c-0.4,0.1-0.8,0-1-0.4
		c-0.4-2.2,1-3.8,1.7-5.6c-0.5,0.6-1.2,1-2,0.6c-0.5-1-0.9-0.1-1.4,0.1c-0.6,0.4-1.2,0.9-1.9,0.2c-0.7-0.6-0.4-1.3-0.1-2
		c0.3-0.7,0.5-1.4,0.9-1.9c2.7-4.3,5.6-8.4,8.6-12.4c0.2-0.1,0.2-0.2,0.1-0.3c0,0.2-0.1,0.3-0.3,0.4c-1.1,1.2-2.1,2.4-3.8,2.5
		c-1.1-0.9-0.5-1.8,0.2-2.6c2-2.5,4-5.2,6.2-7.6c0-0.2,0.6,0,0.3-0.4c-0.2-0.3,0.2,0-0.2,0.2c-0.7,0.4-1.2,1.1-2.1,1
		C257.1,96.1,256.8,95.9,257,95.4z"/>
	<path class="st2" d="M367.8,120.9c0.1,4.2,1.2,8.2,1.7,13.1c0.9-2.2,1.6-3.7,2.5-6c1.5,6.4,0.3,12.2,0.9,18.3
		c1.3-3.5,1.2-6.9,3.1-10.2c0.6,6.1,1.2,11.8,1.7,17.6c0.3,0.4,0.4,0.8,0,1.2c0.5-0.5,0.6-1.2,1.1-1.7c0.3-1.2,0.7-2.4,1-3.5
		c0.1,0,0.2,0.1,0.4,0.1c-0.3,5-0.6,10-0.9,15c0.2,0,0.3,0.1,0.5,0.1c1.1-2.5,2.2-4.9,3.3-7.4c0,2.3,0.3,4.5-0.6,6.7
		c1.1,0.2,0.9-1,1.7-1c0.2,3.1,0.4,6.2,0.7,9.4c-1.9-0.3-0.7-2.1-1.7-3.1c-1.2,1.7-2.1,3.6-3.3,5.5c-0.5,0.8-0.6,2.5-2.4,1.9
		c-0.5-3.5,0.2-6.9-0.4-10.4c-0.6-4.9-1-9.9-2.6-14.9c-1.5,1.6-1.7,3.6-2.9,5.5c-1.1-6.2-1.2-12.2-1.7-18.3
		c-0.6,1.3-1.2,2.6-1.7,3.9c-1.3-0.1-0.7-1.2-0.8-1.8c-0.2-1,0.2-2.1-0.2-3.2c-0.3-3.3-0.6-6.6-1.9-9.9c-1.5,1.4-1.5,3.3-2.8,5.2
		c-0.7-3.9-1-7.5-1-11.4c-6.7,3.8-6.1,10.9-8.6,16.6c-1.3-1.5-0.7-3.7-2.1-5.5c-1.2,1.8-1.5,3.8-2.1,5.6c-0.2,0.3-0.4,0.9-1,0.5
		c-0.2-0.9,0-1.9-1-2.7c-1.1,5.3-2.5,10.3-5.6,15.5c0-2.6,0-4.4,0-7c-4.4,4.2-7,8.7-9.7,13.7c-1-2.3-1.8-4.2-2.7-6.2
		c-1.7-1.5,0-3.5-0.8-5.1c-0.4,1.1-0.9,2.2-2.3,2.4c-1.5-1.4-0.6-3.4-1.1-5c0-0.5,0.1-0.9,0.4-1.2c1-1.4,0.8-3.1,1.6-5.1
		c0.9,2.4,1.1,4.6,1.4,6.7c0.4-4,0.9-7.9,2.5-11.6c0,3.1,0,6.2,0,9.7c1.7-2,1.8-4.3,3.2-5.9c-0.6,3.3-0.3,6.6,0,10.1
		c1.4-3.2,2.7-6.3,4.1-9.5c0.5-0.1,0.8,0,0.6,0.6c-0.2,1.3-0.4,2.6-0.6,3.9c-0.2,0.3-0.3,0.9-0.1,1c0.3,0.2,0.4-0.4,0.7-0.4
		c1.3-2.5,2.6-5,3.8-7.7c0,2.5,0,5,0,7.5c2.7-5.2,3.1-11,4.8-16.8c0.4,1.7,0.8,3.1,1.1,4.4c0.2,0,0.3,0,0.5,0
		c0.5-3.2,1.1-6.3,1.8-10.2c0.6,3.1,1.1,5.4,1.5,7.8c0.7-0.1,0.1-1.1,0.9-1.2c1,0.5,0.3,1.7,1,2.5c0.3-2.1,1.5-3.7,1.3-5.7
		c0.2-1.9,0.4-3.8,1.3-5.5c0.4-0.7,0.6-1.8,1.9-0.6c1.1,1,1.5-1.1,2.5-1.2c0.2-0.1,0.5-0.1,0.8-0.1c1,0.4,1.7,1.1,2.5,1.8
		c0.1,0.2,0.2,0.4,0.3,0.7c0.4,0.2-0.6,2,1,0.9c0.9-0.2,1.4,0.3,2,0.7C367.8,120.2,368,120.5,367.8,120.9z"/>
	<path class="st3" d="M378.4,176.9c1.5-3.1,3.2-6.2,5.2-9.1c1.7,1.3,0.2,3.4,1.5,4.6c0,0.2,0,0.4,0,0.5c0.9,0.7,0.5,1.9,0.8,2.8
		c-0.1-1,0-2.2,1.1-2c1.4,0.2,0.5,1.8,1,2.7c-0.4-2.6,0.2-5.2,0.4-7.7c0-0.5,0.2-1,0.7-1.1c0.7-0.2,1,0.4,1.2,0.9
		c0.7,1.9,1.1,3.9,1.4,5.9c0.2,0.9,0.6,1.7,0.6,2.7c-0.1,0.7,0.4,1.4,0.2,1.8c-0.2-1-0.2-2.4-0.6-3.7c-0.1-0.6-0.1-1.2,0.5-1.5
		c0.8-0.4,1.2,0.3,1.5,0.8c1.5,2,2.8,4.1,4.4,6.2c-0.8-2.6-0.5-5.1-0.5-7.6c0-0.6,0.1-1.4,0.7-1.7c0.8-0.4,1.4,0.3,1.9,0.8
		c1.8,1.7,3.8,3.2,6,4.8c-1.7-2.7-2.6-5.5-3.9-8.2c-0.4-0.7-0.9-1.8-0.2-2.3c1-0.6,1.6,0.5,2.2,1.1c1.4,1.7,2.8,3.4,4.1,5.1
		c-0.6-1.3-1-2.7-1.2-4.2c-0.1-0.6-0.2-1.4,0.6-1.7c0.5-0.2,1.1,0.2,1.5,0.5c2,1.6,3.6,3.7,5,5.7c-0.1-2-0.8-4-0.7-6.1
		c0-0.9-0.3-2.1,1.2-2.3l0,0c0.8,1,1.4,2.1,2.1,3.1c0.2,0.3,0.1,0.7,0.4,1c-0.1-0.4,0-0.7,0.4-0.9c1.2,0,1.4,1.4,2.4,1.8
		c0-2.2,0.5-4.2,0.7-6.3c0.2-1.4,0.3-1.4,1.7-1c-1.2,1-0.5,2.2-0.3,3.3c0.7,3.8,2.2,7.3,4.6,10.6c-3.9-0.3-3.9-0.3-3.6,4
		c0,0.6,0.8,1.5-0.6,1.6c-1-2.5-2.1-2.5-3.7-0.4c-1.8,2.3-3.7,4.6-5.2,7.1c-1.5-0.6-0.7-1.8-0.6-2.8c0.1-0.8-0.2-1.3-1.1-1
		c-1.9,0.5-3.7,1-5.6,1.4c-1.1,0.2-1.5,0.9-1.6,1.9c-0.3,1.9-0.7,3.8-1.1,5.9c-4.1-2-7.8-4.6-11.8-7.1c-0.7,2-0.3,4.1-0.7,6.4
		c-2.9-3.1-4.6-6.6-6.6-9.8c-1.2,0-0.4,1.4-1.5,1.5c-0.5-3.4-1-6.8-1.6-10.5c-1.4,1.6-2.6,3-3.7,4.3
		C377.2,177.9,377.7,177.4,378.4,176.9z"/>
	<path class="st4" d="M248.7,155.3c-0.9,3-1.7,6.1-2.6,9.1c-1-2.3-0.5-4.6-0.8-7.3c-0.9,1.2-1.4,2.1-1.6,3.2
		c-1.5-0.1-1.2-1.4-1.3-2.3c-0.3-2.4,0.2-4.7,0.9-7c0.2-0.7,0.4-1.3,0.6-2c0-0.1,0.1-0.3,0.2-0.4c0-0.4-0.4-0.3-0.1-0.1
		c0,0,0,0.1,0,0.2c-0.2,0.5-0.3,1-0.5,1.5c-1.1,3.7-1.5,7.5-2.2,11.3c-0.3,0.6-0.7,0.8-1.3,0.6c-1.4-1.1-1-2.9-1.8-4.2
		c0.4,0.1-0.4,0-0.1-0.3c0.2-0.1-0.1-0.4-0.2-0.2c-0.4,0.9-0.8,1.8-1.9,2c-0.3,0-0.5-0.2-0.7-0.3c-0.4-1.8,0.9-3.1,1.2-4.6
		c0.1-0.7,1.6-1.7-0.4-2.1c-0.5-0.1-0.3-0.8,0-1.2c1.4-1.9,1.9-4.4,3.3-6.2c1.3-1.3,1.5-3.1,2.6-4.5c-1,1.2-1.3,2.8-2.3,4.1
		c-0.5,0.3-0.7,1.2-1.6,0.8c0-0.3,0-0.7,0.1-1c-0.4-1.9,1-3.3,1.7-4.8c0.8-1.8,1.6-3.5,2.6-5.2c0.6-1.1-0.8-0.2-0.7-0.7
		c1-2.1,2.9-3.7,3.6-6c0.5-2.6,2.4-4.5,3.5-6.7c0.6-0.8,0.9-1.9,2.1-2.1c1.4-0.1,1.9-1.5,3.4-2.2c-1,2.6-2.5,4.7-2.9,7
		c-0.2,1.5-1.2,2.6-1.8,4.1c0.7-1.4,1.2-2.7,2.4-3.5c0.9-1.7,1.9-3.3,3.1-5.4c0.8,4.3-0.7,7.9-1.4,11.7c1.2-0.2,1.2-1.2,1.7-1.9
		c0.5-0.1,0.8,0,0.6,0.6c-0.6,1.5-1.1,2.9-1.7,4.4c-0.2,0.2-0.2,0.5,0.1,0.7c0.2,0.1,0.3,0,0.5-0.1c0.8-1,1.5-2,2.3-3
		c0.1,0.1,0.2,0.1,0.3,0.2c-0.9,3.3-1.7,6.6-2.7,10.1c1-0.6,2.1-1.2,1.7,0.7c-1.2,5.8-3.7,11.1-6.1,16.4c-0.2,0.5-0.7,0.5-1.1,0.1
		c0.6-1.6,0.1-3.1,0.2-4.7c0-0.4-0.6-0.1-0.2-0.1c0.2,0,0.2,0.1,0.2,0.2C249.5,154.6,249.2,155,248.7,155.3z"/>
	<path class="st5" d="M390.5,57.3c-0.7-0.1-1.4-0.4-2.4-1.5c3.3-3,6.6-6.1,9.8-9.1c4.1-3.2,4.1-3.5,0-6.8c-2.9-2.3-5.5-5-7.9-7.8
		c-1-1.2-2.1-2-3.6-2.5c-4.6-1.5-9.2-3.2-13.7-5.2c-1.1-0.6-2.2-1.1-3.3-1.7c1.8-1,3.4,0.5,5.1,0.6c0.9,0.1,1.7,0.4,2.6,0.1
		c2.2,0.5,4.4,0.9,7,1.5c-1.6-3-3.1-5.6-4.5-8.2c1.3-0.9,1.5,1,2.5,0.9c5.9,7.2,12.3,13.9,18.9,20.4c1.6,1.6,2.4,1.5,3.5-0.4
		c1.3-2.1,2.8-4.1,4.2-6.1c1.1-0.2,1.3-1.3,1.9-2c0.9-1.5,1.9-3,2.8-4.5c3.2-5.9,6.8-11.5,9.4-17.7c0.4-0.9,0.7-2.5,2.4-1.8
		c0.3,1.7,0,3.4-0.5,5c-2.2,9.3-6.3,17.7-11.3,25.7c-0.7,1.1-1.4,2.2-1.8,3.4c-0.6,1.2-1.9,1.4-2.8,2.2c-0.3,0.2,0.2,0.4,0,0.1
		c0,0,0-0.1,0.2-0.2c4.5-2,9.1-3.9,13.8-5.4c0.8-0.2,1.6-0.5,2.4,0c0.5,0.9-0.3,1.1-0.9,1.4c-7,3.7-14,7.6-20.3,12.4
		c-0.4,0.3-0.8,0.4-1.3,0.5c-0.3,0-0.5,0-0.8-0.2c-0.4-0.5-0.2-1,0.1-1.7c-3.2,2.3-6.1,5-9.2,7.4C392.3,57,391.6,57.8,390.5,57.3z"
		/>
	<path class="st5" d="M272,20.6c-0.7,1.3-1.4,2.7-2.2,4.4c2.6-0.6,4.9-1,7.2-1.5c1.1,0.5,2.2,0,3.2-0.3c1.1-0.3,2.1-0.7,3,0.3
		c-0.4,0.2-0.7,0.4-1.1,0.6c-3.4,1.3-6.6,2.8-10.1,3.7c-2.5,0.7-4.8,1.8-6.9,3.3c-3,3.4-6.2,6.6-9.4,9.7c-3,3-3,3,0.2,5.8
		c3.9,3.8,7.3,8,11.9,11.8c-1.5,0.5-2.5,0.8-3.5,1.1c-1.3,0.4-2.1-0.3-2.9-1.1c-8.9-8.8-19.7-14.7-31.2-19.5c-2.1-1-4.2-1.9-6.1-3.3
		c0.8-0.9,1.7-0.6,2.5-0.3c6.6,2.2,13.1,4.5,19.4,7.5c0.5,0.3,1.1,0.6,1.6,1c-0.3-0.4-0.8-0.5-1.1-0.8c-3.1-1.6-6-3.6-9.1-5.1
		c-0.7-0.4-1.9-0.6-1.6-1.9c1-0.8,2.1-0.1,3.6-0.2c-3.3-8.3-8-15.9-10.3-24.5c-0.6-2.2-1.4-4.5-0.6-6.8c2.8,6.2,6.9,11.8,10.1,17.8
		c0.3,0.6,0.5,1.4,1.3,1.7c2.9,4.4,5.7,8.8,8.7,13.1c2.3,3.3,1.7,3.4,4.9,0.4c3.5-3.2,6.4-7.1,10.1-10.1c0.8-0.3,1.4-0.9,2-1.5
		c1.4-1.3,2.6-2.8,4-4.1C270.3,21.1,270.9,20.2,272,20.6z"/>
	<path class="st3" d="M277.5,154.7c0.2,0.7,0.4,1.4,0.7,2.1c1.3,0.2,0.6-0.8,0.8-1.3c0.1-0.5-0.4-1.4,0.7-1.4
		c0,3.6-0.2,7.2,0.9,10.9c-0.9-0.7-1.7-1.3-2.8-2.2c-1.2,3.7-0.1,7.1,0.4,10.8c-1.2-0.9-2.1-1.6-3.2-2.4c-1.8,5.1-2.9,10.2-4,15.8
		c-0.8-1.4-1.4-2.3-2.3-3.6c-1.3,3.5-2.5,6.6-4,10.3c-0.7-2-1.2-3.5-1.7-5c-0.4-1.4-1-1.6-2.4-0.9c-2.9,1.5-5.8,3.1-9.6,3.7
		c1.6-2.1,3.5-3.4,4.6-5.6c-3.4-0.5-6.4,0.6-9.5,0.3c1.8-3.2,5.2-5.1,7.1-8.3c1.2-2.2,3.3-3.7,5.2-4.8c1.7-0.9,2.1-2.3,3.2-3.4
		c-0.3-1.2,1-1.7,1.2-2.7c1.5,0.4,1,1.6,1,2.6c0.1,1.3-0.2,2.7-0.5,4c-0.4,1.5-0.9,2.9-1.2,4.2c0.2-0.6,0.5-1.4,0.7-2.2
		c0.7-1.6,0.9-3.4,2.2-4.7l0,0c0.8-0.9,0.2-3.1,1.9-2.8c1.4,0.2,0.9,2.2,1.1,3.4c0.1,1.2,0.6,2.3,0.2,3.2c0-3.5,2-6.9,2.6-10.6
		c0.1-0.8,0.6-2.6,2-0.7c-0.5-2,2.4-2.3,2-4.2c0.1-0.7,0.1-1.4,0.4-2c0.4-0.6,0.4-1.4,0.8-2C276.1,154.2,276.7,153.6,277.5,154.7z"
		/>
	<path class="st6" d="M368.9,55c-0.8,0-1.3,0.3-1.9,0.8c-4.9,3.5-9.9,6.9-13.9,11.4c-1.2-0.9,0.2-1.8-0.8-2.6
		c-3.5,5.4-5.9,11.4-8.9,17c-0.5,0.1-0.8,0-0.6-0.6c0-0.4,0.1-0.9-0.1-1.1c-0.5-0.6-0.8,0.1-0.9,0.4c-0.8,1.7-1.6,3.5-2.4,5.2
		c-0.5,1-1,1.9-1.6,3.1c-0.9-1.3-1.1-2.5-1.1-3.8c-0.4-0.7-0.7-0.7-1.1,0c-0.3,3.2-1.2,6.2-1.9,9.2c-1.2-0.4-1.1-1.4-2-2.3
		c0,1.3,0,2.2,0,3.1c0,0.9-0.5,0.7-1.1,0.5c-0.7-0.3-0.9-0.1-0.6,0.6c-0.7,1.8-1.5,0.3-1.9-0.1c-3.5-2.7-6.4-6-8.6-9.9
		c-0.2-0.3-0.4-0.6-0.8-1.1c-1.8,2.4-1,5.5-2.9,8c-0.7-3.8-1.3-7.3-1.9-10.8c-0.4-0.9-0.2-1.6,0.8-0.8c0.8,0.5,0.9,1.7,1.5,2.5
		c1.7-2.2,0.6-5,1.9-7.7c2.2,5.3,4.4,10.4,9,14.5c0-1,0-1.7,0-2.3c-0.2-0.6,0.1-0.7,0.6-0.6c0.4,0.7,0.8,1.4,1.3,2.4
		c3.6-3.4,5.4-7.5,6.8-12.1c1.4,1.5,0.7,3.7,2.2,5.1c1.1-4.3,2-8.6,4.2-13.4c0.2,1.5,0.2,2.3,0.3,2.9c2.1,1,7.8-9.8,8.7-16.1
		c1.1-0.2,0.9,1.3,1.8,1.4c1.4-1.7,1.9-4.1,3.9-5.6c0.2,1.5-0.9,2.6-0.2,4.1c5.6-3.1,11.2-5.8,17.7-7.1c-1.1,1.4-2.3,2.7-3.4,4.1
		C370.3,53.7,369.9,54.7,368.9,55z"/>
	<path class="st2" d="M261.4,169.7c-0.3,1.6-0.9,3.1-2,4.9c-0.2-0.7-0.3-1.1-0.4-1.5c-5.1,3.6-8.1,9.5-13.2,13.2
		c-3.7,0.2-7.5,0.4-11.8,0.6c1.7-2.3,3.1-4.3,4.8-6.6c-3.4,0.5-5.9,2.5-8.9,3.6c1-2.9,1.9-5.5,2.9-8.5c-2,0.4-3.5,0.7-5.3,1.1
		c2.1-5.4,4.2-10.4,6.2-15.5c0.2-0.2,0.3-0.2,0.6-0.2c0.6,0,1.1,0,1.4,0.7c0.2,0.6,0.1,1.2,0,1.8c-0.2,0.7-0.3,1.4-0.4,2.1
		c0,0.2-0.3,0.4,0,0.7c0.1-0.1,0.2-0.3,0.4-0.4c1.3-1,2.1-2.7,3.9-3.1c0.5,0.1,0.9,0.3,1.3,0.8c-1.1,2-2.2,4.1-3.3,6.1
		c-0.3,0.4-0.1,1-0.7,1.4c0.6-0.1,0.8-0.7,1.2-0.8l0,0c0.5-0.1,0.8,0,0.6,0.5c-0.7,1.3-1.4,2.6-2.4,4.6c4.8-2,8.1-5.4,12.8-7.4
		c-1.7,3.6-4.5,6-6.8,9.4c6.5-2.6,11.7-6.1,16.5-10.2c0.6,1.1-0.3,1.7-0.2,2.6c-0.2,1-0.2,1,0.6,1.2c0.4,0.1,0.5,0.8,1.1,0.4
		C260.3,170.1,260.7,169.7,261.4,169.7z"/>
	<path class="st7" d="M316.4,83.8c-0.6-0.7-1.1-1.3-1.7-2c-0.7-0.8-0.5,0.1-0.7,0.4c-1.1-0.9,0-2.5-1-3.4c-0.5-0.4-0.6-1.1-0.8-1.7
		c-0.2-0.8-0.3,0.3-0.5,0c-1.2,0.9-1.5-0.2-2-0.9c-0.8-1-1.2-2.2-2.2-2.9c-2.2-1.2-2.8-3.6-4-5.4c-0.7-1.1-1.1-2.2-2.8-2.1
		c-1,0.1-1.6-0.8-2.2-1.5c-1.9-2.6-4.4-4.7-6.6-7c0.5,2.4,0.3,2.8-1.9,2.3c-2.1-0.5-4.3-0.9-6.4-1.5c-1.4-0.5-3-0.1-3.9-0.5
		c0.5,0,1.5,0.3,2.5,0.3c1.2,0.3,2.5,0.2,3.3,1.4c-0.9,1.4-2.5,1.4-3.8,1.8c-3.2,0.9-6.2,2.1-8.9,2.8c0.2-0.2,0.8,0,1.3,0.4
		c0.5,0.5,0.2,1.1-0.1,1.5c-1.4,1.6-2.6,3.4-4.6,4.1c-0.4,0.2-0.7,0.4-1.1,0.6c-2.7,1.9-4.8,4.5-7.3,6.6c-0.8,0.7-1.4,2-2.9,1.6
		c3.1-5.4,7.4-10.1,11.6-15.1c-2.1-0.6-3.9-1-6.3-1.7c4.4-1.7,8.2-3.1,12.4-4.7c-1.8-1.5-3.4-2.7-5-4c1.2-0.5,2.4-0.4,3.6-0.1
		c3.8,0.1,7.6,0.1,11.3,0.3c2.4,0.2,3.3-0.5,2.2-2.8c-0.3-0.6-0.4-1.4-0.8-2.4c4.1,2.7,7.5,5.8,11.3,9c0.2-1.3,0.3-2.3,0.5-3.3
		c3.8,5.9,7,12.1,12,17.8c0-1.9,0-3.3,0-4.6c-0.2-0.6-0.4-1.1,0.6-1.1c2,5.2,3.6,10.6,4.8,16C316.2,82.7,316.3,83.2,316.4,83.8z"/>
	<path class="st3" d="M326.3,149.2c0.6-1.1,1.1-2.3,2.5-3c0.9,1.9-0.2,3.9,0.3,5.7c-1.8,1.4-1,3.5-1.5,5.3c-0.3,1-0.2,2.2-0.2,3.8
		c-4.2-3.7-7-8.1-9.7-12.8c-1.2,1.6-0.4,3.5-1.5,4.9c-1.1-2.9-2.2-5.9-3.4-8.7c-1.3-2.9-2.8-5.7-5.4-8.1c-0.8,1.9-1,3.4-1.1,5.1
		c-0.7,0.4,0.6,1.8-1,1.7c-1.2-4.1-2.1-8.3-2.4-12.7c-0.3-0.6-0.1-1.4-0.4-2c-0.1-0.7-0.1-1.5-0.1-2.2c0,0,0-0.1,0-0.1s0,0.1,0,0.1
		c0,0.4,0,0.8,0,1.2c0,0.5-0.1,1-0.5,1.4c-0.4,2.1-0.8,4.3-1.4,7.1c-1.6-5-2.5-9.7-6.6-12.6c1.9-0.5,1.9-0.5,4.2,0.7
		c0.6-0.5,0.2-1.4,0.8-1.9c0-0.8,1.4,1.1,1.1-0.6c-0.1-0.9,0-2,0.6-2.8c1.5-0.4,1.9,0.8,2.2,1.7c0.4,1.1,0.9,2.2,1.2,3.3
		c0.4,1.3,0.8,2.6,1.1,3.9c0.7,0.5,0.7,1.3,1,2.3c-0.3-1.8-0.2-3.5,0-5.1c1.5-0.3,1.7,1,1.9,1.8c1,3.6,3.6,6.2,5.1,9.6
		c0.5,1.2,1.4,2.3,1.9,3.6c-0.7-1.3-0.8-2.7-1-4.1c-0.1-0.8-0.4-1.9,1-2c0,0.2,0,0.3,0,0.5c0.4,0.4,0.8,0.7,1,1.2
		c0.8,1.9,1.3,4,2.1,5.7c0.3-2.3-0.7-4.8,0.7-7.1c0.4-0.2,0.8-0.2,1.2,0.1c0.8,1.8,0.3,3.8,1,5.6c0.2,1.5,0.4,2.9,0.6,4.4
		c1.4,0.7,1.6,2.2,2,3.4c0.2,0.5,0.3,0.9,0.8,0.3c0.8,0.1,0.7,0.7,0.8,1.2C325.8,150.7,326,149,326.3,149.2z"/>
	<path class="st8" d="M299.1,122c0,0.9,0,1.8,0,3c-1.8-0.7-3.3-1.9-5.2-1.7c-2.9-0.2-3.7,1.9-4.2,4.1c-0.9,3.7,0.1,7.3,0.7,11.2
		c-2.1-0.8-3.2-2.7-5.1-3.9c0.7,5.4,1.9,10.4,1.7,16.1c-0.9-1.1-1.5-1.8-2-2.5c-1.9-2.5-2.1-2.4-3.5,0.4c-0.9,1.7-1.3,3.6-1.8,5.5
		c-0.6,0.4-0.4,1.1-0.6,1.7c-0.2,0.2-0.3,0.2-0.4,0c-1.6-7.5,0.7-14.8,0.3-22.9c1.6,1.8,1.5,3.6,3,4.9c0-4.5,0-8.8,0-13.7
		c2,2.8,3.5,4.9,5.5,7.7c-0.6-5.2-1.1-9.7-1.6-14.3c1.4,0.7,1.7,2,2.4,3c1-0.6-0.2-1.5,0.4-2.1c0.9,0.1,1.4,1.3,2.5,1
		c0.8-2.1-1.1-4.2,0-6.5c1.8,2.6,3.5,5,5.2,7.5c0.3,0.1,0.5,0.6,0.7,0.4c0.2-0.2,0.1-0.6-0.2-0.9c-0.2-0.7-0.4-1.5-0.6-2.2
		c-0.2-0.6,0.1-0.7,0.5-0.6c0.4,0.7,0.8,1.5,1.1,2.2C299.2,119.8,300,120.6,299.1,122z"/>
	<path class="st9" d="M415.6,143.6c-2.5-3.7-4.5-7.7-6.1-12.1c1.5,1.1,3.1,2.3,5.2,3.9c-3.7-6-8-10.6-11.3-16
		c1.4,0.8,2.7,1.5,4.8,2.6c-1.5-2.2-2.5-3.8-3.5-5.4c-0.2-0.3-0.7-0.8,0-1.1c0.2-0.1,0.7,0.2,1,0.4c0.5,0.2,1.1,0.3,1.7,0.5
		c2,3,4.1,6.1,6.2,9.3c-1.8,0.1-2.6-2.2-4.3-1.4c4.4,7.2,9.3,14,12.3,22c-1.4-0.9-2.7-1.8-4.1-2.7
		C416.8,143.4,416.2,142.5,415.6,143.6z"/>
	<path class="st10" d="M390.5,57.3c3.2-1.4,5.4-4.2,8.2-6.2c1.6-1.2,3.1-2.4,5.1-3.4c-0.5,1-1.1,1.9-1.6,2.9c0.2,0.5,0.4,0.1,0.7,0
		c6.6-5,13.6-9.3,21.1-12.8c0.6-0.3,1.1-0.7,1.6-1c0.3-0.3,0.7-0.3,1.1-0.2c0.1,0.1,0.2,0.3,0.2,0.4c0,0.2-0.1,0.2-0.1,0.2
		c-5.1,3.2-10.3,6.2-15,10c-0.7,0.5-1.4,1.2-2.2,1.6c-0.6,0.6-1.2,1.1-1.9,1.7c-0.8,0.4-1.6,0.8-2,1.6c-2.8,2.4-5.3,5.1-7.8,7.8
		c-1.7,0.1-2.2-1.1-2.7-2.4c-0.2-0.9-0.7-0.7-1.3-0.4C392.7,58.1,391.6,58.4,390.5,57.3z"/>
	<path class="st10" d="M230.3,39c4.7,0.6,8.6,3.1,12.7,5.2c7.2,3.8,13.8,8.5,19.5,14.3c0.5,0.6,1.2,0.9,1.9,1
		c-1.3,0.6-2.4,1.6-3.9,0.9c-1.5-0.3-2.3-1.8-3.7-2.3c-0.3-0.2-0.6-0.5-0.8-0.8c-0.9-1.8-2.6-2.6-4.2-3.7c-1.6-0.9-3.1-2.1-4.3-3.4
		c-0.7-0.8-1.1-0.3-1.7-0.3C240.6,46.3,235.4,42.7,230.3,39z"/>
	<path class="st9" d="M422.7,162.3c-1.7-0.6-1,0.8-1,1.4c0,2.6-1,5.1-1,7.8c-1-1.2-1.9-2.3-2.9-3.5c-0.5-0.2-0.9-0.5-0.6-1.1
		c1,0.1,2,0.3,1.5-1.4c-0.9-3.5-1.5-7.1-2.2-10.8c1.1,0.3,1.3,1.1,1.8,1.8c0.6,0.3,1,0.7,1.1,0.9c0-0.2-0.3-0.8-0.5-1.5
		c-0.9-3.3-3.1-5.8-4.5-8.9c-0.2-0.6,0.1-0.7,0.6-0.5c0.5,0.8,1,1.5,1.9,1.9c-0.1-0.9-0.1-1.8-0.2-2.6c2.5,5.3,4.9,10.6,7.4,15.8
		c0.2,0.5,0.6,1.1,0,1.4C423.5,163.3,423.1,162.7,422.7,162.3z"/>
	<path class="st11" d="M411.7,39.5c-0.6-1.4,0.5-2.2,1.1-3.1c4.7-7.4,8.6-15.2,11.2-23.6c0.2-0.8,0.3-1.7,1-2.2
		c-1.1,7.6-3.3,14.8-5.9,22c-1.2,3.2-1.3,3.2,2,3c0,0.2,0,0.5-0.1,0.5C418,37.5,415.2,39.5,411.7,39.5z"/>
	<path class="st12" d="M406.1,114.8c-1.8-1.9-3.8-4.2-4.2-6.6c-1.1-7-5.4-12.8-7.5-19.7c2.3,0.9,3.4,3.2,5.6,3.6
		c2,2.4,3.6,5.1,5.3,8.3c-2.3,0-3.2-1.7-5.1-2c1.5,5.7,4,10.9,7.5,15.5c0.6,1-0.1,1.2-0.9,1.4C406.6,115.2,406.3,115,406.1,114.8z"
		/>
	<path class="st13" d="M229.2,11.2c3.8,8.4,7.6,16.8,11.4,25.2c-1.7,0.7-3.2-0.7-4.7-0.2c-0.9,0.5-1.8,0.7-2.2-0.6
		c1.8,0.1,2.5-0.1,1.6-2.3C232.4,26.2,230.4,18.8,229.2,11.2z"/>
	<path class="st10" d="M372.8,24.5c7.6,2.6,15.8,3.7,21.2,10.7c1.8,2.3,4.3,4,6.4,6.1c2.5,2.5,2.5,2.7-0.5,4.6
		c-0.6,0.4-1.3,0.6-2,0.9c1.1-1.3,1.3-2.4-0.1-3.9c-2.9-3.2-5.5-6.7-8.1-10.2c-0.8-1.1-1.8-1.7-3.1-2.1
		C381.9,28.9,377.1,27.2,372.8,24.5z"/>
	<path class="st14" d="M233.7,35.7c0.6,0.7,1.5,0.4,2.2,0.6c3.7,2.1,7.6,4,11.1,6.5c0.1,0.5,0,0.8-0.6,0.6c-6.4-2.4-12.7-4.7-19.1-7
		c-1-0.4-2-0.9-3.2-0.7c-1.4-0.6-2.8-1.2-4.2-1.8c-0.1-1.1,0.6-0.7,1.1-0.6C225.2,34.1,229.5,34.9,233.7,35.7z"/>
	<path class="st15" d="M368.9,55c0.2-1.3,1.2-1.5,2.2-1.7c-0.7,1.6,0.5,1.1,1.2,0.9c2.5-0.7,5-1.4,7.6-2.2c0.3,1.6-1.4,2.1-1.3,3.3
		c-0.3,1.3-1.7,0.7-2.4,1.2c-3.7,1.5-7.4,3-11.1,4.5c-0.6,0.2-0.7-0.1-0.6-0.6C365.9,58.6,367.9,57.1,368.9,55z"/>
	<path class="st16" d="M234.3,160.8l-0.2,0c0,0-0.2,0-0.2,0c-1.9-0.5-3.3,1.2-5.5,1c4.3-5.1,7.6-10.5,9.7-16.6
		c0.4-0.4,0.8-0.7,1.2-1.1c0.9,0,1,0.5,0.6,1.1c-1.2,2.2-2.5,4.4-3.8,6.7c0.9,0.4,1.1-0.9,2-0.7c-0.3,2.8-2,5.2-2.7,7.8
		C235.8,160.2,234.9,160.4,234.3,160.8z"/>
	<path class="st17" d="M240,23.9c-2.1-1.3-3-3.6-4.3-5.5c-2-3-3.7-6.3-5.7-9.4c-0.9-1.4-1.4-2.9-1.5-4.6c0-0.8,0-1.7,0.8-1.8
		c1-0.2,1.4,0.8,1.6,1.5C233.6,10.9,237,17.3,240,23.9z"/>
	<path class="st18" d="M411.7,39.5c3.1-1.3,6.3-2.6,9.4-3.9c3.9-0.7,7.6-2,11.6-2.4c0.6-0.1,1.2-0.5,1.1,0.6
		c-0.5,0.2-1.1,0.4-1.6,0.6c-1.1,0.4-2.1,0.7-3.2,1.2c-0.8,0.3-1.5,0.9-2.5,0.8c-0.4,0-0.7,0.1-1.1,0.1c-5.4,1-10.1,3.6-15.2,5.4
		c-0.8,0.3-1.6,1-2.7,0.5C408.6,41.1,410.3,40.6,411.7,39.5z"/>
	<path class="st19" d="M425.5,5.6c-1.6,0.3-1.7,1.8-2.2,2.9c-2.5,6-6.1,11.5-9.4,17.1c-0.5,0-0.9-0.1-0.6-0.7
		c3.4-6.5,6.8-13,9.4-19.9c0.4-1,0.7-2.6,1.9-2.3C425.9,2.9,425.6,4.5,425.5,5.6z"/>
	<path class="st20" d="M259.8,95.4c-1.6,2.9-4.1,5.2-6,7.9c-0.5,0.6-1.3,1.1-0.7,2.1c-0.2,0.2-0.4,0.2-0.6,0c-1.8-0.2-3.4,1-5.4,0.4
		c3-3.1,5.6-6.5,8.9-9.2c0.5-0.3,1-0.3,1.5-0.6c0.8-0.3,1.3-1.2,2.2-1.2c0.2,0.1,0.2,0.3,0.2,0.4C259.9,95.4,259.8,95.4,259.8,95.4z
		"/>
	<path class="st21" d="M252.5,105.4c0.2,0,0.4,0,0.6,0c1.3-0.9,2.6-1.8,3.8-2.8c0.2-0.2,0.4-0.2,0.6,0c-2.6,4.5-5.6,8.8-8.9,12.8
		c-0.3-0.3-0.3-0.7-0.3-1.1c0.6-1.9,0.8-3.5-2.6-2C248.3,109.7,250.9,108.1,252.5,105.4z"/>
	<path class="st22" d="M256,46.6c-1.5,0.1-2.2-1.2-3.2-1.9c-0.9-0.6-0.5-1.4,0.2-2.1c3.9-3.8,7.8-7.7,11.7-11.5
		c0.3,0.2,0.3,0.4,0,0.7c-2.4,3.9-5.4,7.5-8.4,10.9C255.1,44,254.8,45.2,256,46.6z"/>
	<path class="st23" d="M249.2,120.9c-1,2.4-2.4,4.6-4,6.7c-2.3,1-4.3,2.6-7.3,3.5c3.1-3.4,5.1-7,7.3-10.3
		C245.3,120.8,249.2,120.9,249.2,120.9z"/>
	<path class="st23" d="M241.7,133.6c0.6-0.2,1.1-0.5,2.2-0.9c-2.1,4.1-3.9,7.9-5.8,11.6c-1.6,0.1-2.4,1.8-4.8,2
		C236.3,141.8,239,137.7,241.7,133.6z"/>
	<path class="st24" d="M245.8,50c0.6-0.5,1-1.1,1.9-0.2c1.3,1.2,2.8,2.2,4.2,3.3c1.4,1.4,3,2.6,4.5,4c0.2,0.2,0.4,0.4,0.6,0.6
		c0.9,1.1,2.3,1.9,2.6,3.4c-0.8,0.9-1.6,1.4-2.7,0.1C253.7,57.2,249.7,53.6,245.8,50z"/>
	<path class="st25" d="M376.2,56.6c0.8-0.4,1.6-0.8,2.4-1.2c2.2,0.6,4.3,1.2,6.5,1.8c0,0.2,0,0.3,0,0.5c-1.1,0.1-2.1,0.3-3.2,0.4
		c-0.2,1,0.9,1.1,1.1,1.7c-1.8,0-3.7,0-5.5,0c-0.7,0-1.6,0.4-2.1-0.4c-0.5-0.8,0.6-1.2,1-1.7C376.8,57.3,377.4,56.8,376.2,56.6z"/>
	<path class="st26" d="M272,20.6c-2,1.8-4.1,3.7-6.1,5.5c-0.5,0.1-0.8-0.1-0.6-0.7c3.1-3.9,6.3-7.8,9.4-11.7c0.5-0.6,0.9-1.5,2-0.9
		l-0.1,0C275,15.4,273.9,18.3,272,20.6z"/>
	<path class="st27" d="M264.8,31.8c0-0.2,0-0.5,0-0.7c0.9-1.3,2.2-2.3,3.7-2.8c4.5-1.5,9.1-2.8,13.7-4.2c-4.6,2.9-9.6,4.7-14.6,6.4
		C266.5,30.8,265.6,31.1,264.8,31.8z"/>
	<path class="st28" d="M397.4,60.6c-1,1.3-2.1,2.5-3.1,3.9c-0.8,1.2-1.7,1.4-2.6,0.2c-0.5-0.7-2-0.9-1.4-2c0.6-1,1.3-2.2,2.9-2.2
		c0.8,0,1.8,0.9,2.4-0.5C396.4,59.7,396.9,60,397.4,60.6z"/>
	<path class="st29" d="M249.2,120.9c-2,1.5-2,1.5-4-0.1c1-2.2,2.1-4.3,3.1-6.5c0.1,0.4,0.2,0.7,0.3,1.1c-0.4,1.2-1.2,2.2-0.9,3.6
		c1.6-0.1,2-1.6,3.3-2.2c0.5,0.7-0.4,1.3-0.2,1.9C250.3,119.5,249.8,120.2,249.2,120.9z"/>
	<path class="st30" d="M258,78.8c3.1-2,5.1-5.3,8.2-7.3c0.6-0.4,1.1-1,1.9-1c-1.5,2.3-4.3,3.7-5,6.7c-2.6,0-3.9,2.8-6.6,3.2
		C257.1,79.7,257.5,79.3,258,78.8z"/>
	<path class="st31" d="M283.2,23.4c-2.1-0.6-4.1,1.4-6.2,0c3.7-1.1,7.4-2.2,11.1-3.3C286.8,22,285.1,22.8,283.2,23.4z"/>
	<path class="st32" d="M258.8,63.4c2.9-0.9,3.9,1.5,5.3,3.1c0.4,0.5,0.2,1-0.2,1.5c-0.7,0.8-1.1,0.1-1.5-0.4
		C261.2,66.2,260,64.8,258.8,63.4z"/>
	<path class="st33" d="M377.3,23.5c-2.7,1.1-5.1-0.7-7.7-0.7c-1.5-0.5-2.8-1.2-4.5-2.9C369.7,20.9,373.3,22.9,377.3,23.5z"/>
	<path class="st34" d="M378.4,176.9c-0.2,0.6-0.3,1.2-0.5,1.8c-1.2,0.3-0.6-0.7-0.6-1c0-3.8,0.1-7.5,0.1-11.3c1,2.4,0.2,5,0.5,7.4
		C378,174.9,377.4,176,378.4,176.9z"/>
	<path class="st35" d="M382.3,17.7c-1.2,0.8-1.5-1.2-2.5-0.9c-0.7-0.8-1.2-1.7-1.5-2.7c-0.3-0.7,0.1-0.8,0.7-0.7
		C380.1,14.8,381.2,16.3,382.3,17.7z"/>
	<path class="st36" d="M413.2,24.9c0.2,0.2,0.4,0.5,0.6,0.7c-0.9,1.5-1.9,3-2.8,4.4c-0.5,0-0.9,0-0.6-0.7
		C411.1,27.7,412.2,26.3,413.2,24.9z"/>
	<path class="st10" d="M397.4,60.6c-0.6-0.2-1.2-0.4-1.8-0.6c-0.7-0.5-2.3-0.5-1.1-2.1c0.1-0.5,0.4-0.9,1-0.7
		c0.1,1.4,1.2,2.1,2.2,2.8C397.9,60.3,397.7,60.5,397.4,60.6z"/>
	<path class="st37" d="M259.7,61.2c-1-1.1-2.5-1.7-2.6-3.4c1.7,0.1,2.4,1.6,3.4,2.7C260.2,60.7,259.9,61,259.7,61.2z"/>
	<path class="st38" d="M367.4,137.5c1.2,1.5-0.3,3.5,1,5c0,0.7-0.3,1.3-1,2C367.4,142,367.4,139.8,367.4,137.5z"/>
	<path class="st39" d="M406.6,114.8c0.7,0,1.1-0.3,1.1-1c1,0.7,1.6,1.7,2.3,2.9c-1.2,0.2-1.8-1.2-2.8-0.8
		C406.7,115.8,406.4,115.4,406.6,114.8z"/>
	<path class="st40" d="M389.4,60.7c-0.2,0.4-0.4,0.8-0.9,0.9c-0.7,0-1.3-0.4-1.5-1c-0.2-0.6,0.4-0.7,0.8-0.7
		C388.5,59.8,389,60.2,389.4,60.7z"/>
	<path class="st10" d="M426.6,36.6c0.6-0.6,1.4-0.9,2.2-1c0.4-0.3,0.8-0.3,1.2,0.1c-1,0.8-2,1.6-3.4,1.6
		C426.6,37,426.6,36.8,426.6,36.6z"/>
	<path class="st41" d="M395.6,57.2c-0.3,0.2-0.7,0.5-1,0.7c-0.2-0.2-0.5-0.5-0.7-0.7c0.3-0.3,0.6-0.7,0.9-1c0.3-0.3,0.6-0.8,1.1-0.4
		C396.4,56.3,395.6,56.7,395.6,57.2z"/>
	<path class="st42" d="M413.2,185.7c0.4,0.9-0.4,2,0.6,2.8c-0.3,0.5-0.7,1.5-1,0.1C412.6,187.8,412.5,186.6,413.2,185.7z"/>
	<path class="st43" d="M433.8,33.9c-0.2-0.6-0.8-0.4-1.1-0.6c0.9-0.6,1.8-0.6,2.8-0.4C435.3,33.9,434.5,33.9,433.8,33.9z"/>
	<path class="st44" d="M406.6,114.8c0.2,0.4,0.4,0.8,0.6,1.1c0,0.2,0,0.3,0,0.5c-0.9,1-1.2,0.1-1.7-0.5c0.4-0.2,0.5-0.6,0.5-1.1
		C406.3,114.8,406.4,114.8,406.6,114.8z"/>
	<path class="st45" d="M410.5,29.3c0.2,0.2,0.4,0.5,0.6,0.7c-0.8,0.5-0.6,2.3-2.2,1.7C409.4,30.9,409.9,30.1,410.5,29.3z"/>
	<path class="st46" d="M265.2,25.5c0.2,0.2,0.4,0.5,0.6,0.7c-0.5,0.7-0.9,1.8-2.1,1.1C263.9,26.4,264.6,26,265.2,25.5z"/>
	<path class="st47" d="M274.2,53.2c-1.2,0-2.4,0.1-3.6,0.1c-0.9-0.4-0.3-0.6,0.1-0.6C271.9,52.8,273.1,52.7,274.2,53.2z"/>
	<path class="st48" d="M302,128.7c0-0.5,0-1.1,0-1.6c1.1-0.3,0.5,0.8,0.9,1.1c0,0.7,0,1.4,0,2.1C302.6,129.8,302.3,129.3,302,128.7z
		"/>
	<path class="st49" d="M311.3,66.1c-0.6,0.1-0.3,0.7-0.6,1.1c-0.6-0.8-0.5-1.6-0.4-2.5C311.2,64.9,311.3,65.5,311.3,66.1z"/>
	<path class="st50" d="M430,35.6c-0.4,0-0.8,0-1.2-0.1c1-0.7,2.1-1.2,3.4-1C431.6,35.1,430.8,35.4,430,35.6z"/>
	<path class="st51" d="M305.3,143c0.8-0.3,0.4-1.3,1-1.7c0,0.6,0.1,1.3,0.1,1.9c0,0.4-0.2,0.8-0.6,0.7
		C305.3,143.8,305.2,143.4,305.3,143z"/>
	<path class="st52" d="M221,33.3c-0.3,0.3-1,0-1.1,0.6c-0.7,0.1-1-0.4-1.5-0.9C219.4,32.7,220.3,32.7,221,33.3z"/>
	<path class="st53" d="M348,138.6c0.3-0.2,0.6-0.3,1-0.5c0.1,0.7,0.2,1.7-0.7,1.8C347.7,140,347.9,139.1,348,138.6z"/>
	<path class="st10" d="M405.5,52.1c0.1-1.3,0.9-1.6,2-1.6C407.1,51.3,406.5,51.9,405.5,52.1z"/>
	<path class="st10" d="M409.4,48.8c0.5-0.8,1.1-1.6,2.2-1.6C411.2,48.1,410.5,48.7,409.4,48.8z"/>
	<path class="st54" d="M379,13.4c-0.2,0.2-0.4,0.5-0.7,0.7c-0.3-0.6-0.7-1.2-1-1.8c-0.2-0.6,0-0.6,0.5-0.5
		C378.2,12.3,378.6,12.8,379,13.4z"/>
	<path class="st55" d="M422.8,181.8c0.7-0.3,0.3-1.1,0.6-1.6c0.5,0.8,0.9,1.6,0,2.3C423.2,182.7,422.8,182.2,422.8,181.8z"/>
	<path class="st56" d="M276.6,12.8c-1.7-0.9-0.1-1.2,0.2-2.2C277.5,11.8,276.8,12.3,276.6,12.8C276.6,12.9,276.6,12.8,276.6,12.8z"
		/>
	<path class="st57" d="M265.6,65.6c-0.2-0.3-0.6-0.6-0.6-0.8c0-0.5,0.5-0.3,0.8-0.3c0.4,0,0.7,0.3,0.5,0.7
		C266.2,65.3,265.9,65.4,265.6,65.6z"/>
	<path class="st58" d="M327.9,87.7c-0.2,0.2-0.4,0.4-0.6,0.6c-0.4-0.5-0.6-1.1-0.3-2C327.5,86.7,328,87,327.9,87.7z"/>
	<path class="st59" d="M377.8,11.8c-0.2,0.2-0.3,0.3-0.5,0.5c-0.5-0.5-1.2-1.1-0.5-1.6C377.3,10.3,377.6,11.2,377.8,11.8z"/>
	<path class="st60" d="M257.5,96c-0.3,0.7-0.7,1.1-1.5,0.6c0.3-0.4,0.6-0.7,0.9-1.1C257.2,95.6,257.4,95.8,257.5,96z"/>
	<path class="st4" d="M367.8,120.9c-0.2-0.2-0.4-0.4-0.6-0.5c-0.8-0.2,0.1-2.5-1.8-1.4c-0.8,0.3-1.2-0.3-1.5-0.8c0-0.2,0-0.4,0-0.6
		c-2.3-2.2-1.3-4.9-1.3-7.1c-0.9,1.4,0.6,3.8-0.9,5.5c-0.2,0-0.3,0-0.5,0c-1.9-0.4-2.6-2.4-4.7-3.4c-0.3,2.8,0,5.5-0.9,8
		c-0.2,0.6,0.1,1.6-1.1,1.5c-1-4-2.2-7.9-4.2-12.3c-0.6,3.1,0.9,5.4,0.1,8.2c-1.7-2.9-2.3-5.9-2.5-8.9c-0.2-3,0-6,0-9.8
		c-0.8,1.4-1.3,2.2-1.8,3c0.5-7.4,1.5-14.6,1.3-22.5c2.1,1.8,1.8,3.8,2.8,5.7c3.4-7,7.8-12.9,13.2-19.1c-0.5,3.8-1.9,6.4-2.8,9.2
		c-0.2,0.2-0.3,0.4-0.1,0.6c0.2,0.2,0.4,0,0.6-0.1c3.9-5.6,7.8-11.1,11.7-16.7c0.2,0,0.3,0.1,0.5,0.1c-0.4,3.1-0.5,6.2-1.2,9.2
		c-0.4,2,0,2.4,1.9,2.4c5.5,0.1,11.2,2.2,16.2,6.1c-5.8-0.5-10.6,1.1-15.2,3.3c4.3-0.5,8.5-1,12.7-1.5c0.2,0.5-0.1,0.7-0.3,0.9
		c-2.8,2.1-2.9,2.1-0.2,4.7c5.3,5.2,8.3,11.6,9.9,18.8c0.1,0.3,0,0.7-0.1,1.3c-2.3-1.7-3.4-4.4-6.2-6c0.6,3.9,1.1,7.5,1.6,11.1
		c0.5,3.8-0.3,7.4-0.4,11.6c-2.6-3.2-4.8-6-7.1-8.8c-1.3-0.7-2.2-1.9-3-3.1c-0.1-0.2-0.2-0.4-0.3-0.6c-0.2,0.3,0.2,0.3,0.2,0.5
		c0.6,1.4,2.2,2.2,2.5,3.8c1.7,3.1,4.4,5.6,6.1,9.2c-5.1-1.2-9.2-3.8-13.4-6.4c-0.1,1.7,1.6,2.4,1.7,4.3c-4-2.5-7-6-11-8
		c2.6,4.7,6.4,8.5,9.9,13.1C373.7,124.8,370.9,122.5,367.8,120.9z"/>
	<path class="st4" d="M391.7,177.4c-0.8-3.1-1.6-6.3-2.3-9.4c0,3.4-1.3,6.6-1.4,10c-0.3-1.3-0.6-2.6-0.9-3.9
		c-1.2,0.6-0.7,1.9-1.2,3.2c-0.4-1.6-1-2.8-0.8-4.2c1.2-1.3,0.1-3,0.7-4.5c0.6,0.9,0.1,2.1,1.3,3c0.4-2.9,0.9-5.7,1.3-8.4
		c0.4-0.3,0.7-0.3,1.1,0c0.7,1.8,1.5,3.7,2.2,5.5c0.2,0.1,0.4,0.3,0.6,0.1c0.2-0.2,0.1-0.5-0.1-0.7c-0.8-4.2-1.9-8.3-4-12.7
		c5.2,3.4,8.1,8.1,11.8,12.2c-1.3-4.1-2.6-8.1-4-12.3c1,0.1,1,0.9,1.5,1.2c1.1,0.6,1.2,2.9,2.6,2.2c1.1-0.5-0.6-2.1,0.2-4.3
		c3.5,3.8,6.8,7.3,10.1,10.8c1.5,0.3,0.8-0.5,0.6-1.1c-0.6-1.3-1.1-2.6-1.7-3.9c-0.2-0.6,0.1-0.7,0.6-0.6c1.9,1.5,3.6,3.1,5,5
		c-1,1.5-0.6,3.2-0.3,4.8c0.4,1.6,0.2,3.1,0.4,5c-2.6-2.5-4.2-5.4-7.1-7.4c-0.1,2.6,1.3,4.7,1.5,7.3c-2.8-2.4-4.5-5.3-6.9-7.6
		c1.5,3.8,2.9,7.7,5.5,11.7c-4-1.8-6.5-4.4-9.5-7.1c-0.5,3.7-0.2,7.1,0.5,11.2c-2.7-2.7-4.1-5.5-6-7.9c-0.1-0.2-0.2-1.2-0.8-0.3
		c-0.1,0.2,0,0.5-0.1,0.8C392.5,176.1,393.2,177,391.7,177.4z"/>
	<path class="st61" d="M291.1,109.3c-8.3-0.4-15.9-3.4-21.9-9.9c-1.5-1.6-1.8-3.1-0.8-5.2c3.1-6.3,8.4-9.5,14.9-10.8
		c7.5-1.5,14.6-0.3,20.6,4.7c7.7,6.3,6.4,14.9-2.6,19.1C298.2,108.7,295,109.2,291.1,109.3z"/>
	<path class="st62" d="M283.7,57.7c2.8-0.1,5.3,1.1,8,1.5c0.1-1.4-1-2.1-1.4-3.8c3.4,2.3,5.7,5.1,8.2,7.6c0.9,0.9,1.3,3.2,3.5,1.6
		c0.4-0.3,0.8,0.5,1.1,1c1.5,2.5,3,5.1,4.5,7.6c0.4,2.8,2.5,4.7,3.8,6.9c0.4,0.7,1.1,1.2,1.3,2.4c-2.8-1.1-4.7-3.2-6.7-5
		c-2-1.8-3.6-4.1-5.6-6.4c0.4,2.5,1.5,4.5,1.5,7.5c-5.5-6.5-10.7-12.4-16.6-17.5c-1.1-0.6-0.7-1.1,0-1.7c-0.9-0.9-2.1-0.9-3.3-1.1
		C282.2,56.9,283,57.6,283.7,57.7z"/>
	<path class="st62" d="M285.2,59.4c-0.3,0.6-0.4,1.1,0,1.7c-0.9,1.4,0.2,2.4,0.7,3.5c1.5,3.1,3.2,6.2,4.9,9.3c0.2,0.6,0,0.7-0.6,0.6
		c-2.4-2.3-4.9-4.6-7.6-7.1c-0.2,2.2,0.9,4.1,0.1,6.4c-1-1.7-1.3-3.5-2.5-4.8c-0.2-0.1-0.3-0.2-0.5-0.1c-0.3,0.2-0.2,0.4-0.1,0.7
		c0.1,0.6,0.2,1.2,0.5,2.2c-0.8-0.7-1.2-1.1-1.7-1.5c-3.7-3.6-3.7-3.6-6.7,0.5c-1.2,1.6-2.6,3.1-4.2,4.3c-0.5,0.1-0.8,0-0.6-0.6
		c0.7-1.5,1.5-3,2.2-4.5c1.5-1.7,3.1-3.4,4.7-5.1c-0.7-0.8-1.8-0.1-2.8-0.8C275.7,61.8,280.5,60.5,285.2,59.4z"/>
	<path class="st63" d="M275.3,159.1c-0.5,0.8,0.2,2.1-1.6,2.6c-1.2,0.3-0.2,2.8-0.8,4.3c-1.4-0.7-0.4-2.1-1.3-3.2
		c-1.2,4.6-2.5,9.1-3.8,14.1c-0.4-3.2-0.7-5.8-1.1-9c-0.8,1.3-1.4,2.1-1.9,2.9c0.3-2.9,1.3-5.6,2.7-9.1c0,3.1,0.2,5.3,0.9,7.8
		c1.8-5.6,2.4-10.9,2.5-16.7c1.5,1.7,1.5,3.6,2.2,5.3c0,0.1,0.2,0.1,0.2,0.1c0.1,0,0.2-0.1,0.2-0.1
		C275.7,156.1,274.6,159,275.3,159.1z"/>
	<path class="st64" d="M315.2,133.7c-1.4,2.5,0.8,4.7,0.4,7.3c-0.9-0.6-1.3-1.5-1.8-2.3c-2.7-4.5-5.2-9.1-7.5-13.9
		c-0.2,0.3-0.4,0.3-0.5,0c0-0.9,0-1.8,0-2.8c-0.2-0.6,0.1-0.7,0.6-0.5c0.4,0.9,0.8,1.8,1.1,2.7c0.6,0.3,0.9,0.9,1.1,1.5
		c0.1,0.8,0.6,1.5,0.7,2c-0.2-0.7-0.7-1.6-0.9-2.7c-0.3-0.4-0.1-1-0.4-1.4c0.6-0.8,1.2-0.3,1.5,0.2
		C311.7,127,313.9,130.1,315.2,133.7z"/>
	<path class="st65" d="M354.5,122c1.4-2.9,1-6,1.1-9.1c0-0.6-0.3-1.4,0.5-1.7c0.7-0.3,1.1,0.5,1.5,0.9c1.2,1.2,2.4,2.5,3.6,3.8
		c-0.7,1.2-1.8,2.1-2.9,3c-1-0.4-0.1-1.4-0.8-1.9c-1.5,1.8-1,4.4-2.4,6.2C354.9,122.8,354.7,122.4,354.5,122z"/>
	<path class="st66" d="M324.6,148.1c0,0.4,0.1,0.8-0.1,1c-0.5,0.5-0.7-0.1-0.9-0.4c-0.6-1.5-1.2-3-1.7-4.5c1.7-2.4,1-5.6,2.9-8.5
		c0.6,2.8,0.2,5.2,0.4,7.4c0,0.4,0,0.8,0,1.1C325.7,145.6,325.2,146.9,324.6,148.1z"/>
	<path class="st64" d="M319.1,134.2c0,2.9,0,5.8,0,9.3c-2-2.7-2.9-5.4-3.4-8.2c0.7-0.6,0.8-1.5,1.1-2.2c0-0.6-0.1-1.2,0.5-1.7
		c1.2-0.7,2.2-0.2,3,0.8C320.3,133.1,319.6,133.6,319.1,134.2z"/>
	<path class="st67" d="M320.2,132.6c-0.8-0.8-1.8-0.9-2.8-1.1c0.4-2.3,1.5-4.4,2.5-7.4c1,5.7,1.5,10.7,1.4,15.7
		c-1-1.7-1.1-3.6-1.1-5.5C319.7,133.7,319.7,133.1,320.2,132.6z"/>
	<path class="st68" d="M243.7,150.3c-0.3,2.5-0.8,5.1-0.6,7.6c0.1,0.8-0.2,1.7,0.6,2.3c-0.5,0.4-1.1,0.8-1.6,1.1
		c-0.4,0-0.7,0.4-1.1,0c-0.3-4.1,1.1-7.9,2.2-11.7C243.6,149.6,243.9,149.7,243.7,150.3z"/>
	<path class="st69" d="M304.1,123.7c-1.5-1.4-1.4-3.8-3.3-5c-0.1-0.2-0.1-0.4,0-0.6c0.4-2,0.9-4,1.5-6.8
		C302.9,116,303.5,119.8,304.1,123.7z"/>
	<path class="st70" d="M262.5,174.1c-0.5-2.4,1.5-4.8,0-7.2c0.2-0.4,0.4-0.8,0.6-1.3c1.2,1.6,0.5,3.7,1.5,5.2c0,1.8-1.2,3.3-1.7,5
		C261.7,175.6,262.3,174.8,262.5,174.1z"/>
	<path class="st66" d="M300.8,118.1c0,0.2,0,0.4,0,0.6c-0.1,1.1-0.1,2.1-0.3,3.2c-0.3,1.4-0.9,0.5-1.4,0.1c0.2-1.2-0.6-1.9-1.1-2.8
		c1.1-0.9,0.2-2.3,0.7-3.4C300.1,116,300.2,117.3,300.8,118.1z"/>
	<path class="st71" d="M277.5,154.7c-2.1-0.5-1.2,1.7-2.2,2.2c-0.7-0.6,0.1-1.6-0.6-2.3c0-1.7,0.1-3.4,0-5.2
		C275.6,151.3,276.5,153,277.5,154.7z"/>
	<path class="st72" d="M305.8,124.8c0.2,0,0.4,0,0.5,0c-0.4,2.1,0.9,4,0.4,6.1c-1.7-0.6-1.6-2-1.6-3.3
		C306.1,126.8,305.6,125.7,305.8,124.8z"/>
	<path class="st73" d="M252,124.2c-0.9,1.6-1.8,3.1-2.7,4.7c0.1-2,1-3.7,2.2-5.3C251.6,123.9,251.8,124,252,124.2z"/>
	<path class="st74" d="M417.2,166.9c0.2,0.4,0.4,0.8,0.6,1.1c0,0.3,0,0.6-0.1,0.8c-0.2,0.6-0.5,0.3-0.6,0c-0.6-1.4-1.9-2.5-2.1-4.1
		C416,165.1,416.3,166.3,417.2,166.9z"/>
	<path class="st75" d="M274.7,154.7c0.8,0.6,0.4,1.5,0.6,2.3c0,0.7,0,1.4-0.1,2.2c-0.7-0.1-0.3-1.9-1.6-1.1
		C272.9,156.6,274.6,155.9,274.7,154.7z"/>
	<path class="st76" d="M384.5,113.2c-1.1-1.1-2.3-2.3-2.8-3.9c0.2-0.2,0.4-0.2,0.6,0c0.9,1.1,1.8,2.2,2.8,3.3
		C384.8,112.8,384.6,113,384.5,113.2z"/>
	<path class="st77" d="M260.3,170.8c-0.2,1.6-2.6-1.3-2.4,1.5c-0.3-1.5,0.1-2.3,0.7-3.2C259.2,169.7,259.8,170.2,260.3,170.8z"/>
	<path class="st78" d="M238.7,170.3c-0.2-0.2-0.4-0.4-0.6-0.5c0.9-1.3,1.8-2.6,2.8-3.9c0.2-0.2,0.4-0.2,0.6,0
		C241,167.6,239.8,168.9,238.7,170.3z"/>
	<path class="st79" d="M248.7,155.3c0.2-0.6,0.5-1.1,0.7-1.7c0.2,1.7,0.8,3.4-0.2,5C249,157.5,249.7,156.3,248.7,155.3z"/>
	<path class="st80" d="M418.9,155.8c0.9,0.9,1.4,2,1.6,3.4c-1.3-0.6-1.6-1.8-2.2-2.8C418.5,156.2,418.7,156,418.9,155.8z"/>
	<path class="st81" d="M238.1,169.7c-0.6,0.8-1.1,1.6-2.1,3c0.1-1.9,0.7-2.8,1.5-3.6C237.8,169.3,238,169.5,238.1,169.7z"/>
	<path class="st82" d="M311.8,77.1c0-0.4,0.1-0.7,0.2-1.3c0.8,1.1,1,2,1.1,3C311.9,78.8,312,77.8,311.8,77.1z"/>
	<path class="st83" d="M255.9,129.2c-0.2-0.2-0.4-0.4-0.6-0.6c0.5-0.9,0.9-1.7,1.4-2.6C256.9,127.3,256.6,128.3,255.9,129.2z"/>
	<path class="st67" d="M316.8,133.1c0.2,1,0.7,2.2-1.1,2.2c-0.4-0.3-0.5-0.7-0.5-1.1C316.1,134.3,316.3,133.5,316.8,133.1z"/>
	<path class="st84" d="M296.9,117.1c-0.2,0.2-0.4,0.4-0.5,0.6c-0.7-0.8-0.9-1.8-1.1-2.8c0.2-0.2,0.4-0.2,0.6,0
		C296.1,115.6,297,116.1,296.9,117.1z"/>
	<path class="st85" d="M338.5,138.1c-0.2-0.2-0.4-0.4-0.6-0.6c0.5-0.7,0.3-1.8,1.5-2.6C339.1,136.2,339.3,137.3,338.5,138.1z"/>
	<path class="st86" d="M240.9,161.4c0.4-0.1,0.7-0.6,1.1,0c-0.4,0.6-0.8,1.1-1.1,1.7c-0.5,0-0.9-0.1-1.1-0.6
		c-0.1-0.1-0.2-0.3-0.1-0.4c0.1-0.1,0.1-0.2,0.1-0.2C240.3,161.9,240.7,161.8,240.9,161.4z"/>
	<path class="st87" d="M296.9,119.8c0.6,0.6,1.2,1.3,0.9,2.6c-0.6-0.8-1-1.4-1.5-2C296.5,120.2,296.7,120,296.9,119.8z"/>
	<path class="st88" d="M411.1,164.2c0.4,0.7,0.7,1.4,1.3,2.5c-1.1-0.2-1.5-0.8-1.8-1.4C411,165,411.1,164.6,411.1,164.2z"/>
	<path class="st89" d="M338.5,142.5c-0.4,0.6-0.4,1.6-1.5,1.9c0.2-1,0.3-1.8,1-2.5C338.1,142.2,338.3,142.3,338.5,142.5z"/>
	<path class="st90" d="M335.7,84.9c0-0.6-0.2-1.3,0.3-1.8c1,0.3,0.7,1.1,0.8,1.8C336.4,84.9,336.1,84.9,335.7,84.9z"/>
	<path class="st91" d="M254.8,134.2c-0.3,0.6-0.6,1.1-1.4,1.4c-0.2-0.9,0.3-1.4,0.8-1.9C254.4,133.8,254.6,134,254.8,134.2z"/>
	<path class="st92" d="M415,146.4c-0.2,0.2-0.4,0.4-0.6,0.5c-0.6-0.5-0.9-1-0.9-1.8C414.4,145.2,414.6,145.9,415,146.4z"/>
	<path class="st93" d="M295.8,114.8c-0.2,0-0.4,0-0.6,0c-0.5-0.5-1-1-0.8-1.8C295.4,113.3,295.4,114.2,295.8,114.8z"/>
	<path class="st94" d="M278.6,155.8c0.1,0,0.3,0,0.4,0c0,0.7,0,1.5,0,2.3c-0.7-0.3-0.8-0.8-0.9-1.3
		C278.5,156.7,278.6,156.2,278.6,155.8z"/>
	<path class="st95" d="M330.1,96c-0.5-0.5-1-1-0.9-1.8c0.9,0,1.1,0.7,1.5,1.2C330.5,95.6,330.3,95.8,330.1,96z"/>
	<path class="st96" d="M259.8,95.4c0-0.2,0-0.4,0-0.6c0.3-0.6,0.6-1.1,1.5-1.4C261.2,94.6,260.5,95,259.8,95.4z"/>
	<path class="st97" d="M342.9,81c0.2,0.2,0.4,0.4,0.6,0.6c-0.1,0.5-0.2,1.4-0.7,1.2C342,82.4,342.3,81.6,342.9,81z"/>
	<path class="st98" d="M361.2,76c-0.4,0.5-0.7,0.9-1.3,1.7c-0.3-1.2,0.2-1.7,0.7-2.2C360.8,75.7,361,75.8,361.2,76z"/>
	<path class="st88" d="M279.7,69.4c-0.5-0.5-0.9-1-0.9-1.8c0.9,0,1.1,0.7,1.5,1.3C280.1,69,279.9,69.2,279.7,69.4z"/>
	<path class="st99" d="M389.5,163.1c-0.4,0-0.7,0-1.1,0c0.1-0.4-0.3-1.2,0.4-1.2C389.4,161.8,389.4,162.5,389.5,163.1z"/>
	<path class="st100" d="M241.5,165.8c-0.2,0-0.4,0-0.6,0c0.3-0.6,0.6-1.1,1.4-1.4C242.6,165.3,242,165.5,241.5,165.8z"/>
	<path class="st101" d="M364.5,60.5c0.2,0.2,0.4,0.4,0.6,0.6c-0.4,0.4-0.9,1.1-1.5,0.5C363.3,61.2,364,60.8,364.5,60.5z"/>
	<path class="st102" d="M306.3,121.5c-0.2,0.2-0.4,0.4-0.6,0.5c-0.6-0.5-0.8-1.1-0.3-1.7C305.7,120.7,306,121.1,306.3,121.5z"/>
	<path class="st103" d="M410,159.7c-0.2,0.2-0.4,0.4-0.6,0.6c-0.4-0.4-1.1-0.9-0.5-1.4C409.3,158.5,409.7,159.2,410,159.7z"/>
	<path class="st104" d="M392.2,168c0.6,0.4,0.6,1,0.5,1.6c-0.8,0.1-0.7-0.6-1-1.1C391.9,168.4,392.1,168.2,392.2,168z"/>
	<path class="st105" d="M308,123.7c0.4,0.2,0.5,0.7,0.6,1.1c0.3,0.6,0.5,1.2-0.6,1.1c-0.2-0.6-0.4-1.1-0.5-1.7
		C307.6,124,307.8,123.9,308,123.7z"/>
	<path class="st98" d="M267,74.4c0.2,0.2,0.4,0.4,0.6,0.6c-0.2,0.5-0.7,1.2-1.1,0.9C265.8,75.3,266.5,74.8,267,74.4z"/>
	<path class="st106" d="M290.2,74.4c0.2-0.2,0.4-0.4,0.6-0.6c0.4,0.4,1.1,0.9,0.5,1.4C291,75.6,290.5,74.8,290.2,74.4z"/>
	<path class="st96" d="M257.6,102.6c-0.2,0-0.4,0-0.6,0c0.4-0.5,0.8-0.9,1.3-1.6C258.6,102.1,258.1,102.3,257.6,102.6z"/>
	<path class="st107" d="M378.9,153.1c-0.1,0.7-0.2,1.4-0.9,1.8c-0.1-0.4-0.2-0.8-0.2-1.2C378.2,153.4,378.6,153.2,378.9,153.1z"/>
	<path class="st108" d="M361.7,115.9c-0.1-2.1,0.2-4.1,0.9-6.3c0.5,2.8,0.5,5.5,1.3,8C362.8,117.5,362.2,116.8,361.7,115.9z"/>
	<path class="st109" d="M324.6,148.1c0.2-1.3,0.4-2.6,0.6-3.9c1.4,1.4-0.3,3.5,1.1,5c0,0.6-0.2,1.2-0.8,1.7
		C324.7,150.1,325.7,148.7,324.6,148.1z"/>
	<path class="st110" d="M364,118.1c0.5,0.2,1.1,0.4,1.6,0.6c0.1,0.1,0.2,0.2,0.2,0.3c0,0.1-0.1,0.2-0.1,0.2c-0.5,0.6-0.3,1.6-1.2,2
		C363.6,120.3,364.1,119.2,364,118.1z"/>
	<path class="st111" d="M365.6,119.3c0-0.2,0-0.3,0-0.5c0.2-0.4,0.4-0.8,0.8-1.5c0.6,1.1,1,2,0.9,3.1
		C366.7,120,366.2,119.6,365.6,119.3z"/>
	<path class="st112" d="M391.7,177.4c0.8-0.6,0.5-1.5,0.5-2.2c1.1,1.3,0.3,2.8,0.1,4.4C392.1,178.9,391.9,178.2,391.7,177.4z"/>
	<path class="st113" d="M239.8,161.9c0,0.2,0,0.4,0,0.5c-1.3,1.1-2.6,2.2-3.9,3.3c-0.5,0.2-0.7-0.1-0.8-0.6c0.2-0.8,0.3-1.6,0.6-2.3
		c0.7-1.8,0.8-4,2.4-5.4C239.9,158.5,239,160.6,239.8,161.9z"/>
	<path class="st114" d="M238.2,157.5c-0.6,1.9-0.9,3.9-2.2,5.5c-0.2,0.2-0.4,0.2-0.6,0c0-0.7,0-1.5,0-2.2c-0.3-0.7,0.3-1.1,0.6-1.7
		c0.5-0.7,1-1.4,1.6-2C238.2,156.4,238,157.2,238.2,157.5z"/>
	<path class="st115" d="M239.8,145.3c0-0.5-0.1-0.9-0.6-1.1c1-1.7,1.9-3.4,2.9-5.1C241.8,141.3,241.4,143.6,239.8,145.3z"/>
	<path class="st116" d="M235.9,159.2c-0.2,0.6-0.4,1.1-0.6,1.7c-0.4,0-0.7,0.6-1.1,0c0.4-0.6,0.7-1.1,1.1-1.7
		C235.5,159.2,235.7,159.2,235.9,159.2z"/>
	<path class="st117" d="M243.7,150.3c-0.2-0.2-0.4-0.4-0.6-0.6c0.2-0.6,0.4-1.1,0.5-1.7c0.5-0.1,0.8,0,0.6,0.6
		C244.2,149.3,244.3,149.9,243.7,150.3z"/>
	<path class="st83" d="M248.1,130.9c-0.2,0.2-0.4,0.6-0.6,0.7c-0.3,0.1-0.4-0.3-0.2-0.5c0.2-0.3,0.4-0.5,0.6-0.8
		C248,130.4,248,130.6,248.1,130.9z"/>
	<path class="st118" d="M244.3,148.6c-0.2-0.2-0.4-0.4-0.6-0.6c0.3-0.4,0.6-0.8,0.9-1.2C245,147.6,244.8,148.1,244.3,148.6z"/>
	<path class="st119" d="M402.8,50.6c-0.4,0.5-0.7,1.5-1.5,1.1c-0.3-0.2,0.4-0.8,0.8-1.1C402.4,50.5,402.6,50.6,402.8,50.6z"/>
	<path class="st120" d="M246.4,43.3c0.2-0.2,0.4-0.4,0.6-0.6c0.8,0.6,1.6,1.1,3,2.1C248.2,44.7,247.3,44.1,246.4,43.3z"/>
	<path class="st121" d="M262.5,174.1c0,0.6-0.1,1.3,0.6,1.7c-0.6,0.9-0.4,2.1-1.6,3C261.6,177,261.8,175.5,262.5,174.1z"/>
	<path class="st122" d="M235.4,165.3c0.2,0.2,0.4,0.4,0.6,0.6c-0.3,0.7-0.9,1.4-1.6,0.9c-0.7-0.5,0.5-0.9,0.5-1.5
		C235,165,235.2,165,235.4,165.3z"/>
	<path class="st123" d="M235.4,165.3c-0.2,0-0.4,0-0.5,0c0.1-0.8-0.3-1.6,0.5-2.2c0.2,0,0.4,0,0.6,0
		C235.8,163.8,235.6,164.5,235.4,165.3z"/>
	<path class="st124" d="M283.7,57.7c-0.6,0.1-1.3-0.1-1.7,0.5c-1.1-0.2-2.3-0.4-3.4-0.6C280.3,57.3,282,56.8,283.7,57.7z"/>
	<path class="st125" d="M302.9,128.2c-0.3-0.4-0.6-0.7-0.9-1.1c0-0.6,0-1.1,0-1.7c0.4-0.4,0.7-0.4,1,0
		C302.9,126.3,302.9,127.3,302.9,128.2z"/>
	<path class="st126" d="M320.2,132.6c0,0.6,0,1.1,0,1.7c-0.4,0-0.7,0-1.1,0C319.1,133.4,319,132.6,320.2,132.6z"/>
	<path class="st127" d="M303,125.4c-0.3,0-0.7,0-1,0c0-0.5,0-1.2,0.6-1.2C303.3,124.2,302.9,124.9,303,125.4z"/>
	<path class="st128" d="M256.4,57.2c-2.2-0.6-3.5-2.2-4.5-4C253.8,54.1,255.7,55,256.4,57.2z"/>
	<path class="st129" d="M366.1,99.8c-5-0.2-10.1-0.6-14.9-2.2c-2.1-0.7-2.7-1.7-1.6-3.8c6-11.6,25.8-14.2,34.6-4.5
		c4.3,4.8,3.8,6.5-2.3,8.4C376.6,99.1,371.4,99.6,366.1,99.8z"/>
	<path class="st130" d="M382.3,109.3c-0.2,0-0.4,0-0.6,0c-0.7-0.4-1.4-0.8-1.5-2C381.2,107.8,381.8,108.5,382.3,109.3z"/>
	<path class="st131" d="M287.9,106.7c-6-0.2-12.5-2.6-17.8-8.1c-1.3-1.4-1.4-2.6-0.4-4.1c4.2-6.3,10.5-8.4,17.6-8.7
		c5.1-0.2,10,0.8,14.1,4c6.7,5.2,5.8,10.6-1.1,14.5C297.6,105.9,294,106.6,287.9,106.7z"/>
	<path class="st132" d="M308,125.9c0.4-0.2,0.5-0.7,0.6-1.1c0.7,1.2,1,2.5,0.8,4C308.9,127.8,308.4,126.8,308,125.9z"/>
	<path class="st133" d="M364.8,97.3c-3.5,0-7.9-0.5-12.2-1.5c-1.4-0.3-1.6-0.7-0.7-2c5.9-8.2,20.3-10.7,28.3-4.7
		c1.6,1.2,3.8,2.7,3.6,4.6c-0.2,1.7-3,1.6-4.6,2.1C374.7,97,370.2,97.4,364.8,97.3z"/>
</g>
</svg>
