<?xml version="1.0" encoding="utf-8"?>
<!-- Generator: Adobe Illustrator 25.3.1, SVG Export Plug-In . SVG Version: 6.00 Build 0)  -->
<svg version="1.1" id="Layer_1" xmlns="http://www.w3.org/2000/svg" xmlns:xlink="http://www.w3.org/1999/xlink" x="0px" y="0px"
	 viewBox="0 0 302.1 120.7" style="enable-background:new 0 0 302.1 120.7;" xml:space="preserve">
<style type="text/css">
	.st0{fill:#E26F9D;}
</style>
<path class="st0" d="M287.9,106.9c-0.7,3,0.6,6.1,0.4,10.1c-4.9-2.5-8.9-5.6-13.5-7.4c-4.6-1.8-9.3-2.8-14.7-3.9
	c0.9,3.5,3.6,5.9,3.6,9.9c-9-4.6-17.4-10-28.3-9.9c2.1,3.3,5.6,3,8.1,5.4c-6.7,0.9-12.5-0.5-18.5-1.4c-4.8-0.8-9.5-2.5-14.4-2.8
	c-0.4-0.6-1.2-1.1-1.5-0.5c-0.4,0.8,0.7,0.7,1.2,0.9c1,1.9,3.4,2.6,4.5,5.3c-7.8-1.2-14.3-5-21.5-5.8c-0.5-0.6-1.4-1.1-1.8-0.4
	c-0.5,0.9,0.7,0.8,1.2,1.2c2.3,2.7,5.7,4.4,8.1,8.5c-4.9-1.5-8.8-2.7-12.8-4c-7.6-2.5-15.1-5.2-23-6.7c-1.4-0.3-2.9-0.5-4.3-0.6
	c-3.6-0.2-3.7-0.1-3.9,3.4c-0.1,3.1-0.7,6.1-1.5,9.6c-4.4-3.8-3.8-9.1-5.6-13.7c-5.3,4.4-7.4,10.6-10.5,16.7
	c-2.4-4.9-1.3-9.5-1.6-14.8c-6.9,2.6-11.8,7.5-18.2,10.7c-1.6-3.8,2.1-6.8,1.5-11c-11.1,8-23.3,10.5-37.2,10.8c2.1-2.6,4.3-3,6-4.4
	c1.7-1.4,3.7-2.3,4.8-5c-6.6-0.2-12.5,1.9-18.5,3.4c-5.9,1.5-11.6,3.9-17.5,6.6c-1.4-3.9,1.7-6.3,2.4-9.3c-1.8-1.4-3.1,0.4-4.5,0.8
	c-2.6,0.7-5.1,1.9-7.7,2.6c-2.4,0.6-1.4-1.2-1.2-2.3c0.6-0.2,1.6-0.7,1.3-1.2c-0.6-1-1.5-0.3-2.2,0.2c-6.7,1.8-12.6,5.4-18.7,8.7
	c-1.3,0.7-2.5,2-4.6,2.1c0.5-3.5,2.8-5.8,3.7-9.5c-4.7,1.5-9,3.1-13.3,4.1c-4.4,1-8.9,1.5-13.8-0.1c5.2-3.8,8.3-8.6,8.9-15.2
	c0.6-7-4.2-10.7-8.4-15.2c2.4-1.4,4.1,0.6,6,0.5c0.2,0.2,0.6,0.6,0.7,0.5c0.7-0.4,0.2-0.8-0.1-1.1c-1.6-6.2-4.5-12.3-3.4-19.3
	c2.4,1.6,3,4.9,5.7,6.1c1.2-1.2,0.5-2.5,0.2-3.5c-2.3-6.7-3.8-13.5-6.6-20C2,43.5,3.8,45.2,4.3,45c0.2,0.2,0.6,0.7,0.7,0.6
	c0.6-0.4,0.3-0.8-0.1-1.2c-0.7-3.5-1.3-7-1.9-10.6c-0.2-1.4-0.4-2.8-0.4-4.3c0-3.3,0.1-3.3,3.7-1.6c1-1.3,0.1-2.3-0.4-3.4
	c-1-2.3-2.2-4.5-3-6.9c-1-2.7,1.1-1.8,2.3-1.8c0.3,0.3,0.7,0.7,1.1,0.3c0.4-0.4,0-0.8-0.3-1.1c-0.4-2.1-2.1-3.8-2.2-6.4
	c1.6-1.1,3.3-0.5,5.1-0.3c9.9,1.4,19.5,4,29.2,6.5c1.1,0.3,2.1,0.6,3.2,0.2c0.5-3.1-2.7-4.7-2.8-7.8c6.7-2.4,11.6,1.7,17,4.9
	c1.4-4.1-0.6-8.4,2.6-12.2C63,10.6,71.7,14.3,82.8,14.6c-1.1-3.7-3.9-5.5-5.6-8.9c10.6,1.1,19.6,4.9,29.4,8.6c0.2-3,0.2-5.6,0.6-8.2
	c0.5-3,1.4-3.2,3.8-1.2c0.9,0.8,1.5,2,3.1,2.3c1.2-1.2,0.1-3.1,1.1-4.4c0.8-0.2,1.4,0.2,1.9,0.7c4,3.9,8,8,13.2,10.3
	c1.7,0.8,3.4,2.3,5.6,1.2c-0.1-2.5-2.1-3.7-3.2-5.5c-0.4-0.6-0.8-1.3-0.5-2c0.5-1,1.5-0.7,2.4-0.5c4.9,1.5,9.6,3.3,13.9,6
	c0.8,0.5,1.4,1.1,2.5,0.9c1.2-1.7-0.5-3.4-0.3-5.1c0.1-1-0.3-2.3,0.9-2.9c1.2-0.6,2,0.5,2.7,1.3c1.5,1.6,2.8,3.3,4.3,4.9
	c3.1,3.2,3.2,3.2,6.6,0.5c3.2-2.5,6.5-4.6,10-6.6c1.7-0.9,3.4-2.2,5.5-1.1c0.6,2.9-2.7,4.8-1.6,8.2c6.6-2.3,11.8-7.4,18.7-9.5
	c0,3.8-3,6-3.8,9.9c12.4-5.1,24.6-7.7,37.6-8.8c-1.3,3.1-5.3,3.6-6.2,7.7c8.1-0.8,13.9-5.7,20.9-9.4c-0.1,6.1-4.2,8.9-7.6,12.2
	c10-0.9,20.1-1,27.2-9.5c2.3,1.8,2.5,3.9,2.4,6.1c-0.1,2.3,1.1,2.9,3.1,2.4c4.1-0.9,8.1-1.9,12.2-2.8c1.4-0.3,2.9-1,2.5,1.8
	c-0.2,1.4,1.2,0.9,2,0.7c2.1-0.6,4.1-1.3,6.2-2c1.7-0.5,3.4-1,5.3-1.5c1,3.2-1.9,5.3-1.7,7.7c1.5,1.2,2.5-0.9,4.2,0.2
	c-5.2,11.9-8.7,24.2-6.1,38.1c2.4-2.6,2.3-6,4.7-9.4c0.8,7.6,0.8,14.1-1,20.6c-0.5,1.7-1.3,3.4-1.2,5.3c-0.4,0.3-0.8,0.6-0.2,1.1
	c0.1,0,0.4-0.4,0.6-0.6c0.7,0,1.4-0.1,2.1-0.1l-0.1-0.1c-1.3,2.8-2.5,5.6-3.8,8.3c-4.5,9.6-4.2,18.9,2.3,27.6c0.9,1.2,1.8,2.3,2,4.1
	C296.1,112.7,292.3,109.1,287.9,106.9c0-0.2-0.1-0.4-0.2-0.5c-0.1-0.1-0.3,0-0.4,0C287.2,106.9,287.4,107,287.9,106.9z M234,105.5
	l0.2-0.3l-0.4,0L234,105.5z M224.3,12.3c-0.1,0.1-0.3,0.2-0.4,0.3c0.1,0.1,0.2,0.3,0.4,0.3c0.1,0,0.3-0.2,0.4-0.3
	C224.5,12.5,224.4,12.4,224.3,12.3z"/>
</svg>
