<?xml version="1.0" encoding="utf-8"?>
<!-- Generator: Adobe Illustrator 25.3.1, SVG Export Plug-In . SVG Version: 6.00 Build 0)  -->
<svg version="1.1" id="Layer_1" xmlns="http://www.w3.org/2000/svg" xmlns:xlink="http://www.w3.org/1999/xlink" x="0px" y="0px"
	 viewBox="0 0 914.9 200.7" style="enable-background:new 0 0 914.9 200.7;" xml:space="preserve">
<g>
	<path d="M288.7,158.1c-2.1-3-3.7-5.1-5.4-7.5c-3.5,7.6-2.6,13.7,3.6,22.4c-3.4-2-5.7-3.3-9.3-5.4c1.9,5.2,3.3,9,4.8,13
		c-2.1-1.3-4.2-2.6-6.8-4.3c-0.8,3.2-1.6,6-2.2,8.9c-0.6,2.7-0.9,5.4-1.5,8.8c-1.3-1.6-2.2-2.7-3.2-4c-1.4,3.4-2.6,6.5-4.3,10.6
		c-1.3-3.4-2.2-6-3.1-8.5c-5.9,2-11.6,4-17.3,5.9c-0.2-0.3-0.4-0.7-0.5-1c2.4-2.1,4.9-4.1,8-6.7c-7.4,0-13.7,0-20.5,0
		c0.6-1.2,1.1-2.3,2-4.1c-2.5,1.4-4.3,2.4-6.7,3.7c1.1-3.6,2-6.7,3.1-10.3c-1.9,0.3-3.3,0.5-5.4,0.8c2.2-5.2,4.1-9.9,6.4-15.3
		c-2.6,0.5-4.6,0.9-7.2,1.4c3.8-5.3,7.4-10.3,10.9-15.2c-0.3-0.3-0.5-0.5-0.8-0.8c-1.5,1.1-3.1,2.1-4.6,3.2c-0.3-0.2-0.6-0.4-1-0.6
		c3.8-6.2,7.6-12.4,12-19.5c-3.2,1.6-5.7,2.8-8.4,4.1c5.2-7.5,10.2-14.6,15.9-23c-3,0.5-4.4,0.7-7.1,1.2c3-2.5,5.2-4.2,7.3-5.9
		c-0.3-0.4-0.5-0.7-0.8-1.1c-1.1,0.1-2.3,0.3-4.6,0.5c4.4-5,8.1-9.2,12.2-13.8c-2.6,0.3-4.5,0.5-6.9,0.7c3.8-4.5,7.4-8.6,10.9-12.8
		c-0.3-0.3-0.6-0.6-0.9-0.9c-1.9,1.5-3.7,2.9-5.6,4.4c-0.3-0.2-0.5-0.3-0.8-0.5c3.4-5.3,6.7-10.5,10-15.7
		c-12-17.6-28.5-29.4-47.8-38.1c6.3-3.2,12.1-0.2,18.2,0.7c-1.7-7.6-3.4-14.9-4.9-22.3c-0.5-2.4-0.8-5-0.6-7.4
		c0.1-1.4,1.4-2.7,2.2-4c1.1,1,2.7,1.7,3.4,3c5.6,10,11,20.1,16.5,30.1c0.7,1.3,1.7,2.4,3.3,4.4c9.4-11,18.5-21.6,27.6-32.2
		c0.6,0.2,1.2,0.5,1.8,0.7c-1,4.6-2,9.2-3.1,14.2c4.9-1.2,10-2.5,15.1-3.7c0.3,0.4,0.5,0.9,0.8,1.3c-1.1,1.3-1.9,2.8-3.2,3.7
		c-2.1,1.6-4.4,3.3-6.9,4c-11.4,3.3-18,11.7-22.7,20.7c3.6,3.7,7.1,7.3,10.7,10.9c0.1-0.1,0.1-0.1,0.2-0.2c-2-1.9-4-3.7-6.4-6
		c7.3,0.4,14,0.8,21.4,1.3c-1-2.8-1.7-4.9-2.5-7.1c0.2-0.2,0.4-0.5,0.6-0.7c3.9,3,7.9,6.1,12.1,9.3c0.6-2.4,1.2-4.4,1.8-6.7
		c3.2,6.3,6.2,12.5,9.3,18.7c0.4-0.1,0.9-0.3,1.3-0.4c-0.5-3.4-1.1-6.8-1.6-10.2c0.3-0.1,0.6-0.3,0.9-0.4c2.8,6.5,5.5,12.9,8.4,19.6
		c0.6-1.1,1.2-2.2,2-3.7c1.8,4.6,3.5,9,5.2,13.3c0.3-0.1,0.6-0.2,0.8-0.2c-0.3-1.5-0.5-3-0.8-4.5c0.2-0.1,0.4-0.3,0.6-0.4
		c1.9,2.8,3.9,5.6,6.5,9.5c2-5.6,3.7-10.3,5.4-15.3c0.6,0.7,1.4,1.5,2.2,2.5c2.2-4.5,4.4-8.9,6.6-13.2c0.3,0.1,0.6,0.2,0.9,0.3
		c0,1.7,0,3.3,0,5c0.4,0.1,0.8,0.2,1.2,0.3c1.5-5.2,2.9-10.3,4.5-15.6c0.4,0.4,1.3,1.1,2.3,1.9c2.4-2.9,4.7-5.7,7.1-8.6
		c0.3,0.2,0.5,0.3,0.8,0.5c-0.6,2.2-1.2,4.3-1.9,6.7c7-2.6,13.6-5.2,20.3-7.7c0.2,0.3,0.3,0.7,0.5,1c-1.3,1.6-2.7,3.3-4,4.9
		c0.1,0.3,0.3,0.5,0.4,0.8c3.1-1.2,6.3-2.3,10.3-3.8c-1.7,2.4-2.9,4.2-5.1,7.3c2.7-0.5,4.4-0.4,5.7-1.2c1.7-1,3.2-2.5,4.2-4.2
		c0.7-1.2,1.1-3.3,0.5-4.5c-2.1-4.2-4.5-8.2-7.1-12c-0.9-1.4-2.6-2.4-4.1-3.2c-5-2.6-10.1-5-15.1-7.7c-1.8-1-3.2-2.6-4.8-4
		c0.2-0.6,0.4-1.2,0.6-1.8c5.6,1.4,11.2,2.8,17.2,4.2c-1.8-5.4-3.4-10.1-4.9-14.8c0.6-0.4,1.3-0.7,1.9-1.1
		c4.4,5.4,8.6,10.9,13.2,16.2c4.5,5.3,9.3,10.3,15.2,16.8c6.2-11.5,12-22.1,17.7-32.6c0.4-0.7,0.5-1.7,1-2.3
		c1.1-1.2,2.4-2.2,3.7-3.2c0.8,1.7,2.4,3.6,2.2,5.1c-1.1,7.2-2.7,14.4-4.1,21.5c-0.5,2.2-1.1,4.4-1.7,6.6c6.2-0.8,12-1.5,17.9-2.2
		c0.2,0.7,0.5,1.5,0.7,2.2c-17.8,8-34,18-45.5,34.6c0.5,0.6,1,1.4,1.6,2.1c0.5,0.6,1,1.3,1.7,2.2c-0.7,0.2-1.1,0.4-1.4,0.4
		c-1.8-0.3-3.6-0.8-5.4-1.2c0.5,1.9,0.6,4.2,1.7,5.7c3.8,5,7.9,9.7,11.8,14.4c-0.6-0.1-2-0.3-3.6-0.5c3.2,5.4,6.2,10.6,9.2,15.8
		c-0.3,0.2-0.5,0.5-0.8,0.7c-1.7-1.2-3.5-2.5-5.2-3.7c-0.4,0.3-0.8,0.7-1.2,1c5.1,6.9,10.2,13.8,15.4,20.7c-1.4-0.7-2.9-1.4-4.5-2.2
		c-0.3,0.2-0.5,0.4-0.8,0.6c2.8,3.4,5.6,6.8,8.4,10.3c-0.1,0.2-0.2,0.4-0.3,0.6c-2-1.2-3.9-2.4-6.6-4c4.3,7.8,8.3,15,12.3,22.1
		c-0.3,0.2-0.6,0.4-0.9,0.6c-1.8-1.3-3.7-2.6-5.5-3.9c-0.3,0.2-0.5,0.3-0.8,0.5c3.6,7.5,7.2,15.1,11.5,23.8c-2.6-2.3-4.3-3.8-6-5.3
		c-0.4,0.2-0.7,0.5-1.1,0.7c2,3.7,4,7.3,6.1,11.2c-1.4-0.1-3.1-0.2-5-0.3c0.2,3.3,0.3,6.5,0.5,9.8c-0.3,0.1-0.5,0.2-0.8,0.3
		c-1.3-1.9-2.6-3.9-4.4-6.5c-3.4,5.1-6.5,9.7-10,15c0.2-3.4,0.3-6.1,0.4-8.7c-3.7-0.1-3.7-0.1-6.4,8.7c-3.8-2.1-7.4-4.2-11.6-6.5
		c0,2.5,0,4.7,0,6.9c-0.3,0.2-0.7,0.3-1,0.5c-2.5-3.1-5-6.3-7.6-9.6c-0.7,2.2-1.3,4-2.3,7.2c-0.9-6.2-1.5-10.9-2.3-16.4
		c-1.9,2.1-3.4,3.8-5.5,6.1c0-9.6,0-18.3,0-27.1c-0.4-0.1-0.8-0.1-1.2-0.2c-0.6,1.8-1.2,3.7-1.8,5.5c-0.3,0-0.7,0.1-1,0.1
		c-0.7-5.4-1.4-10.8-2.1-17c-1.4,1.9-2.4,3.2-3.7,4.9c0-6.1,0-11.8,0-17.6c-0.2-0.1-0.4-0.1-0.6-0.2c-0.5,1.5-1,2.9-1.5,4.4
		c-0.3,0-0.6,0.1-1,0.1c-0.8-4.1-1.6-8.2-2.5-12.3c-0.3-0.1-0.5-0.1-0.8-0.2c-2.1,6.7-4.2,13.4-6.6,21.1c-0.8-2.9-1.3-4.8-2.1-7.4
		c-0.6,3-1,5.2-1.5,8.3c-0.8-1.6-1.3-2.6-1.9-3.7c-2.5,4.5-4.8,8.6-7,12.7c-0.3-0.1-0.6-0.3-0.9-0.4c0.2-2.1,0.3-4.1,0.5-6.2
		c-0.3-0.2-0.7-0.4-1-0.5c-2.5,4.2-5,8.5-7.8,13.2c-0.5-1.5-0.9-2.6-1.7-4.8c-0.4,2.7-0.6,4.3-1,6.8c-3.7-3.9-6.8-7.2-10.3-10.8
		c-0.7,1.9-1.4,3.6-2.3,5.8c-2.3-6.6-4.6-12.9-6.8-19.3c-0.5,0.1-1,0.2-1.5,0.3c0,2.8,0,5.6,0,8.7c-4.6-2.5-2.9-8.8-8.2-11.4
		c-1.5-3.5-3.5-8.2-5.5-12.9c-0.7,0.2-1.4,0.4-2.1,0.6c-3.3,5.6-0.1,11.1,1.2,17.2c-1.8-1.1-3.4-2-5.1-3
		C288.7,146.9,288.7,152,288.7,158.1z M289.1,85.4c-8.2,1.1-15.6,3.9-18.6,8.8c-0.9,1.4-1.1,4.4-0.2,5.6c6.1,8.3,23.4,10.8,31.9,4.8
		c5.4-3.7,6-9.4,0.6-13.1C298.8,88.7,293.7,87.4,289.1,85.4z M351.9,96.4c11.7,2.9,22.7,3,34-1.3c-3.3-6-8.2-8.1-14.1-8.3
		C363.7,86.4,357,89.1,351.9,96.4z"/>
	<path d="M501.4,105.8c-0.1,22.2-15.9,37.1-39.3,37c-22.4-0.1-38.1-15.4-38.1-37.3c0-21.6,15.9-36.5,38.8-36.4
		C486,69.3,501.5,84.1,501.4,105.8z M448.8,105.9c0.1,9,6.1,15.7,13.9,15.7c7.9,0,14.4-7.3,14.2-16.2c-0.2-8.7-6-14.8-14.1-14.8
		C454.3,90.6,448.7,96.7,448.8,105.9z"/>
	<path d="M515.6,71.1c7.2,0,14-0.2,20.8,0.1c1.4,0.1,3.1,1.7,3.9,3.1c5.4,9.2,10.5,18.5,15.8,27.8c0.7,1.2,1.5,2.4,2.6,4.1
		c0-12,0-23.2,0-34.8c7,0,14,0,21.3,0c0,23,0,45.8,0,69.3c-7.4,0-14.9,0.1-22.3-0.2c-1.1,0-2.4-1.9-3.2-3.3
		c-5.7-9.7-11.3-19.5-17.7-30.4c0,12,0,22.6,0,33.5c-7,0-13.9,0-21.2,0C515.6,117.6,515.6,94.8,515.6,71.1z"/>
	<path d="M134.3,143.1c-7.6,0-15,0-22.8,0c0-8.7,0-17.2,0-26c-6.5,0-12.5,0-19.2,0c0,8.4,0,16.9,0,25.9c-8,0-15.4,0-23.2,0
		c0-22.9,0-45.8,0-69c7.3,0,14.7,0,22.7,0c0,7.6,0,15.2,0,23.1c6.6,0,12.7,0,19.3,0c0-7.6,0-15.2,0-23.1c8,0,15.4,0,23.2,0
		C134.3,97,134.3,119.9,134.3,143.1z"/>
	<path d="M787.4,72c13.3,0,26.3-0.7,39.2,0.2c9.9,0.7,16.7,7.7,18.4,15.9c2.1,10.5-1.3,18-11.6,24.8c5.6,9,11.2,18.1,17.3,27.9
		c-9,0-17.1,0.1-25.1-0.1c-1.1,0-2.5-1.9-3.3-3.2c-3.9-6.9-7.6-13.9-12.4-20.7c0,7.8,0,15.6,0,23.8c-7.9,0-15.1,0-22.5,0
		C787.4,117.5,787.4,94.7,787.4,72z M809,100.4c9.7,0.8,13.8-1.2,13.7-5.8c-0.1-4-4.3-6.9-10.3-5.4C805.8,90.9,811,96.5,809,100.4z"
		/>
	<path d="M746,114.7c0,2.6,0,4.4,0,6.8c9,0,17.9,0,27,0c0,6.7,0,12.7,0,19c-16.3,0-32.3,0-48.7,0c0-23,0-45.9,0-69.1
		c15.6,0,31.2,0,47.2,0c0,6.1,0,12.2,0,18.9c-8.3,0-16.6,0-25.3,0c0,2.4,0,4.1,0,6.3c7.8,0,15.6,0,23.6,0c0,6.2,0,11.9,0,18.1
		C762,114.7,754.3,114.7,746,114.7z"/>
	<path d="M199.3,74c0,6.1,0,12.1,0,18.7c-8.4,0-16.7,0-25.5,0c0,2.4,0,4.1,0,6.5c7.9,0,15.8,0,24,0c0,6.2,0,11.8,0,18
		c-7.9,0-15.8,0-24,0c0,2.4,0,4.1,0,6.5c8.8,0,17.7,0,27,0c0,6.8,0,13,0,19.5c-16.1,0-32.2,0-48.6,0c0-23.1,0-46,0-69.1
		C167.9,74,183.4,74,199.3,74z"/>
	<path d="M591.1,132.2c4.5-4.9,8.9-9.7,13.6-14.8c1.5,1,2.8,2.2,4.2,2.8c3.3,1.4,6.7,3,10.2,3.4c1.9,0.2,4-1.7,6.1-2.7
		c-1.5-1.6-2.6-3.7-4.4-4.6c-4.3-2-9-3.4-13.5-5.2c-17.1-6.8-14.9-28.5-2.9-36.5c12.9-8.6,34.2-6.7,45.7,4.5
		c-4.8,4.5-9.6,9-14.3,13.3c-3.1-1.2-7-3.3-11.3-4.2c-1.8-0.4-4.1,1.8-6.2,2.9c1.5,1.3,2.8,3.1,4.6,3.8c3.9,1.8,8.1,2.8,12.1,4.5
		c7.8,3.4,13.7,8.6,13.9,17.7c0.3,9.7-4.1,17-12.5,21.7C623.4,146.1,602.3,143,591.1,132.2z"/>
	<path d="M914.9,79.6c-5,4.7-9.7,9.2-14,13.3c-3.9-1.5-7.8-3.6-12.1-4.5c-1.7-0.4-4,1.5-6,2.4c1.4,1.5,2.6,3.5,4.4,4.3
		c4.5,2.1,9.5,3.2,13.9,5.4c14.8,7.4,16.4,26,3.2,36c-9.7,7.4-20.7,7.9-31.9,4.7c-6.1-1.8-11.7-5.1-18.1-7.9c5.5-6,9.9-10.8,13.7-15
		c5.7,2,10.7,4.1,15.9,5.2c1.6,0.4,3.7-1.7,5.6-2.7c-1.3-1.5-2.4-3.5-4.1-4.3c-4-1.9-8.4-3.1-12.5-4.8c-8.2-3.3-13.6-8.9-13.8-18.3
		c-0.1-9.6,4.4-16.5,12.9-20.8C885.2,66.1,903.1,68.9,914.9,79.6z"/>
	<path d="M695.7,140.7c-8.3,0-15.5,0-23.4,0c0-16.5,0-32.9,0-49.8c-5.9,0-11.3,0-16.9,0c0-6.8,0-13,0-19.5c19,0,37.8,0,57,0
		c0,6.2,0,12.4,0,19.2c-5.3,0-10.7,0-16.7,0C695.7,107.4,695.7,123.8,695.7,140.7z"/>
	<path d="M40.3,143.2c-8,0-15.3,0-23.1,0c0-16.6,0-33,0-50c-6,0-11.4,0-17.2,0c0-6.8,0-13,0-19.4c19,0,37.8,0,57,0
		c0,6.3,0,12.5,0,19.3c-5.6,0-11,0-16.7,0C40.3,110.1,40.3,126.4,40.3,143.2z"/>
</g>
</svg>
