<?xml version="1.0" encoding="utf-8"?>
<!-- Generator: Adobe Illustrator 25.3.1, SVG Export Plug-In . SVG Version: 6.00 Build 0)  -->
<svg version="1.1" id="Layer_1" xmlns="http://www.w3.org/2000/svg" xmlns:xlink="http://www.w3.org/1999/xlink" x="0px" y="0px"
	 viewBox="0 0 367 120.7" style="enable-background:new 0 0 367 120.7;" xml:space="preserve">
<style type="text/css">
	.st0{fill:#E26F9D;}
	.st1{fill:#FFFFFF;}
</style>
<path class="st0" d="M349.8,106.9c-0.8,3,0.7,6.1,0.5,10.1c-6-2.5-10.8-5.6-16.4-7.4c-5.5-1.8-11.3-2.8-17.8-3.9
	c1.1,3.5,4.4,5.9,4.4,9.9c-11-4.6-21.1-10-34.4-9.9c2.6,3.3,6.7,3,9.9,5.4c-8.1,0.9-15.2-0.5-22.5-1.4c-5.9-0.8-11.5-2.5-17.5-2.8
	c-0.5-0.6-1.5-1.1-1.9-0.5c-0.5,0.8,0.8,0.7,1.4,0.9c1.2,1.9,4.1,2.6,5.5,5.3c-9.4-1.2-17.3-5-26.1-5.8c-0.6-0.6-1.7-1.1-2.2-0.4
	c-0.6,0.9,0.8,0.8,1.4,1.2c2.8,2.7,6.9,4.4,9.9,8.5c-5.9-1.5-10.7-2.7-15.5-4c-9.2-2.5-18.3-5.2-27.9-6.7c-1.7-0.3-3.5-0.5-5.2-0.6
	c-4.3-0.2-4.5-0.1-4.7,3.4c-0.2,3.1-0.8,6.1-1.8,9.6c-5.3-3.8-4.6-9.1-6.9-13.7c-6.4,4.4-9,10.6-12.8,16.7
	c-2.9-4.9-1.5-9.5-1.9-14.8c-8.3,2.6-14.4,7.5-22.1,10.7c-1.9-3.8,2.6-6.8,1.8-11c-13.5,8-28.3,10.5-45.2,10.8
	c2.5-2.6,5.3-3,7.2-4.4c2-1.4,4.5-2.3,5.8-5c-8-0.2-15.2,1.9-22.4,3.4c-7.2,1.5-14.1,3.9-21.2,6.6c-1.6-3.9,2-6.3,3-9.3
	c-2.2-1.4-3.7,0.4-5.4,0.8c-3.2,0.7-6.2,1.9-9.4,2.6c-3,0.6-1.7-1.2-1.5-2.3c0.8-0.2,1.9-0.7,1.5-1.2c-0.7-1-1.8-0.3-2.6,0.2
	c-8.2,1.8-15.4,5.4-22.7,8.7c-1.6,0.7-3.1,2-5.6,2.1c0.6-3.5,3.4-5.8,4.5-9.5c-5.7,1.5-10.9,3.1-16.2,4.1c-5.3,1-10.9,1.5-16.8-0.1
	c6.3-3.8,10.1-8.6,10.8-15.2c0.7-7-5.1-10.7-10.2-15.2c2.9-1.4,4.9,0.6,7.2,0.5c0.3,0.2,0.7,0.6,0.9,0.5c0.8-0.4,0.3-0.8-0.2-1.1
	c-2-6.2-5.4-12.3-4.1-19.3c3,1.6,3.7,4.9,7,6.1c1.5-1.2,0.6-2.5,0.2-3.5c-2.8-6.7-4.7-13.5-8-20c-1.1-2.2,1-0.5,1.6-0.8
	c0.3,0.2,0.8,0.7,0.9,0.6c0.8-0.4,0.4-0.8-0.1-1.2c-0.8-3.5-1.6-7-2.4-10.6C3.3,32.4,3,31,3,29.6c0-3.3,0.1-3.3,4.5-1.6
	c1.3-1.3,0.1-2.3-0.5-3.4c-1.2-2.3-2.6-4.5-3.7-6.9c-1.2-2.7,1.3-1.8,2.8-1.8c0.4,0.3,0.9,0.7,1.4,0.3c0.5-0.4,0-0.8-0.4-1.1
	c-0.5-2.1-2.6-3.8-2.7-6.4c2-1.1,4.1-0.5,6.2-0.3c12,1.4,23.7,4,35.5,6.5c1.3,0.3,2.5,0.6,3.9,0.2c0.6-3.1-3.3-4.7-3.4-7.8
	c8.1-2.4,14.1,1.7,20.6,4.9c1.6-4.1-0.8-8.4,3.2-12.2c6.1,10.6,16.7,14.3,30.3,14.6c-1.3-3.7-4.7-5.5-6.8-8.9
	c12.9,1.1,23.8,4.9,35.7,8.6c0.3-3,0.3-5.6,0.7-8.2c0.5-3,1.7-3.2,4.7-1.2c1.1,0.8,1.9,2,3.7,2.3c1.5-1.2,0.1-3.1,1.4-4.4
	c1-0.2,1.7,0.2,2.4,0.7c4.9,3.9,9.7,8,16.1,10.3c2.1,0.8,4.1,2.3,6.8,1.2c-0.1-2.5-2.6-3.7-3.9-5.5c-0.5-0.6-1-1.3-0.6-2
	c0.6-1,1.9-0.7,2.9-0.5c5.9,1.5,11.7,3.3,16.9,6c0.9,0.5,1.8,1.1,3.1,0.9c1.4-1.7-0.6-3.4-0.4-5.1c0.1-1-0.4-2.3,1-2.9
	c1.5-0.6,2.4,0.5,3.3,1.3c1.8,1.6,3.4,3.3,5.3,4.9c3.8,3.2,3.9,3.2,8,0.5c3.8-2.5,7.9-4.6,12.1-6.6c2-0.9,4.1-2.2,6.7-1.1
	c0.7,2.9-3.3,4.8-2,8.2c8-2.3,14.3-7.4,22.8-9.5c0,3.8-3.6,6-4.7,9.9c15-5.1,29.9-7.7,45.7-8.8c-1.6,3.1-6.4,3.6-7.6,7.7
	c9.9-0.8,16.8-5.7,25.4-9.4c-0.1,6.1-5.1,8.9-9.3,12.2c12.1-0.9,24.4-1,33-9.5c2.8,1.8,3,3.9,2.9,6.1c-0.1,2.3,1.4,2.9,3.8,2.4
	c4.9-0.9,9.9-1.9,14.8-2.8c1.7-0.3,3.6-1,3.1,1.8c-0.3,1.4,1.4,0.9,2.4,0.7c2.5-0.6,5-1.3,7.6-2c2-0.5,4.1-1,6.4-1.5
	c1.2,3.2-2.4,5.3-2,7.7c1.8,1.2,3-0.9,5.1,0.2c-6.3,11.9-10.6,24.2-7.4,38.1c3-2.6,2.8-6,5.7-9.4c0.9,7.6,1,14.1-1.3,20.6
	c-0.6,1.7-1.6,3.4-1.4,5.3c-0.5,0.3-1,0.6-0.2,1.1c0.1,0,0.5-0.4,0.8-0.6c0.9,0,1.7-0.1,2.6-0.1l-0.1-0.1c-1.5,2.8-3.1,5.6-4.6,8.3
	c-5.5,9.6-5.2,18.9,2.8,27.6c1.1,1.2,2.2,2.3,2.4,4.1C359.8,112.7,355.2,109.1,349.8,106.9c0-0.2-0.1-0.4-0.2-0.5
	c-0.1-0.1-0.4,0-0.4,0C349,106.9,349.3,107,349.8,106.9z M284.3,105.5l0.3-0.3l-0.5,0L284.3,105.5z M272.5,12.3
	c-0.2,0.1-0.3,0.2-0.5,0.3c0.1,0.1,0.3,0.3,0.4,0.3c0.2,0,0.3-0.2,0.5-0.3C272.8,12.5,272.6,12.4,272.5,12.3z"/>
<g>
	<path class="st1" d="M46.2,71.3V47.4h7.5c1.6,0,3,0.3,4.2,0.8c1.2,0.6,2.1,1.4,2.7,2.4c0.7,1.1,1,2.3,1,3.8c0,1.2-0.2,2.3-0.7,3.3
		c-0.5,1-1.1,1.8-2,2.4s-1.9,1.1-3.1,1.3l7.9,9.8h-4.8l-7.2-9.4H50v9.4H46.2z M50,58.7h2.5c1.1,0,2-0.2,2.7-0.5
		c0.8-0.3,1.3-0.8,1.7-1.4c0.4-0.6,0.6-1.4,0.6-2.2c0-1.3-0.4-2.3-1.3-3c-0.9-0.7-2.1-1.1-3.7-1.1H50V58.7z"/>
	<path class="st1" d="M67.5,71.3V47.4h12.9v3.3h-9.1v6.9H80V61h-8.7v7h9.1v3.3H67.5z"/>
	<path class="st1" d="M90.3,71.3V50.8h-6.5v-3.4h16.8v3.4h-6.5v20.5H90.3z"/>
	<path class="st1" d="M113.4,71.8c-2.9,0-5.1-0.8-6.6-2.3s-2.2-3.7-2.2-6.7V47.4h3.8v14.4c0,2.2,0.4,3.8,1.2,4.8
		c0.8,1,2.1,1.5,3.8,1.5s3-0.5,3.8-1.5c0.8-1,1.2-2.6,1.2-4.8V47.4h3.8v15.4c0,3-0.7,5.2-2.2,6.7S116.4,71.8,113.4,71.8z"/>
	<path class="st1" d="M128.8,71.3V47.4h7.5c1.6,0,3,0.3,4.2,0.8c1.2,0.6,2.1,1.4,2.7,2.4s1,2.3,1,3.8c0,1.2-0.2,2.3-0.7,3.3
		s-1.1,1.8-2,2.4s-1.9,1.1-3.1,1.3l7.9,9.8h-4.8l-7.2-9.4h-1.7v9.4H128.8z M132.6,58.7h2.5c1.1,0,2-0.2,2.7-0.5
		c0.8-0.3,1.3-0.8,1.7-1.4c0.4-0.6,0.6-1.4,0.6-2.2c0-1.3-0.4-2.3-1.3-3c-0.9-0.7-2.1-1.1-3.7-1.1h-2.5V58.7z"/>
	<path class="st1" d="M150.1,71.3V47.4h3.8L165.2,65V47.4h3.8v23.9h-3.8l-11.2-17.5v17.5H150.1z"/>
	<path class="st1" d="M186.2,71.3V50.8h-6.5v-3.4h16.8v3.4H190v20.5H186.2z"/>
	<path class="st1" d="M210.4,71.8c-1.7,0-3.2-0.3-4.7-1c-1.5-0.6-2.7-1.5-3.8-2.7c-1.1-1.1-2-2.5-2.6-4c-0.6-1.5-0.9-3.1-0.9-4.8
		c0-1.7,0.3-3.3,0.9-4.8c0.6-1.5,1.5-2.8,2.6-4c1.1-1.1,2.4-2,3.8-2.7c1.5-0.6,3-1,4.7-1c1.7,0,3.2,0.3,4.7,1
		c1.5,0.6,2.7,1.5,3.8,2.7c1.1,1.1,2,2.5,2.6,4c0.6,1.5,0.9,3.1,0.9,4.8c0,1.7-0.3,3.3-0.9,4.8c-0.6,1.5-1.5,2.8-2.6,4
		c-1.1,1.1-2.4,2-3.8,2.7S212.1,71.8,210.4,71.8z M210.4,68.1c1.1,0,2.2-0.2,3.2-0.7c1-0.4,1.8-1,2.5-1.8c0.7-0.8,1.3-1.7,1.7-2.8
		c0.4-1.1,0.6-2.2,0.6-3.5c0-1.3-0.2-2.4-0.6-3.5s-1-2-1.7-2.8c-0.7-0.8-1.6-1.4-2.5-1.8c-1-0.4-2-0.7-3.2-0.7
		c-1.1,0-2.2,0.2-3.1,0.7c-1,0.4-1.8,1-2.5,1.8c-0.7,0.8-1.3,1.7-1.7,2.8s-0.6,2.2-0.6,3.5c0,1.2,0.2,2.4,0.6,3.5
		c0.4,1.1,1,2,1.7,2.8c0.7,0.8,1.6,1.4,2.5,1.8C208.2,67.9,209.3,68.1,210.4,68.1z"/>
	<path class="st1" d="M241.1,71.8c-1.2,0-2.2-0.1-3.1-0.4s-1.8-0.7-2.5-1.1c-0.7-0.4-1.3-0.9-1.8-1.3c-0.5-0.4-0.8-0.8-1.1-1.1
		l2-3.1c0.3,0.3,0.6,0.6,1,1s0.9,0.8,1.4,1.1c0.6,0.4,1.2,0.7,1.9,0.9c0.7,0.3,1.4,0.4,2.3,0.4c0.8,0,1.5-0.1,2.1-0.4
		c0.6-0.3,1.1-0.7,1.5-1.2c0.4-0.5,0.6-1.2,0.6-1.9c0-0.7-0.1-1.2-0.4-1.7c-0.3-0.5-0.7-0.9-1.2-1.2c-0.5-0.4-1.1-0.7-1.8-1
		c-0.7-0.3-1.5-0.7-2.4-1c-0.6-0.3-1.2-0.6-1.8-0.9c-0.6-0.4-1.1-0.8-1.6-1.2c-0.5-0.5-0.9-1-1.2-1.7s-0.4-1.4-0.4-2.2
		c0-0.9,0.2-1.8,0.5-2.6c0.4-0.8,0.9-1.5,1.5-2.2c0.6-0.6,1.4-1.1,2.3-1.5c0.9-0.4,1.9-0.6,3-0.6c0.9,0,1.8,0.1,2.6,0.4
		c0.8,0.3,1.6,0.6,2.3,1c0.7,0.4,1.3,0.9,1.7,1.3l-1.7,2.9c-0.4-0.4-0.8-0.7-1.3-1.1c-0.5-0.3-1.1-0.6-1.7-0.8s-1.3-0.3-1.9-0.3
		c-0.8,0-1.5,0.2-2,0.5c-0.6,0.3-1,0.7-1.3,1.2s-0.4,1-0.4,1.6c0,0.5,0.1,0.9,0.3,1.3s0.5,0.7,0.9,0.9c0.4,0.3,0.8,0.5,1.3,0.7
		s1,0.4,1.5,0.6c1.1,0.4,2,0.9,2.9,1.3c0.9,0.4,1.7,0.9,2.3,1.5s1.2,1.2,1.5,2s0.5,1.7,0.5,2.7c0,1.5-0.4,2.8-1.1,3.8
		c-0.7,1.1-1.7,1.9-2.9,2.4S242.7,71.8,241.1,71.8z"/>
	<path class="st1" d="M254.7,71.3V47.4h3.8v10.3H269V47.4h3.8v23.9H269V61h-10.4v10.3H254.7z"/>
	<path class="st1" d="M290.2,71.8c-1.7,0-3.2-0.3-4.7-1c-1.5-0.6-2.7-1.5-3.8-2.7c-1.1-1.1-2-2.5-2.6-4c-0.6-1.5-0.9-3.1-0.9-4.8
		c0-1.7,0.3-3.3,0.9-4.8c0.6-1.5,1.5-2.8,2.6-4c1.1-1.1,2.4-2,3.8-2.7c1.5-0.6,3-1,4.7-1c1.7,0,3.2,0.3,4.7,1
		c1.5,0.6,2.7,1.5,3.8,2.7c1.1,1.1,2,2.5,2.6,4c0.6,1.5,0.9,3.1,0.9,4.8c0,1.7-0.3,3.3-0.9,4.8c-0.6,1.5-1.5,2.8-2.6,4
		c-1.1,1.1-2.4,2-3.8,2.7S291.8,71.8,290.2,71.8z M290.2,68.1c1.1,0,2.2-0.2,3.2-0.7c1-0.4,1.8-1,2.5-1.8c0.7-0.8,1.3-1.7,1.7-2.8
		c0.4-1.1,0.6-2.2,0.6-3.5c0-1.3-0.2-2.4-0.6-3.5s-1-2-1.7-2.8c-0.7-0.8-1.6-1.4-2.5-1.8c-1-0.4-2-0.7-3.2-0.7
		c-1.1,0-2.2,0.2-3.1,0.7c-1,0.4-1.8,1-2.5,1.8c-0.7,0.8-1.3,1.7-1.7,2.8s-0.6,2.2-0.6,3.5c0,1.2,0.2,2.4,0.6,3.5
		c0.4,1.1,1,2,1.7,2.8c0.7,0.8,1.6,1.4,2.5,1.8C288,67.9,289,68.1,290.2,68.1z"/>
	<path class="st1" d="M307.6,71.3V47.4h7.5c1.6,0,2.9,0.3,4.1,0.8c1.2,0.5,2.1,1.3,2.8,2.4c0.7,1,1,2.3,1,3.9c0,1.5-0.3,2.8-1,3.9
		c-0.7,1.1-1.6,2-2.8,2.5c-1.2,0.6-2.6,0.9-4.1,0.9h-3.7v9.5H307.6z M311.4,58.7h2.5c1,0,1.8-0.2,2.6-0.5s1.4-0.8,1.8-1.4
		c0.5-0.6,0.7-1.4,0.7-2.3s-0.2-1.7-0.7-2.3c-0.4-0.6-1.1-1.1-1.8-1.4c-0.8-0.3-1.6-0.4-2.6-0.4h-2.5V58.7z"/>
</g>
</svg>
