<?xml version="1.0" encoding="utf-8"?>
<!-- Generator: Adobe Illustrator 25.3.1, SVG Export Plug-In . SVG Version: 6.00 Build 0)  -->
<svg version="1.1" id="Layer_1" xmlns="http://www.w3.org/2000/svg" xmlns:xlink="http://www.w3.org/1999/xlink" x="0px" y="0px"
	 viewBox="0 0 1020.4 147.5" style="enable-background:new 0 0 1020.4 147.5;" xml:space="preserve">
<style type="text/css">
	.st0{fill:#E26F9D;}
	.st1{fill:#FFFFFF;}
</style>
<g>
	<path class="st0" d="M10.5,69.6c-1.7,0-3.5,0.8-5.2,0.3L5.4,70c1.6-3.7,1.6-3.7,7.2-8.2C8,55.4,4.4,48.6,5.9,39.9
		c3.2,1.2,3.2,5,5.8,6.2c0.2,0.2,0.6,0.7,0.6,0.7c0.6-0.5,0.3-0.8-0.2-1.1c-0.9-5.6-3.3-11-2.6-16.9c0.2-1.9-0.4-4,1.9-6
		c3.2,3.9,5.8,8.7,11,10.5c0.3,0.4,0.7,0.7,1.1,0.3s0-0.8-0.3-1.1c-1-3.7-3.2-6.9-3.7-10.8c-0.3-2.2-0.3-4.3,0.1-7.3
		c8.9,6.3,17.5,12.1,27.9,14.3c0.2,0.2,0.6,0.5,0.7,0.5c0.7-0.4,0.2-0.7-0.1-1c-0.3-2.6-2-4.6-2.8-7c-0.9-2.7-2.4-5.3-1.2-9.1
		C51.4,18.9,58.5,25.2,68,29c0.2-5.9-2.1-11.4,0.8-17.3c3.2,3.9,5.3,8.3,9,11.4c3.6,3,7.4,5.7,12.1,7.8c1.1-4.6,1.8-9.2,5.9-12.7
		c1.7,2.9,3.3,5.8,5.2,8.5c1.8,2.7,4.1,5,7.2,7c1.6-3.9,0.1-7.3-0.7-10.6c-0.3-1.2-1-2.3-1.4-3.5c-0.9-2.6-0.1-3.5,2.5-2.8
		c5.5,1.4,10.4,4.2,14.9,7.7c1.1,0.8,1.7,2.3,3.7,2.3c-0.4-3.4-1.5-6.8,1.4-10.3c7.9,7.7,17.1,13.4,28.4,17
		c-2.2-5.3-5.8-8.6-13.6-13c4-2.1,9.3-0.9,27.3,6.2c0.4,0.6,1.1,1.2,1.5,0.6c0.5-0.7-0.5-0.9-0.9-1.3c-0.9-2.8-3.7-4.4-4.4-7.3
		c1.3-1.4,2.4-0.4,3.5,0c4.1,1.6,7.8,3.9,11.3,6.4c4.3,3.1,4.3,3.1,6.6-1.5c2.1-4.3,4.8-8.1,8.7-10.9c0.7-0.5,1.4-1.2,2.9-0.6
		c-1.1,11.4,3.6,18.9,15.5,21c0.2,0.1,0.4,0.2,0.7,0.3c-0.1-0.2-0.2-0.4-0.3-0.7c-0.9-5.3-4.3-9.5-6.5-14.5c2.3-1,3.8,0.6,5.4,1.5
		c5.1,2.8,10.1,5.7,15.2,8.5c1.6,0.9,3.1,1.9,5.1,1.8c0.3,0.4,0.6,0.7,1,0.1c0-0.1-0.3-0.4-0.5-0.6c-0.8-3.7-3.6-6.2-5.6-9.2
		c-1.4-2.1-2.9-4.1-5.2-7.1c6.8,0.6,11.6,3.5,16.4,5.9c4.8,2.4,8.8,6,13.5,9.7c0.9-6.7-1.2-13,1.7-19c4.6,12.5,10.2,23.6,25.4,24.7
		c-4.5-5.4-11.4-7.7-16.9-13.1c13.2-1.6,25,0.4,36.7,6.6c-0.6-5.5-1.3-10.3-0.3-15.9c6.6,4.6,11.9,10.1,18.5,13.7
		c6.6,3.7,13,7.7,21.4,9.4c-2.2-5-6.3-7.1-9.5-9.9c-3.2-2.9-6.9-5.2-11.2-8.4c7.1-0.2,12.9,1.3,18.7,2.7c5.5,1.3,10.3,4.5,15.7,6.1
		c0.4,0.4,0.8,0.8,1.2,0.1c0.1-0.1-0.3-0.5-0.5-0.8c-0.5-2.7-2.7-4.7-2.9-7.8c5.4,2.4,10.5,4.9,15.7,7c5.3,2.2,10.7,4.3,17.6,4.3
		c-5.4-4.3-10.9-6.7-16.9-10.6c4.4-0.5,7.6-0.5,10.8,0.2c8.1,1.8,16.2,3.9,23.8,7.4c1.1,0.5,2.4,0.8,3.6,1.2c0.5,0.5,1.3,1,1.7,0.4
		c0.6-0.8-0.5-0.9-1-1.3c-1.4-3-4.6-4.5-6.3-7.4c3.3-0.4,4.2-0.2,10.9,2.9c3.6,1.7,7.1,3.3,11.2,5.3c-0.1-3.2-3.1-4-3.3-6.7
		c2.6,0.3,4.3,2,6.2,3.2c1.9,1.1,3.7,2.4,5.4,3.6c2,1.4,3.3,0.8,4.2-1.3c0.9-2.2,1.9-4.3,2.7-6.5c0.5-1.3,0.7-2.7,1.9-4.1
		c1.5,2.9,2.9,5.6,4.7,8.9c1.2-2.9,2-5,3-7.1c0.5-1.1,1.2-2.5,2.8-2.2c1.2,0.2,1.4,1.5,1.8,2.5c3.3,7.2,5.9,9.8,12.3,12.5
		c2.3-3.6-0.9-6.8-0.9-10.6c6.2,1,10.6,4.6,15.4,8.2c1.2-2.8-2-6,1.4-8.3c4.1,2.7,6.8,7.3,12.1,10.2c-0.9-5.9-3.7-10.7-3.5-16.6
		c3.8,0.8,5.9,4,8.7,5.9c2.9,1.8,5.3,4.3,9.1,5.9c0.5-8-1.2-15.8,1.9-24.1c4.4,6.7,5.2,14,7.7,21.2c3.1-3.7,4.2-8.7,9.5-10.1
		c0.8,3.3-0.6,6.2-0.5,9.2c0.2,6.4,0.4,6.7,6.3,4.2c6-2.5,12-5.2,17.5-8.8c0.7-0.5,1.4-1.1,2.7-0.8c0.4,3.3-1.5,6.5-1.3,10
		c1.6,0.9,2.8-0.3,4.1-0.6c2.1-0.5,4-3.3,6.5-0.3c0.6,0.8,2.4-0.4,3.6-0.8c5.4-1.7,10.8-2.7,17.5-2.8c-4.3,3.7-8.9,5.8-11.1,10.3
		c-0.2,0.1-0.3,0.1-0.5,0.2c-0.1,0.1,0,0.4,0,0.4c0.4,0.1,0.6-0.1,0.5-0.5c2.5,0.7,4.6-0.6,6.8-1.4c6.4-2.4,12.8-4.9,18.3-9.3
		c1.9,2.3-0.7,4.6,0.4,6.8c2.4-0.8,4.2-2.7,6.4-3.9c2.2-1.1,4.4-2.5,7.4-2.9c-0.5,2.4-3.1,3.1-3.4,5.2c-0.3,0.2-1.1,0.1-0.3,0.7
		c0.1-0.2,0.2-0.5,0.3-0.7c2.1,0.5,3.7-0.9,5.5-1.5c2.5-0.8,4.8-2.2,7.9-1.7c-0.3,2.1-2.6,3-2.8,5c-0.2,0.3-0.6,0.7-0.5,0.8
		c0.4,0.6,0.8,0.3,1.2,0c7.5-0.5,13.4-4.6,19.1-8.9c2.1,2.6-0.5,4.8,0.5,7.5c6.9-1.2,11.5-6,16.3-10.6c1.9,3.1,1.1,6.2,1.5,9.1
		c-0.1,0.3-0.3,0.7-0.3,0.8c0.2,0.2,0.5,0.1,0.7-0.3c6.2-3,12-6.6,18.8-8.3c0.7-0.2,1.4-0.5,2.3,0c-2.1,2.2-5.2,3.4-6.8,6.7
		c5.1,1.5,9.9-0.4,14.7-0.8c5-0.4,9.6-3.1,14.9-4.4c-0.3,2.4-2.6,3.2-3.1,5c-0.5,0.4-1.6,0.5-1,1.3c0.5,0.6,1.3,0.1,1.8-0.4
		c4-1,8-2.2,12.1-3c4.6-0.9,9.3-1,14.9,0.6c-5.6,2.1-10.2,3.9-14,8.3c4,0.7,7.3-0.6,10.5-1.2c3.9-0.7,7.6-2.3,11.4-3.7
		c2.2-0.8,4.3-3.5,7.3-0.9c0.6,0.5,2.9-1,4.5-1.5c5.9-1.8,11.7-3.8,18.1-2.3c0.2,0,0.3,0.2,1,0.5c-2.5,1.9-5.7,2.5-7.6,4.8
		c-1.3,1.5-3.7,3.1-2.5,4.9c1.4,2.1,3.6-0.2,5.3-0.9c6.6-2.9,12.5-6.7,16.6-13.8c1.6,4.6-0.1,8.4-0.2,13.2
		c9.2-6.8,18.6-11.8,30.4-12.3c-3.7,4.6-7.8,8.6-6.4,15.1c8.6-2.4,16-7.5,24.6-10.4c-0.5,3.3-3.7,3.6-4.6,6.2
		c1.1,0.8,2.2,0.3,3.3-0.1c5.1-1.9,10.2-3.8,15.3-5.7c1.9-0.7,3.7-1.6,5.7-1.7c0.2,0.2,0.3,0.4,0.5,0.6c-2,3.4-5.7,5.5-6.8,10
		c5.7-0.2,10.8-2,15.6-4.5c1.9-1,3.8-2.2,5.6-3.3c4-2.4,4-2.4,4.5,2.3c0.1,0.5,0.3,1,0.4,1.6c-0.2,0.1-0.4,0.2-0.5,0.4
		c0.1,0,0.3,0,0.3,0c0.1-0.1,0.1-0.3,0.2-0.4c3.5-1.8,6.3-4.7,10.4-5.7c2.6-0.6,5-1,7.7,0.7c-2.3,2.4-6.2,3.6-6.6,8.3
		c6.4-5.2,12.7-9.6,21.5-8.9c-1.3,3.4-4.8,5-5.3,8.5c1.8,1.1,3.6,0.5,5.3,0.2c4.8-1.1,9.5-2.3,14.1-3.7c2.9-0.9,5.8-4.2,9.2-0.9
		c0.3,0.3,1.9-0.7,2.9-1.2c2.7-1.3,5.6-2.2,8.8-2.1c-0.2,2.3-2.4,3-2.8,4.7c-0.2,0.2-0.6,0.6-0.6,0.7c0.4,0.7,0.8,0.2,1.1-0.2
		c3.9-0.7,6.4-3.9,9.8-5.4c1.5,0.7,0.4,1.9,0.7,2.8c-0.4,0.1-0.7,0.4-0.4,0.6s0.6,0,0.6-0.5c3.5-0.1,6.4-2.4,9.8-2.9
		c2.8-0.5,5.6-1,9,0.6c-3.5,2.4-7.1,3.4-9.1,7.4c5.2,1.2,9.7-0.6,14.3-1.5c4.9-1,8.7-4.2,13.4-5.7c1.4,3.9-0.2,6.9-2.1,9.9
		c8.4,2.1,15.9-0.5,27.6-9.9c2.3,2.6,0.2,5.4,0.4,8.1c1.7,1,2.8-0.2,4-0.8c1.1-0.6,2-1.6,3.3-1.6c3.1,6,3,7.9-0.8,19.8
		c2.9,0.9,6-1.3,9.7,0.7c-6.4,6.3-12.1,12.7-12.4,22.4c3.4-1,4.9-3.9,8.1-5.1c0.3,4.4-1.7,7.8-3.3,11.2c-1.6,3.4-3.4,6.7-5.1,10.1
		c2.3,1.3,4.2-1.5,6.6-0.1c-0.2,2.5-2.2,3.9-3.8,5.4c-3.2,2.9-3.3,2.9-0.9,6.7c3.5,5.6,5.2,11.4,3.9,18c-2.1,0.1-1.6-2.8-4-2.9
		c0,6.6,2.3,13.3-0.8,20.1c-3.9-3.5-6.3-8-10.9-10.1c-0.5-0.3-0.9-0.5-1.4-0.8c-0.2-0.3-0.3-1-0.8-0.3c0.2,0.1,0.5,0.3,0.7,0.4
		c-0.2,0.7,0.2,1.1,0.6,1.5c1.1,3.5,2.2,6.9,3.2,10.4c0.6,2.1,0.8,4.2-0.1,7.2c-4.8-3.2-8.9-6.7-13.7-9c-4.7-2.3-9.4-4.5-15.2-5.9
		c1.5,5.7,5.6,10.1,4.2,16.6c-4.4-3-7.4-6.9-11.4-9.5c-4-2.5-7.8-5.3-12.6-7.1c0,5.9,2.6,11.4-0.5,17.2c-3.5-3.6-5.5-8.2-9.3-11.1
		c-3.6-2.9-7.1-6.2-12.2-7.2c-0.6,4.7-1.6,8.9-5.6,12c-3.4-5.7-6.3-11.6-12.5-15.5c-1.6,6.5,1.9,11.5,3.2,17.5
		c-8.4-0.8-14.8-5-21.2-10.5c-1,3.6,0.6,7.3-1.9,10.7c-8.1-7.3-16.6-14.1-27.6-16.5c-0.6-0.6-1.2-0.9-1.9-0.2
		c0.4,0.4,0.7,0.7,1.1,1.1c1.6,3.4,4.7,5.4,7.4,7.8c1.3,1.1,3,2,3.8,4.3c-6.1,0.2-11.4-1.1-16.5-3.1c-3.2-1.2-6.3-2.7-9.4-4.1
		c-0.2-0.6-0.6-0.9-1.2-0.8c-0.1,0-0.3,0.4-0.3,0.4c0.3,0.5,0.8,0.7,1.4,0.6c0,3.2,3.6,4.4,3.9,8.1c-7.9-0.5-12.4-6.4-18.1-11
		c-2.9,7.5-6.1,14.3-13.7,18.6c-0.7-5,0.2-10.2-3-14.4c-3.1-4.1-7.1-6.6-12.2-7.3c-0.4-0.4-0.8-0.6-1.1,0c-0.1,0.1,0.3,0.5,0.4,0.7
		c0.5,3.5,2.7,6.3,4,9.5c0.7,1.6,2.1,3,1.6,5.4c-8.5-4-15.8-9.8-25.3-13.3c1.6,7.2,6.9,11.2,10.3,17.3c-11.9-2-20.9-7.9-29.2-15
		c-0.2-0.2-0.6-0.6-0.7-0.6c-0.6,0.4-0.3,0.8,0.1,1.1c-0.1,5.7,1,11.5-1.3,17.3c-1.6-1.8-2.1-3.9-2.9-5.9c-3.2-7.4-7.8-13.5-15.3-17
		c-2.4-1.1-5-2-8.3-1c5.3,5.4,12.5,7.7,18.3,13.3c-13.3,1.5-25.1-0.9-36.2-6.1c-1.5,1.8-0.9,3.4-0.6,4.9c0.4,2,0.6,3.9,0.5,5.9
		c-0.1,1.2,0,2.7-1.5,3.1c-1.2,0.4-2-0.7-2.7-1.4c-10-9-21.3-15.6-33.8-20.4c-0.7-0.3-1.3-0.5-2-0.7c-0.3-0.1-0.7,0-1.9,0.1
		c2.1,2.6,4.1,4.7,6.3,6.6c2.5,2.1,5.1,4.1,7.7,6.1c2.4,1.8,4.8,3.5,8.1,5.8c-13.2,0.2-24.1-3.9-35.1-9.4c-0.2,3.6,2.8,5.6,2.6,8.6
		c-1.4,0.9-2.4-0.4-3.3-0.9c-6.6-3.5-13.4-6.4-20.5-8.6c-2.3-0.7-4.5-1.1-7.6-0.9c4.4,4.9,10.3,6.3,15.1,10.4
		c-5,0.9-9.3-0.1-13.5-1.1c-6.7-1.5-13.3-3.7-19.6-6.3c-1.8-0.7-3.7-1.3-5.6-2c-0.4-0.6-1.1-1.1-1.5-0.5c-0.4,0.7,0.6,0.7,1.1,1
		c1.5,3.6,5.3,5.3,7.3,9c-2.8,0.1-5-1-7.1-1.9c-4.3-1.8-8.5-3.6-12.8-5.5c-0.2-0.2-0.6-0.6-0.7-0.5c-0.7,0.4-0.2,0.8,0.1,1.1
		c0.6,3.1,3.9,4.1,5.4,7c-2.4,2.1-5,1.3-7.6,0.9c-4.9-0.7-9.1-3.5-13.6-5.2c-0.3-0.2-0.6-0.6-0.7-0.5c-0.7,0.4-0.2,0.8,0.1,1.2
		c-0.1,2.9,2.4,5.3,1.5,8.3l0.1-0.1c-2.6-0.8-4.1-2.9-5.9-4.6c-4.2-3.8-8.6-7.1-14.6-9.3c0.7,5.5,1.3,10.6,1.9,16.3
		c-4.5-1.9-5.8-5.6-7.7-8.7c-1.9-3-3.3-6.3-5.2-9.9c-5.7,3.8-9.9,8.9-15.1,14.2c-1-5.8,2.1-10.2,2.9-15.5c-5.5,2.3-8,7.2-12.3,10
		c-2.9-2.4-0.7-5.2-1.1-8.2c-5,3.1-9.4,7.1-15.8,8.1c0.6-3.5,2-6.6,0.8-9.9c-1.8-0.5-2.4,1.2-3.5,2c-4.6,3.3-9.1,6.6-15,6.8l0.1,0.1
		c1.3-3.3,4.5-5.6,5.1-10.1c-11.4,3.8-20.9,10.2-31,16.1c-0.4-3.7,1.9-6.6,1.9-9.7c-1.5-1.1-2.5,0.2-3.6,0.4
		c-2.3,0.5-4.4,3.6-7.1,0.4c-0.3-0.4-2.3,0.5-3.5,0.9c-5.5,1.8-11.1,3.3-17.7,3c4.4-4.2,9.7-6.8,12.4-12.1c-5.2-1-5.2-1-26.4,10.9
		c-1.9-1.1,0.3-3.5-1.5-4.8c-3.6,1.9-6.7,4.8-10.8,5.9c-0.5,0.1-1.1,0-1.7,0c0-1.9,2-2.5,2.3-4c0.2-0.2,0.7-0.6,0.6-0.7
		c-0.4-0.7-0.8-0.2-1.1,0.2c-4.1,0.6-7.7,3-12.3,3.4c-0.3-2.6,2.9-3.4,2.6-6.3c-7.7,0.5-13.7,4.7-19.6,8.8c-2-2.6,0.1-4.9-0.3-7.4
		c-3.6,0.3-6.5,2-9.2,4s-5.1,4.3-8,6.7c-1.5-3.4-0.2-6.5-1.2-9.8c-7.2,3.1-13.5,8.1-21.5,8.6l0.1,0.1c2-2.5,5.4-3.7,7.2-7.3
		c-5.2-0.4-10,0.7-14.9,1.2c-4.8,0.5-9.1,3.2-14,3.7c-0.3-2.2,2.1-2.8,2-5.2c-9,1.9-17.8,6-27.7,2.6c5-1.8,9.4-3.8,13.3-8
		c-6.3-0.9-11.5,1.3-16.7,2.8c-2.4,0.7-4.7,1.9-7.1,2.8c-1.6,0.6-3,1.9-4.9,0.1c-1-1-2.7,0.5-4,1c-5.3,1.9-10.7,3.3-16.5,3
		c-0.8-0.1-1.9,0.2-2.6-1.2c3.9-2.7,9.3-4.1,10.3-9.9c-6.3,0.2-12.4,4-23,14.6c-1.2-4,1.4-7.7,0-11.8c-8.9,6-18.1,11.3-30.3,11.8
		c3.3-3.4,6.2-5.9,6.8-9.8c0.3-1.7,1.8-3.7,0.1-5.1c-1.4-1.2-3,0.5-4.5,1.1c-5,2.2-9.9,4.5-14.8,6.8c-1.8,0.8-3.6,1.5-5.9,2.5
		c1-3.1,3.9-3.7,4.7-6c0.4-0.4,1.6-0.4,1-1.2c-0.4-0.6-1.2-0.1-1.7,0.4c-5.1,0.6-9.6,3-14.4,4.7c-3.2,1.1-6.1,2.8-10.2,3.2
		c2.6-3.8,6.7-6,7.4-10.9c-9.3,0.5-16.7,4.9-24.1,9.6c-1.7-1.8-0.2-4-1.5-5.9c-5.2,3.5-10.4,7.8-17.6,5.5c0.6-2.2,3-2.5,3.3-4.4
		c0.5-0.3,0.9-0.7,0.8-1.4c0.5,0,1,0,0.5-0.8c-0.2,0.2-0.4,0.5-0.6,0.7c-0.6,0-1,0.3-1.3,0.9c-3.7,1.8-7.3,4-11.4,5
		c-2.1,0.5-4.2,0.9-6.7,0.2c1.7-3.2,4.9-5.2,5.7-9.1c-6.2,0.3-12,2.1-17.8,3.8c-3.2,1-6.2,3-9.9,2.5l0.1,0.1
		c-0.3-0.7,0.3-2.1-1.3-1.6c-1.7,0.6-3.2,1.6-4.8,2.3c-2.1,0.9-4.1,2-6.6,1.1c-0.2-1.8,1.9-2.2,2-3.6c0.3-0.5,0.5-0.9,0.8-1.4
		c0.4-0.2,1-0.3,0.3-0.8c-0.2,0.2-0.3,0.4-0.5,0.7c-0.6-0.1-1.1,0.2-1.5,0.7c-3.3,0.7-5.5,3.2-8.3,4.8c-2.9,1.7-1.7-0.8-1.9-1.9
		c0.2-0.3,0.6-0.7,0.5-0.8c-0.4-0.7-0.8-0.3-1.2,0.1c-3.5,1-6.9,2-10.4,3c-2.4,0.7-4.6,0.7-7.1-0.9c3-2.5,7.3-3.3,9.4-8
		c-10.6,0-19.9,2.6-28.5,8.4c-2.2-3.9,0.9-7.1,1-10.4c-8.8-1.7-14.7,0.5-26.8,9.9c-0.7-1.4-0.6-2.8-0.5-4.1c0-1.4,0.2-2.9,0.3-4.5
		c-3-0.1-4.7,2.1-7.4,3.1C4.5,123,6.7,116.5,8.5,110c-2.8-1.3-5.6,0.3-8.5-1.1c2.1-4.1,6.1-6.6,8.2-10.5c2-3.9,3.7-7.8,4.6-12.8
		c-3.9,1.2-5.8,4.7-9.4,6c0.4-6,2.9-11,5.5-16c0.8-1.6,2.2-2.9,2.4-4.8c0.4-0.4,0.7-0.7,1.1-1.1C11.7,68.7,11.1,69,10.5,69.6z
		 M323,132.8l0.2-0.3l-0.4-0.1L323,132.8z"/>
	<path class="st0" d="M844.6,20.7c0.4-0.6,1.2-1.2,1.6-0.5c0.5,0.8-0.7,0.8-1.1,1.1C844.9,21.1,844.8,20.9,844.6,20.7z"/>
	<path class="st0" d="M5.3,69.9C5.2,70,5.1,70.2,5,70.4c0-0.1,0-0.2,0-0.3C5.1,70,5.3,70,5.3,69.9C5.4,69.9,5.3,69.9,5.3,69.9z"/>
	<path class="st0" d="M100.1,133.1c0,0.4-0.1,0.6-0.5,0.5c0,0,0-0.3,0.1-0.3C99.9,133.2,100.1,133.2,100.1,133.1
		C100.2,133.2,100.1,133.1,100.1,133.1z"/>
	<path class="st0" d="M492.6,136.4c0,0.1-0.1,0.3-0.1,0.4C492.5,136.6,492.6,136.5,492.6,136.4C492.7,136.4,492.6,136.4,492.6,136.4
		z"/>
	<path class="st0" d="M341.1,140.7c-0.1,0.2-0.2,0.5-0.2,0.5C340.5,141.1,340.6,141,341.1,140.7
		C341.1,140.8,341.1,140.7,341.1,140.7z"/>
	<path class="st0" d="M583,145.2c0.2,0.1,0.3,0.3,0.5,0.4c-0.1,0-0.2,0-0.3-0.1C583.2,145.4,583.2,145.2,583,145.2
		C583.1,145.1,583,145.2,583,145.2z"/>
	<path class="st1" d="M171.4,25.8c0.5,0.3,1.5,0.6,0.9,1.3c-0.5,0.6-1.1,0-1.5-0.6C171.1,26.3,171.3,26.1,171.4,25.8z"/>
	<path class="st1" d="M408,25.8c0.5,0.3,1.5,0.5,1,1.3c-0.4,0.6-1.2,0.1-1.7-0.4C407.5,26.4,407.8,26.1,408,25.8z"/>
	<path class="st1" d="M699,24.5c-0.5,0.5-1.3,1.1-1.8,0.4c-0.6-0.8,0.5-1,1-1.3C698.4,23.9,698.7,24.2,699,24.5z"/>
	<path class="st1" d="M10.5,69.6c0.6-0.6,1.1-0.9,1.9-0.2c-0.4,0.4-0.7,0.7-1.1,1.1C11,70.2,10.8,69.9,10.5,69.6z"/>
	<path class="st1" d="M862.8,126c-0.4-0.4-0.7-0.7-1.1-1.1c0.7-0.7,1.3-0.3,1.9,0.2C863.3,125.4,863.1,125.7,862.8,126z"/>
	<path class="st1" d="M198,129.5c0.5-0.5,1.4-1,1.7-0.4c0.5,0.8-0.6,0.9-1,1.2C198.5,130.1,198.2,129.8,198,129.5z"/>
	<path class="st1" d="M611.2,131.3c-0.5-0.3-1.5-0.3-1.1-1c0.4-0.6,1.1-0.1,1.5,0.5C611.4,131,611.3,131.1,611.2,131.3z"/>
	<path class="st1" d="M847.9,131.1c-0.6,0.2-1-0.1-1.4-0.6c0-0.1,0.2-0.4,0.3-0.4c0.6-0.1,1,0.2,1.2,0.8
		C848,130.9,847.9,131.1,847.9,131.1z"/>
	<path class="st1" d="M355.5,25c0.2,0.3,0.6,0.7,0.5,0.8c-0.4,0.7-0.8,0.2-1.2-0.1C355.1,25.4,355.3,25.2,355.5,25z"/>
	<path class="st1" d="M608.2,25.2c-0.1,0.2-0.2,0.5-0.3,0.7C607.1,25.3,607.9,25.4,608.2,25.2L608.2,25.2z"/>
	<path class="st1" d="M657.4,25.4c-0.2,0.4-0.5,0.6-0.7,0.3c-0.1-0.1,0.2-0.5,0.3-0.8C657.1,25.1,657.2,25.3,657.4,25.4z"/>
	<path class="st1" d="M940.8,25.4c0,0.5-0.3,0.7-0.6,0.5s0-0.5,0.4-0.6C940.6,25.2,940.8,25.4,940.8,25.4z"/>
	<path class="st1" d="M619.5,27.9c-0.4,0.4-0.9,0.7-1.2,0c-0.1-0.1,0.3-0.5,0.5-0.8C619,27.4,619.3,27.6,619.5,27.9z"/>
	<path class="st1" d="M864.3,27.4c-0.1,0.1-0.1,0.3-0.2,0.4c0,0.1-0.2,0-0.3,0C864,27.7,864.2,27.6,864.3,27.4
		C864.4,27.5,864.3,27.4,864.3,27.4z"/>
	<path class="st1" d="M930.1,27.8c-0.3,0.4-0.7,0.8-1.1,0.2c0-0.1,0.4-0.5,0.6-0.7C929.8,27.4,930,27.6,930.1,27.8z"/>
	<path class="st1" d="M48.2,28.1c0.3,0.3,0.8,0.7,0.1,1c-0.1,0.1-0.5-0.3-0.7-0.5C47.8,28.5,48,28.3,48.2,28.1z"/>
	<path class="st1" d="M235.5,29.5c0.2,0.2,0.5,0.6,0.5,0.6c-0.4,0.6-0.7,0.2-1-0.1C235.1,29.8,235.3,29.6,235.5,29.5z"/>
	<path class="st1" d="M572.3,30.7c0.1,0.5-0.1,0.7-0.5,0.5c0,0-0.1-0.3,0-0.4C571.8,30.8,572,30.7,572.3,30.7
		C572.2,30.7,572.3,30.7,572.3,30.7z"/>
	<path class="st1" d="M215.9,32.7c0.1,0.2,0.2,0.4,0.3,0.7c-0.2-0.1-0.4-0.2-0.7-0.3C215.6,33,215.9,32.7,215.9,32.7z"/>
	<path class="st1" d="M12.2,45.6c0.5,0.3,0.8,0.7,0.2,1.1c0,0-0.4-0.4-0.6-0.7C11.9,46,12,45.8,12.2,45.6z"/>
	<path class="st1" d="M23.3,32.4c0.3,0.3,0.7,0.7,0.3,1.1c-0.4,0.4-0.8,0-1.1-0.3C22.7,32.9,23,32.7,23.3,32.4z"/>
	<path class="st1" d="M996.1,124.5c-0.2-0.1-0.5-0.3-0.7-0.4C996,123.4,996,124.1,996.1,124.5L996.1,124.5z"/>
	<path class="st1" d="M804.1,125.8c-0.2-0.3-0.5-0.6-0.4-0.7c0.3-0.6,0.8-0.3,1.1,0C804.6,125.3,804.3,125.6,804.1,125.8z"/>
	<path class="st1" d="M996.3,124.4c0.5,0.3,0.9,0.5,1.4,0.8c-0.3,0.3-0.6,0.6-0.9,0.8c-0.5-0.4-0.8-0.8-0.6-1.5
		C996.1,124.5,996.3,124.4,996.3,124.4z"/>
	<path class="st1" d="M90.2,129.7c0.2-0.2,0.3-0.4,0.5-0.7c0.7,0.6,0.1,0.7-0.3,0.8L90.2,129.7z"/>
	<path class="st1" d="M141.6,129.8c0.2-0.2,0.4-0.5,0.6-0.7C142.7,129.9,142.2,129.9,141.6,129.8L141.6,129.8z"/>
	<path class="st1" d="M764.8,130.2c-0.4-0.3-0.7-0.7-0.1-1.1c0.1,0,0.4,0.4,0.7,0.6C765.2,129.8,765,130,764.8,130.2z"/>
	<path class="st1" d="M90.4,129.9c-0.3,0.5-0.5,0.9-0.8,1.4c-0.3-0.3-0.6-0.6-0.8-0.9c0.4-0.5,0.8-0.8,1.5-0.7
		C90.2,129.7,90.4,129.9,90.4,129.9z"/>
	<path class="st1" d="M141.6,129.9c0.1,0.7-0.2,1.1-0.8,1.4c-0.2-0.2-0.4-0.4-0.6-0.6C140.6,130.2,141,129.9,141.6,129.9
		C141.6,129.8,141.6,129.9,141.6,129.9z"/>
	<path class="st1" d="M77.9,132.7c0.4-0.4,0.8-0.8,1.2-0.1c0.1,0.1-0.3,0.5-0.5,0.8C78.4,133.1,78.2,132.9,77.9,132.7z"/>
	<polygon class="st1" points="323,132.8 322.8,132.5 323.2,132.5 	"/>
	<path class="st1" d="M410.5,132.8c0.3-0.4,0.7-0.8,1.1-0.2c0,0.1-0.4,0.4-0.6,0.7C410.8,133.1,410.7,132.9,410.5,132.8z"/>
	<path class="st1" d="M598,133.5c-0.4-0.3-0.8-0.7-0.1-1.1c0.1-0.1,0.5,0.3,0.7,0.5C598.4,133.1,598.2,133.3,598,133.5z"/>
	<path class="st1" d="M581.6,136.8c-0.4-0.4-0.8-0.7-0.1-1.2c0.1-0.1,0.5,0.4,0.7,0.5C582,136.4,581.8,136.6,581.6,136.8z"/>
</g>
</svg>
