<?xml version="1.0" encoding="utf-8"?>
<!-- Generator: Adobe Illustrator 25.3.1, SVG Export Plug-In . SVG Version: 6.00 Build 0)  -->
<svg version="1.1" id="Layer_1" xmlns="http://www.w3.org/2000/svg" xmlns:xlink="http://www.w3.org/1999/xlink" x="0px" y="0px"
	 viewBox="0 0 98 98" style="enable-background:new 0 0 98 98;" xml:space="preserve">
<style type="text/css">
	.st0{fill:#F0659C;}
</style>
<path class="st0" d="M49,0C21.9,0,0,21.9,0,49s21.9,49,49,49s49-21.9,49-49S76.1,0,49,0z M76,58.2c-2.7,2.2-6.3,1.7-8.5-1
	C63.3,52,59,46.8,54.8,41.7c-0.1-0.1-0.1-0.1-0.4-0.3c0,0.5,0,0.9,0,1.3c0,34.9,0-4.1,0,30.8c0,0.8,0,1.7-0.2,2.4
	c-0.6,2.2-2,3.5-4.1,4.2c-0.2,0.1-0.5,0.2-0.7,0.2c-0.6,0-1.3,0-1.9,0c-0.9-0.5-2-0.8-2.8-1.4c-1.6-1.2-2.1-3-2.1-5
	c0-35,0,3.9,0-31.1c0-0.5,0-0.9,0-1.7c-0.7,0.9-1.2,1.6-1.7,2.3c-3.5,4.8-6.9,9.6-10.3,14.4c-1.6,2.2-4.3,3-6.8,2.2
	c-2.4-0.8-4.1-3.2-3.9-5.7c0.1-1.1,0.5-2.4,1.2-3.3c7.2-10.2,14.6-20.3,21.8-30.5c1-1.4,2.4-2.1,4-2.6c0.6,0,1.1,0,1.7,0
	c2.7,0.5,4.1,2.7,5.7,4.6c7.4,9,14.7,18,22.1,27C79.1,52.6,78.3,56.3,76,58.2z"/>
</svg>
